<svg width="52" height="52" viewBox="0 0 52 52" fill="none" xmlns="http://www.w3.org/2000/svg">
<g clip-path="url(#clip0_1317_1802)">
<path d="M15.334 19.3334C15.334 18.6262 15.6149 17.9479 16.115 17.4478C16.6151 16.9477 17.2934 16.6667 18.0007 16.6667H34.0006C34.7079 16.6667 35.3862 16.9477 35.8863 17.4478C36.3864 17.9479 36.6673 18.6262 36.6673 19.3334V35.3334C36.6673 36.0407 36.3864 36.7189 35.8863 37.219C35.3862 37.7191 34.7079 38.0001 34.0006 38.0001H18.0007C17.2934 38.0001 16.6151 37.7191 16.115 37.219C15.6149 36.7189 15.334 36.0407 15.334 35.3334V19.3334Z" stroke="#10183C" stroke-width="1.5" stroke-linecap="round" stroke-linejoin="round"/>
<path d="M32.76 30.9743V23.2843C32.76 22.5143 32.14 21.9543 31.38 22.0143H31.34C30 22.1243 27.97 22.8144 26.83 23.5244L26.72 23.5944C26.54 23.7044 26.23 23.7044 26.04 23.5944L25.88 23.4944C24.75 22.7844 22.72 22.1143 21.38 22.0043C20.62 21.9443 20 22.5144 20 23.2744V30.9743C20 31.5843 20.5 32.1643 21.11 32.2343L21.29 32.2643C22.67 32.4443 24.81 33.1543 26.03 33.8243L26.06 33.8344C26.23 33.9344 26.51 33.9344 26.67 33.8344C27.89 33.1544 30.04 32.4543 31.43 32.2643L31.64 32.2343C32.26 32.1643 32.76 31.5943 32.76 30.9743Z" stroke="#10183C" stroke-width="1.5" stroke-linecap="round" stroke-linejoin="round"/>
<path d="M26.3809 23.8042V33.3642" stroke="#10183C" stroke-width="1.5" stroke-linecap="round" stroke-linejoin="round"/>
</g>
<defs>
<clipPath id="clip0_1317_1802">
<rect width="32" height="32" fill="white" transform="translate(10 10)"/>
</clipPath>
</defs>
</svg>
