<svg width="52" height="52" viewBox="0 0 52 52" fill="none" xmlns="http://www.w3.org/2000/svg">
<path d="M21.8377 19.5241V33H20.2058V21.2349H20.1269L16.8368 23.4195V21.7613L20.2058 19.5241H21.8377ZM29.9235 33.1842C28.9321 33.1842 28.0877 32.9145 27.3902 32.3749C26.6927 31.8309 26.1597 31.0435 25.7912 30.0127C25.4228 28.9774 25.2385 27.7272 25.2385 26.262C25.2385 24.8056 25.4228 23.562 25.7912 22.5311C26.1641 21.4959 26.6993 20.7063 27.3968 20.1623C28.0986 19.614 28.9409 19.3398 29.9235 19.3398C30.9061 19.3398 31.7462 19.614 32.4437 20.1623C33.1455 20.7063 33.6807 21.4959 34.0492 22.5311C34.4221 23.562 34.6085 24.8056 34.6085 26.262C34.6085 27.7272 34.4243 28.9774 34.0558 30.0127C33.6873 31.0435 33.1543 31.8309 32.4568 32.3749C31.7593 32.9145 30.9149 33.1842 29.9235 33.1842ZM29.9235 31.7366C30.9061 31.7366 31.6694 31.2629 32.2134 30.3153C32.7573 29.3678 33.0293 28.0167 33.0293 26.262C33.0293 25.0952 32.9043 24.1016 32.6542 23.2813C32.4086 22.461 32.0532 21.8359 31.5883 21.406C31.1277 20.9761 30.5727 20.7611 29.9235 20.7611C28.9497 20.7611 28.1886 21.2415 27.6402 22.2021C27.0919 23.1584 26.8177 24.5117 26.8177 26.262C26.8177 27.4289 26.9406 28.4203 27.1862 29.2362C27.4319 30.0521 27.785 30.6729 28.2456 31.0984C28.7106 31.5239 29.2699 31.7366 29.9235 31.7366Z" fill="#10183C"/>
<rect x="12.75" y="12.75" width="26.9118" height="26.5" rx="1.10294" stroke="#10183C" stroke-width="1.5"/>
</svg>
