<svg width="52" height="52" viewBox="0 0 52 52" fill="none" xmlns="http://www.w3.org/2000/svg">
<g clip-path="url(#clip0_1317_1794)">
<path d="M16.666 16.6667C17.9122 15.4452 19.5877 14.761 21.3327 14.761C23.0777 14.761 24.7532 15.4452 25.9993 16.6667C27.2455 17.8882 28.921 18.5724 30.666 18.5724C32.411 18.5724 34.0865 17.8882 35.3327 16.6667V28.6667C34.0865 29.8882 32.411 30.5724 30.666 30.5724C28.921 30.5724 27.2455 29.8882 25.9993 28.6667C24.7532 27.4452 23.0777 26.761 21.3327 26.761C19.5877 26.761 17.9122 27.4452 16.666 28.6667V16.6667Z" stroke="#10183C" stroke-width="1.5" stroke-linecap="round" stroke-linejoin="round"/>
<path d="M16.666 38.0001V28.6667" stroke="#10183C" stroke-width="1.5" stroke-linecap="round" stroke-linejoin="round"/>
</g>
<defs>
<clipPath id="clip0_1317_1794">
<rect width="32" height="32" fill="white" transform="translate(10 10)"/>
</clipPath>
</defs>
</svg>
