<svg width="52" height="52" viewBox="0 0 52 52" fill="none" xmlns="http://www.w3.org/2000/svg">
<g clip-path="url(#clip0_1317_1779)">
<path d="M15.334 19.3334C15.334 18.6262 15.6149 17.9479 16.115 17.4478C16.6151 16.9477 17.2934 16.6667 18.0007 16.6667H34.0006C34.7079 16.6667 35.3862 16.9477 35.8863 17.4478C36.3864 17.9479 36.6673 18.6262 36.6673 19.3334V35.3334C36.6673 36.0407 36.3864 36.7189 35.8863 37.219C35.3862 37.7191 34.7079 38.0001 34.0006 38.0001H18.0007C17.2934 38.0001 16.6151 37.7191 16.115 37.219C15.6149 36.7189 15.334 36.0407 15.334 35.3334V19.3334Z" stroke="#10183C" stroke-width="1.5" stroke-linecap="round" stroke-linejoin="round"/>
<path d="M31.334 14V19.3333" stroke="#10183C" stroke-width="1.5" stroke-linecap="round" stroke-linejoin="round"/>
<path d="M20.666 14V19.3333" stroke="#10183C" stroke-width="1.5" stroke-linecap="round" stroke-linejoin="round"/>
<path d="M15.334 24.6667H36.6673" stroke="#10183C" stroke-width="1.5" stroke-linecap="round" stroke-linejoin="round"/>
<path d="M20.666 30H23.3327V32.6667H20.666V30Z" stroke="#10183C" stroke-width="1.5" stroke-linecap="round" stroke-linejoin="round"/>
</g>
<defs>
<clipPath id="clip0_1317_1779">
<rect width="32" height="32" fill="white" transform="translate(10 10)"/>
</clipPath>
</defs>
</svg>
