<svg width="52" height="52" viewBox="0 0 52 52" fill="none" xmlns="http://www.w3.org/2000/svg">
<g clip-path="url(#clip0_1317_1787)">
<path d="M22.8193 36.6666H19.3327C18.6254 36.6666 17.9472 36.3856 17.4471 35.8855C16.947 35.3854 16.666 34.7072 16.666 33.9999V17.9999C16.666 17.2927 16.947 16.6144 17.4471 16.1143C17.9472 15.6142 18.6254 15.3333 19.3327 15.3333H29.9993C30.7066 15.3333 31.3849 15.6142 31.885 16.1143C32.3851 16.6144 32.666 17.2927 32.666 17.9999V28.6666" stroke="#10183C" stroke-width="1.5" stroke-linecap="round" stroke-linejoin="round"/>
<path d="M28.666 35.3334L31.3327 38.0001L36.666 32.6667" stroke="#10183C" stroke-width="1.5" stroke-linecap="round" stroke-linejoin="round"/>
<path d="M22 20.6667H27.3333" stroke="#10183C" stroke-width="1.5" stroke-linecap="round" stroke-linejoin="round"/>
<path d="M22 26H24.6667" stroke="#10183C" stroke-width="1.5" stroke-linecap="round" stroke-linejoin="round"/>
</g>
<defs>
<clipPath id="clip0_1317_1787">
<rect width="32" height="32" fill="white" transform="translate(10 10)"/>
</clipPath>
</defs>
</svg>
