<svg width="52" height="52" viewBox="0 0 52 52" fill="none" xmlns="http://www.w3.org/2000/svg">
<path d="M21.5625 29.1064C21.5625 30.8264 22.8825 32.213 24.5225 32.213H27.8692C29.2958 32.213 30.4558 30.9997 30.4558 29.5064C30.4558 27.8797 29.7492 27.3064 28.6958 26.933L23.3225 25.0664C22.2692 24.693 21.5625 24.1197 21.5625 22.493C21.5625 20.9997 22.7225 19.7864 24.1492 19.7864H27.4958C29.1358 19.7864 30.4558 21.173 30.4558 22.893" stroke="#10183C" stroke-width="1.5" stroke-linecap="round" stroke-linejoin="round"/>
<path d="M26 18V34" stroke="#10183C" stroke-width="1.5" stroke-linecap="round" stroke-linejoin="round"/>
<path d="M25.9993 39.3334C33.3631 39.3334 39.3327 33.3639 39.3327 26.0001C39.3327 18.6363 33.3631 12.6667 25.9993 12.6667C18.6356 12.6667 12.666 18.6363 12.666 26.0001C12.666 33.3639 18.6356 39.3334 25.9993 39.3334Z" stroke="#10183C" stroke-width="1.5" stroke-linecap="round" stroke-linejoin="round"/>
</svg>
