<svg width="166" height="60" viewBox="0 0 166 60" fill="none" xmlns="http://www.w3.org/2000/svg">
<rect width="166" height="59.3879" rx="7.15517" fill="url(#paint0_linear_1142_68215)"/>
<path d="M23.7012 15.0607L21.3428 23.0173H19.866L18.1946 16.9955L16.4201 23.0173L14.9547 23.0287L12.6994 15.0607H14.0846L15.7332 21.5404L17.5191 15.0607H18.9845L20.6445 21.5061L22.3045 15.0607H23.7012ZM24.2281 19.8346C24.2281 19.2012 24.3578 18.6402 24.6173 18.1517C24.8844 17.6633 25.2432 17.2855 25.6935 17.0184C26.1514 16.7436 26.6551 16.6062 27.2046 16.6062C27.7007 16.6062 28.1319 16.7054 28.4983 16.9039C28.8723 17.0947 29.1699 17.3351 29.3912 17.6251V16.7093H30.7078V23.0173H29.3912V22.0785C29.1699 22.3761 28.8684 22.6242 28.4868 22.8226C28.1052 23.0211 27.6702 23.1203 27.1817 23.1203C26.6398 23.1203 26.1437 22.9829 25.6935 22.7081C25.2432 22.4258 24.8844 22.0365 24.6173 21.5404C24.3578 21.0367 24.2281 20.4681 24.2281 19.8346ZM29.3912 19.8575C29.3912 19.4225 29.2997 19.0447 29.1165 18.7241C28.9409 18.4036 28.7082 18.1594 28.4181 17.9915C28.1281 17.8235 27.8152 17.7396 27.4794 17.7396C27.1436 17.7396 26.8306 17.8235 26.5406 17.9915C26.2506 18.1517 26.014 18.3921 25.8308 18.7127C25.6553 19.0256 25.5675 19.3996 25.5675 19.8346C25.5675 20.2697 25.6553 20.6513 25.8308 20.9795C26.014 21.3076 26.2506 21.5595 26.5406 21.735C26.8383 21.903 27.1512 21.9869 27.4794 21.9869C27.8152 21.9869 28.1281 21.903 28.4181 21.735C28.7082 21.5671 28.9409 21.3229 29.1165 21.0024C29.2997 20.6742 29.3912 20.2926 29.3912 19.8575ZM35.4901 16.6062C35.9862 16.6062 36.4289 16.7093 36.8181 16.9153C37.215 17.1214 37.5241 17.4267 37.7454 17.8312C37.9668 18.2357 38.0774 18.7241 38.0774 19.2966V23.0173H36.7838V19.4912C36.7838 18.9264 36.6426 18.4952 36.3602 18.1975C36.0778 17.8922 35.6924 17.7396 35.2039 17.7396C34.7155 17.7396 34.3262 17.8922 34.0362 18.1975C33.7538 18.4952 33.6126 18.9264 33.6126 19.4912V23.0173H32.3075V16.7093H33.6126V17.4305C33.8263 17.171 34.0973 16.9687 34.4254 16.8237C34.7613 16.6787 35.1162 16.6062 35.4901 16.6062ZM41.1503 17.7739V21.2657C41.1503 21.5023 41.2037 21.674 41.3106 21.7808C41.4251 21.8801 41.6159 21.9297 41.883 21.9297H42.6844V23.0173H41.654C41.0664 23.0173 40.6161 22.8799 40.3032 22.6051C39.9902 22.3304 39.8338 21.8839 39.8338 21.2657V17.7739H39.0896V16.7093H39.8338V15.1408H41.1503V16.7093H42.6844V17.7739H41.1503ZM48.1548 17.7739V21.2657C48.1548 21.5023 48.2082 21.674 48.3151 21.7808C48.4295 21.8801 48.6204 21.9297 48.8875 21.9297H49.6889V23.0173H48.6585C48.0708 23.0173 47.6205 22.8799 47.3076 22.6051C46.9947 22.3304 46.8382 21.8839 46.8382 21.2657V17.7739H46.0941V16.7093H46.8382V15.1408H48.1548V16.7093H49.6889V17.7739H48.1548ZM53.5134 23.1203C52.9181 23.1203 52.38 22.9867 51.8992 22.7196C51.4184 22.4448 51.0406 22.0632 50.7658 21.5748C50.491 21.0787 50.3537 20.5063 50.3537 19.8575C50.3537 19.2164 50.4949 18.6478 50.7772 18.1517C51.0596 17.6556 51.4451 17.274 51.9335 17.0069C52.422 16.7398 52.9677 16.6062 53.5706 16.6062C54.1736 16.6062 54.7193 16.7398 55.2077 17.0069C55.6962 17.274 56.0816 17.6556 56.364 18.1517C56.6464 18.6478 56.7876 19.2164 56.7876 19.8575C56.7876 20.4986 56.6426 21.0672 56.3526 21.5633C56.0625 22.0594 55.6657 22.4448 55.1619 22.7196C54.6658 22.9867 54.1163 23.1203 53.5134 23.1203ZM53.5134 21.9869C53.8492 21.9869 54.1621 21.9068 54.4521 21.7465C54.7498 21.5862 54.9902 21.3458 55.1734 21.0252C55.3566 20.7047 55.4481 20.3155 55.4481 19.8575C55.4481 19.3996 55.3604 19.0142 55.1848 18.7013C55.0093 18.3807 54.7765 18.1403 54.4865 17.98C54.1965 17.8197 53.8835 17.7396 53.5477 17.7396C53.2119 17.7396 52.899 17.8197 52.609 17.98C52.3266 18.1403 52.1014 18.3807 51.9335 18.7013C51.7656 19.0142 51.6817 19.3996 51.6817 19.8575C51.6817 20.5368 51.8534 21.0634 52.1968 21.4374C52.5479 21.8037 52.9868 21.9869 53.5134 21.9869ZM62.1278 17.648C62.3491 17.3427 62.6506 17.0947 63.0322 16.9039C63.4214 16.7054 63.8526 16.6062 64.3258 16.6062C64.883 16.6062 65.3867 16.7398 65.837 17.0069C66.2873 17.274 66.6422 17.6556 66.9017 18.1517C67.1612 18.6402 67.2909 19.2012 67.2909 19.8346C67.2909 20.4681 67.1612 21.0367 66.9017 21.5404C66.6422 22.0365 66.2835 22.4258 65.8256 22.7081C65.3753 22.9829 64.8754 23.1203 64.3258 23.1203C63.8374 23.1203 63.4023 23.0249 63.0207 22.8341C62.6468 22.6433 62.3491 22.399 62.1278 22.1014V23.0173H60.8227V14.5455H62.1278V17.648ZM65.9629 19.8346C65.9629 19.3996 65.8714 19.0256 65.6882 18.7127C65.5126 18.3921 65.276 18.1517 64.9784 17.9915C64.6884 17.8235 64.3754 17.7396 64.0396 17.7396C63.7114 17.7396 63.3985 17.8235 63.1009 17.9915C62.8108 18.1594 62.5742 18.4036 62.3911 18.7241C62.2155 19.0447 62.1278 19.4225 62.1278 19.8575C62.1278 20.2926 62.2155 20.6742 62.3911 21.0024C62.5742 21.3229 62.8108 21.5671 63.1009 21.735C63.3985 21.903 63.7114 21.9869 64.0396 21.9869C64.3754 21.9869 64.6884 21.903 64.9784 21.735C65.276 21.5595 65.5126 21.3076 65.6882 20.9795C65.8714 20.6513 65.9629 20.2697 65.9629 19.8346ZM74.2484 19.7087C74.2484 19.9453 74.2332 20.159 74.2027 20.3498H69.3829C69.4211 20.8535 69.6081 21.258 69.9439 21.5633C70.2797 21.8686 70.6919 22.0213 71.1803 22.0213C71.8825 22.0213 72.3786 21.7274 72.6686 21.1397H74.0767C73.8859 21.7198 73.5387 22.1968 73.0349 22.5708C72.5388 22.9371 71.9206 23.1203 71.1803 23.1203C70.5774 23.1203 70.0355 22.9867 69.5547 22.7196C69.0815 22.4448 68.7075 22.0632 68.4327 21.5748C68.1656 21.0787 68.032 20.5063 68.032 19.8575C68.032 19.2088 68.1618 18.6402 68.4213 18.1517C68.6884 17.6556 69.0586 17.274 69.5318 17.0069C70.0126 16.7398 70.5621 16.6062 71.1803 16.6062C71.7756 16.6062 72.3061 16.736 72.7716 16.9955C73.2372 17.255 73.5997 17.6213 73.8592 18.0945C74.1187 18.5601 74.2484 19.0981 74.2484 19.7087ZM72.8861 19.2966C72.8785 18.8157 72.7067 18.4303 72.3709 18.1403C72.0351 17.8503 71.6192 17.7053 71.1231 17.7053C70.6728 17.7053 70.2873 17.8503 69.9668 18.1403C69.6462 18.4227 69.4554 18.8081 69.3944 19.2966H72.8861ZM74.9833 19.8575C74.9833 19.2088 75.113 18.6402 75.3725 18.1517C75.6397 17.6556 76.006 17.274 76.4716 17.0069C76.9371 16.7398 77.4714 16.6062 78.0743 16.6062C78.8375 16.6062 79.4672 16.7894 79.9633 17.1557C80.467 17.5144 80.8066 18.0296 80.9822 18.7013H79.574C79.4596 18.3883 79.2764 18.1441 79.0245 17.9686C78.7727 17.793 78.4559 17.7053 78.0743 17.7053C77.5401 17.7053 77.1127 17.8961 76.7921 18.2777C76.4792 18.6516 76.3227 19.1783 76.3227 19.8575C76.3227 20.5368 76.4792 21.0672 76.7921 21.4488C77.1127 21.8304 77.5401 22.0213 78.0743 22.0213C78.8299 22.0213 79.3298 21.6893 79.574 21.0252H80.9822C80.799 21.6664 80.4556 22.1777 79.9518 22.5593C79.4481 22.9333 78.8223 23.1203 78.0743 23.1203C77.4714 23.1203 76.9371 22.9867 76.4716 22.7196C76.006 22.4448 75.6397 22.0632 75.3725 21.5748C75.113 21.0787 74.9833 20.5063 74.9833 19.8575ZM84.9045 23.1203C84.3092 23.1203 83.7711 22.9867 83.2903 22.7196C82.8094 22.4448 82.4316 22.0632 82.1569 21.5748C81.8821 21.0787 81.7447 20.5063 81.7447 19.8575C81.7447 19.2164 81.8859 18.6478 82.1683 18.1517C82.4507 17.6556 82.8361 17.274 83.3246 17.0069C83.8131 16.7398 84.3588 16.6062 84.9617 16.6062C85.5647 16.6062 86.1104 16.7398 86.5988 17.0069C87.0873 17.274 87.4727 17.6556 87.7551 18.1517C88.0375 18.6478 88.1787 19.2164 88.1787 19.8575C88.1787 20.4986 88.0337 21.0672 87.7436 21.5633C87.4536 22.0594 87.0567 22.4448 86.553 22.7196C86.0569 22.9867 85.5074 23.1203 84.9045 23.1203ZM84.9045 21.9869C85.2403 21.9869 85.5532 21.9068 85.8432 21.7465C86.1409 21.5862 86.3813 21.3458 86.5645 21.0252C86.7476 20.7047 86.8392 20.3155 86.8392 19.8575C86.8392 19.3996 86.7515 19.0142 86.5759 18.7013C86.4004 18.3807 86.1676 18.1403 85.8776 17.98C85.5875 17.8197 85.2746 17.7396 84.9388 17.7396C84.603 17.7396 84.2901 17.8197 84.0001 17.98C83.7177 18.1403 83.4925 18.3807 83.3246 18.7013C83.1567 19.0142 83.0727 19.3996 83.0727 19.8575C83.0727 20.5368 83.2445 21.0634 83.5879 21.4374C83.939 21.8037 84.3778 21.9869 84.9045 21.9869ZM96.9904 16.6062C97.4864 16.6062 97.9291 16.7093 98.3184 16.9153C98.7152 17.1214 99.0243 17.4267 99.2457 17.8312C99.4746 18.2357 99.5891 18.7241 99.5891 19.2966V23.0173H98.2955V19.4912C98.2955 18.9264 98.1543 18.4952 97.8719 18.1975C97.5895 17.8922 97.2041 17.7396 96.7156 17.7396C96.2271 17.7396 95.8379 17.8922 95.5479 18.1975C95.2655 18.4952 95.1243 18.9264 95.1243 19.4912V23.0173H93.8306V19.4912C93.8306 18.9264 93.6894 18.4952 93.407 18.1975C93.1247 17.8922 92.7392 17.7396 92.2508 17.7396C91.7623 17.7396 91.3731 17.8922 91.083 18.1975C90.8007 18.4952 90.6595 18.9264 90.6595 19.4912V23.0173H89.3544V16.7093H90.6595V17.4305C90.8732 17.171 91.1441 16.9687 91.4723 16.8237C91.8005 16.6787 92.1516 16.6062 92.5255 16.6062C93.0293 16.6062 93.4796 16.7131 93.8764 16.9268C94.2733 17.1405 94.5786 17.4496 94.7923 17.8541C94.9831 17.4725 95.2807 17.171 95.6853 16.9497C96.0898 16.7207 96.5248 16.6062 96.9904 16.6062ZM106.917 19.7087C106.917 19.9453 106.901 20.159 106.871 20.3498H102.051C102.089 20.8535 102.276 21.258 102.612 21.5633C102.948 21.8686 103.36 22.0213 103.849 22.0213C104.551 22.0213 105.047 21.7274 105.337 21.1397H106.745C106.554 21.7198 106.207 22.1968 105.703 22.5708C105.207 22.9371 104.589 23.1203 103.849 23.1203C103.246 23.1203 102.704 22.9867 102.223 22.7196C101.75 22.4448 101.376 22.0632 101.101 21.5748C100.834 21.0787 100.7 20.5063 100.7 19.8575C100.7 19.2088 100.83 18.6402 101.09 18.1517C101.357 17.6556 101.727 17.274 102.2 17.0069C102.681 16.7398 103.23 16.6062 103.849 16.6062C104.444 16.6062 104.974 16.736 105.44 16.9955C105.905 17.255 106.268 17.6213 106.527 18.0945C106.787 18.5601 106.917 19.0981 106.917 19.7087ZM105.554 19.2966C105.547 18.8157 105.375 18.4303 105.039 18.1403C104.703 17.8503 104.287 17.7053 103.791 17.7053C103.341 17.7053 102.956 17.8503 102.635 18.1403C102.315 18.4227 102.124 18.8081 102.063 19.2966H105.554ZM110.511 19.8346C110.511 19.2012 110.641 18.6402 110.9 18.1517C111.167 17.6633 111.526 17.2855 111.976 17.0184C112.434 16.7436 112.938 16.6062 113.488 16.6062C113.984 16.6062 114.415 16.7054 114.781 16.9039C115.155 17.0947 115.453 17.3351 115.674 17.6251V16.7093H116.991V23.0173H115.674V22.0785C115.453 22.3761 115.151 22.6242 114.77 22.8226C114.388 23.0211 113.953 23.1203 113.465 23.1203C112.923 23.1203 112.427 22.9829 111.976 22.7081C111.526 22.4258 111.167 22.0365 110.9 21.5404C110.641 21.0367 110.511 20.4681 110.511 19.8346ZM115.674 19.8575C115.674 19.4225 115.583 19.0447 115.399 18.7241C115.224 18.4036 114.991 18.1594 114.701 17.9915C114.411 17.8235 114.098 17.7396 113.762 17.7396C113.426 17.7396 113.114 17.8235 112.824 17.9915C112.533 18.1517 112.297 18.3921 112.114 18.7127C111.938 19.0256 111.85 19.3996 111.85 19.8346C111.85 20.2697 111.938 20.6513 112.114 20.9795C112.297 21.3076 112.533 21.5595 112.824 21.735C113.121 21.903 113.434 21.9869 113.762 21.9869C114.098 21.9869 114.411 21.903 114.701 21.735C114.991 21.5671 115.224 21.3229 115.399 21.0024C115.583 20.6742 115.674 20.2926 115.674 19.8575Z" fill="white"/>
<path d="M30.6015 32.628C32.0567 32.628 33.2111 33.0688 34.0646 33.9503C34.9321 34.8318 35.3659 36.0561 35.3659 37.6233V44.4655H31.7978V38.106C31.7978 37.3504 31.595 36.7697 31.1892 36.364C30.7974 35.9442 30.2517 35.7343 29.5521 35.7343C28.8525 35.7343 28.2998 35.9442 27.894 36.364C27.5022 36.7697 27.3063 37.3504 27.3063 38.106V44.4655H23.7383V38.106C23.7383 37.3504 23.5354 36.7697 23.1296 36.364C22.7378 35.9442 22.1921 35.7343 21.4925 35.7343C20.7929 35.7343 20.2402 35.9442 19.8344 36.364C19.4426 36.7697 19.2467 37.3504 19.2467 38.106V44.4655H15.6577V32.7539H19.2467V34.2231C19.6105 33.7334 20.0863 33.3486 20.6739 33.0688C21.2616 32.7749 21.9262 32.628 22.6678 32.628C23.5494 32.628 24.3329 32.8169 25.0186 33.1947C25.7182 33.5725 26.2639 34.1112 26.6557 34.8108C27.0614 34.1672 27.6141 33.6425 28.3138 33.2367C29.0134 32.8309 29.776 32.628 30.6015 32.628ZM48.7061 38.4208C48.7061 38.7567 48.6851 39.1065 48.6431 39.4703H40.5205C40.5765 40.1979 40.8074 40.7576 41.2132 41.1493C41.6329 41.5271 42.1436 41.716 42.7453 41.716C43.6408 41.716 44.2635 41.3382 44.6133 40.5827H48.4332C48.2373 41.3522 47.8805 42.0449 47.3628 42.6605C46.8591 43.2762 46.2224 43.7589 45.4528 44.1087C44.6833 44.4585 43.8227 44.6334 42.8712 44.6334C41.7239 44.6334 40.7024 44.3886 39.8069 43.8988C38.9114 43.4091 38.2118 42.7095 37.7081 41.8C37.2044 40.8905 36.9525 39.8271 36.9525 38.6097C36.9525 37.3924 37.1974 36.329 37.6871 35.4195C38.1908 34.51 38.8904 33.8104 39.7859 33.3206C40.6814 32.8309 41.7099 32.586 42.8712 32.586C44.0046 32.586 45.0121 32.8239 45.8936 33.2996C46.7751 33.7754 47.4607 34.454 47.9505 35.3355C48.4542 36.217 48.7061 37.2455 48.7061 38.4208ZM45.0331 37.4764C45.0331 36.8607 44.8232 36.371 44.4034 36.0072C43.9836 35.6434 43.4589 35.4615 42.8293 35.4615C42.2276 35.4615 41.7169 35.6364 41.2971 35.9862C40.8913 36.336 40.6395 36.8327 40.5415 37.4764H45.0331ZM65.3334 32.628C66.7886 32.628 67.9429 33.0688 68.7965 33.9503C69.664 34.8318 70.0978 36.0561 70.0978 37.6233V44.4655H66.5297V38.106C66.5297 37.3504 66.3268 36.7697 65.9211 36.364C65.5293 35.9442 64.9836 35.7343 64.284 35.7343C63.5843 35.7343 63.0316 35.9442 62.6259 36.364C62.2341 36.7697 62.0382 37.3504 62.0382 38.106V44.4655H58.4701V38.106C58.4701 37.3504 58.2672 36.7697 57.8615 36.364C57.4697 35.9442 56.924 35.7343 56.2244 35.7343C55.5247 35.7343 54.9721 35.9442 54.5663 36.364C54.1745 36.7697 53.9786 37.3504 53.9786 38.106V44.4655H50.3896V32.7539H53.9786V34.2231C54.3424 33.7334 54.8181 33.3486 55.4058 33.0688C55.9935 32.7749 56.6581 32.628 57.3997 32.628C58.2812 32.628 59.0648 32.8169 59.7504 33.1947C60.4501 33.5725 60.9958 34.1112 61.3875 34.8108C61.7933 34.1672 62.346 33.6425 63.0456 33.2367C63.7452 32.8309 64.5078 32.628 65.3334 32.628ZM75.987 34.412C76.3228 33.8663 76.8056 33.4256 77.4352 33.0898C78.0649 32.7539 78.7855 32.586 79.597 32.586C80.5625 32.586 81.437 32.8309 82.2206 33.3206C83.0042 33.8104 83.6198 34.51 84.0676 35.4195C84.5293 36.329 84.7602 37.3854 84.7602 38.5887C84.7602 39.7921 84.5293 40.8555 84.0676 41.779C83.6198 42.6885 83.0042 43.3951 82.2206 43.8988C81.437 44.3886 80.5625 44.6334 79.597 44.6334C78.7715 44.6334 78.0509 44.4725 77.4352 44.1507C76.8196 43.8149 76.3368 43.3741 75.987 42.8284V44.4655H72.398V28.934H75.987V34.412ZM81.1082 38.5887C81.1082 37.6932 80.8563 36.9936 80.3526 36.4899C79.8629 35.9722 79.2542 35.7133 78.5266 35.7133C77.813 35.7133 77.2043 35.9722 76.7006 36.4899C76.2109 37.0076 75.966 37.7142 75.966 38.6097C75.966 39.5052 76.2109 40.2119 76.7006 40.7296C77.2043 41.2473 77.813 41.5061 78.5266 41.5061C79.2402 41.5061 79.8489 41.2473 80.3526 40.7296C80.8563 40.1979 81.1082 39.4843 81.1082 38.5887ZM97.4732 38.4208C97.4732 38.7567 97.4522 39.1065 97.4102 39.4703H89.2877C89.3436 40.1979 89.5745 40.7576 89.9803 41.1493C90.4 41.5271 90.9108 41.716 91.5124 41.716C92.4079 41.716 93.0306 41.3382 93.3804 40.5827H97.2003C97.0044 41.3522 96.6476 42.0449 96.1299 42.6605C95.6262 43.2762 94.9895 43.7589 94.22 44.1087C93.4504 44.4585 92.5898 44.6334 91.6384 44.6334C90.491 44.6334 89.4696 44.3886 88.574 43.8988C87.6785 43.4091 86.9789 42.7095 86.4752 41.8C85.9715 40.8905 85.7196 39.8271 85.7196 38.6097C85.7196 37.3924 85.9645 36.329 86.4542 35.4195C86.9579 34.51 87.6575 33.8104 88.5531 33.3206C89.4486 32.8309 90.477 32.586 91.6384 32.586C92.7717 32.586 93.7792 32.8239 94.6607 33.2996C95.5422 33.7754 96.2279 34.454 96.7176 35.3355C97.2213 36.217 97.4732 37.2455 97.4732 38.4208ZM93.8002 37.4764C93.8002 36.8607 93.5903 36.371 93.1705 36.0072C92.7508 35.6434 92.226 35.4615 91.5964 35.4615C90.9947 35.4615 90.484 35.6364 90.0642 35.9862C89.6584 36.336 89.4066 36.8327 89.3086 37.4764H93.8002ZM102.746 34.7059C103.165 34.0622 103.69 33.5585 104.32 33.1947C104.95 32.8169 105.649 32.628 106.419 32.628V36.4269H105.432C104.537 36.4269 103.865 36.6228 103.417 37.0146C102.97 37.3924 102.746 38.064 102.746 39.0295V44.4655H99.1567V32.7539H102.746V34.7059ZM112.227 28.913C113.724 28.913 114.92 29.3048 115.816 30.0884C116.725 30.872 117.18 31.9774 117.18 33.4046C117.18 34.7199 116.746 35.7483 115.879 36.4899C115.025 37.2175 113.892 37.5883 112.479 37.6023L112.374 39.1764H109.226L109.121 35.2726H110.38C111.457 35.2726 112.276 35.1396 112.836 34.8738C113.409 34.6079 113.696 34.1252 113.696 33.4256C113.696 32.9358 113.563 32.5511 113.297 32.2712C113.032 31.9914 112.661 31.8514 112.185 31.8514C111.681 31.8514 111.289 31.9984 111.01 32.2922C110.73 32.572 110.59 32.9568 110.59 33.4466H107.211C107.183 32.593 107.358 31.8234 107.735 31.1378C108.127 30.4522 108.701 29.9135 109.456 29.5217C110.226 29.1159 111.15 28.913 112.227 28.913ZM110.842 44.6334C110.212 44.6334 109.694 44.4515 109.289 44.0877C108.897 43.7099 108.701 43.2482 108.701 42.7025C108.701 42.1428 108.897 41.6741 109.289 41.2963C109.694 40.9185 110.212 40.7296 110.842 40.7296C111.457 40.7296 111.961 40.9185 112.353 41.2963C112.759 41.6741 112.962 42.1428 112.962 42.7025C112.962 43.2482 112.759 43.7099 112.353 44.0877C111.961 44.4515 111.457 44.6334 110.842 44.6334Z" fill="white"/>
<g clip-path="url(#clip0_1142_68215)">
<path d="M149.572 30.7461H139.453" stroke="white" stroke-width="1.43103" stroke-linecap="round" stroke-linejoin="round"/>
<path d="M145.019 35.2997L149.572 30.7461L145.019 26.1926" stroke="white" stroke-width="1.43103" stroke-linecap="round" stroke-linejoin="round"/>
</g>
<defs>
<linearGradient id="paint0_linear_1142_68215" x1="166" y1="51.5" x2="-37.5" y2="2.36302e-06" gradientUnits="userSpaceOnUse">
<stop offset="0.029548" stop-color="#895D1F"/>
<stop offset="0.473217" stop-color="#BD9F50"/>
<stop offset="0.941357" stop-color="#C88925"/>
</linearGradient>
<clipPath id="clip0_1142_68215">
<rect width="17.1724" height="17.1724" fill="white" transform="translate(156.656 30.7461) rotate(135)"/>
</clipPath>
</defs>
</svg>
