<svg width="402" height="57" viewBox="0 0 402 57" fill="none" xmlns="http://www.w3.org/2000/svg">
<g filter="url(#filter0_d_1405_1995)">
<rect x="2" y="1" width="398" height="52.2855" rx="8" fill="url(#paint0_linear_1405_1995)"/>
<path d="M26.0334 33.1427L22.8061 21.5064H24.6527L26.9197 30.5177H27.0277L29.3857 21.5064H31.2152L33.5732 30.5234H33.6811L35.9425 21.5064H37.7947L34.5618 33.1427H32.7947L30.3459 24.4268H30.255L27.8061 33.1427H26.0334ZM40.9396 33.3359C40.3866 33.3359 39.8866 33.2336 39.4396 33.0291C38.9927 32.8208 38.6385 32.5196 38.3771 32.1257C38.1196 31.7317 37.9908 31.2488 37.9908 30.6768C37.9908 30.1844 38.0855 29.7791 38.2749 29.4609C38.4643 29.1427 38.7199 28.8908 39.0419 28.7052C39.3639 28.5196 39.7237 28.3795 40.1214 28.2848C40.5192 28.1901 40.9245 28.1181 41.3374 28.0689C41.8601 28.0083 42.2843 27.959 42.6101 27.9211C42.9358 27.8795 43.1726 27.8132 43.3203 27.7223C43.468 27.6314 43.5419 27.4836 43.5419 27.2791V27.2393C43.5419 26.7431 43.4018 26.3586 43.1214 26.0859C42.8449 25.8132 42.4321 25.6768 41.8828 25.6768C41.3108 25.6768 40.8601 25.8037 40.5305 26.0575C40.2048 26.3075 39.9794 26.5859 39.8544 26.8927L38.2578 26.5291C38.4472 25.9988 38.7237 25.5708 39.0874 25.245C39.4548 24.9155 39.8771 24.6768 40.3544 24.5291C40.8317 24.3776 41.3336 24.3018 41.8601 24.3018C42.2086 24.3018 42.5779 24.3435 42.968 24.4268C43.362 24.5064 43.7294 24.6541 44.0703 24.87C44.415 25.0859 44.6972 25.3946 44.9169 25.7961C45.1366 26.1939 45.2464 26.7109 45.2464 27.3473V33.1427H43.5874V31.9495H43.5192C43.4093 32.1692 43.2446 32.3852 43.0249 32.5973C42.8052 32.8094 42.523 32.9855 42.1783 33.1257C41.8336 33.2658 41.4207 33.3359 40.9396 33.3359ZM41.3089 31.9723C41.7786 31.9723 42.1802 31.8795 42.5135 31.6939C42.8506 31.5083 43.1063 31.2658 43.2805 30.9666C43.4586 30.6636 43.5476 30.3397 43.5476 29.995V28.87C43.487 28.9306 43.3696 28.9874 43.1953 29.0405C43.0249 29.0897 42.8298 29.1333 42.6101 29.1711C42.3904 29.2052 42.1764 29.2374 41.968 29.2677C41.7597 29.2942 41.5855 29.317 41.4453 29.3359C41.1158 29.3776 40.8146 29.4477 40.5419 29.5461C40.273 29.6446 40.0571 29.7867 39.8942 29.9723C39.7351 30.1541 39.6555 30.3965 39.6555 30.6995C39.6555 31.12 39.8108 31.4382 40.1214 31.6541C40.4321 31.8662 40.8279 31.9723 41.3089 31.9723ZM49.2081 27.9609V33.1427H47.5092V24.4155H49.1399V25.8359H49.2479C49.4486 25.3738 49.763 25.0026 50.1911 24.7223C50.6229 24.442 51.1664 24.3018 51.8217 24.3018C52.4164 24.3018 52.9373 24.4268 53.3842 24.6768C53.8312 24.923 54.1778 25.2905 54.424 25.7791C54.6702 26.2677 54.7933 26.8719 54.7933 27.5916V33.1427H53.0945V27.7961C53.0945 27.1636 52.9297 26.6692 52.6001 26.3132C52.2706 25.9533 51.8179 25.7734 51.2422 25.7734C50.8482 25.7734 50.4979 25.8586 50.1911 26.0291C49.888 26.1995 49.6475 26.4495 49.4695 26.7791C49.2952 27.1048 49.2081 27.4988 49.2081 27.9609ZM61.1456 24.4155V25.7791H56.3786V24.4155H61.1456ZM57.657 22.3245H59.3558V30.5802C59.3558 30.9098 59.4051 31.1579 59.5036 31.3245C59.602 31.4874 59.7289 31.5992 59.8842 31.6598C60.0433 31.7166 60.2157 31.745 60.4013 31.745C60.5376 31.745 60.657 31.7355 60.7592 31.7166C60.8615 31.6977 60.9411 31.6825 60.9979 31.6711L61.3047 33.0745C61.2062 33.1124 61.0661 33.1503 60.8842 33.1882C60.7024 33.2299 60.4751 33.2526 60.2024 33.2564C59.7554 33.2639 59.3388 33.1844 58.9524 33.0177C58.5661 32.8511 58.2536 32.5935 58.0149 32.245C57.7763 31.8965 57.657 31.459 57.657 30.9325V22.3245ZM71.3331 24.4155V25.7791H66.5661V24.4155H71.3331ZM67.8445 22.3245H69.5433V30.5802C69.5433 30.9098 69.5926 31.1579 69.6911 31.3245C69.7895 31.4874 69.9164 31.5992 70.0717 31.6598C70.2308 31.7166 70.4032 31.745 70.5888 31.745C70.7251 31.745 70.8445 31.7355 70.9467 31.7166C71.049 31.6977 71.1286 31.6825 71.1854 31.6711L71.4922 33.0745C71.3937 33.1124 71.2536 33.1503 71.0717 33.1882C70.8899 33.2299 70.6626 33.2526 70.3899 33.2564C69.9429 33.2639 69.5263 33.1844 69.1399 33.0177C68.7536 32.8511 68.4411 32.5935 68.2024 32.245C67.9638 31.8965 67.8445 31.459 67.8445 30.9325V22.3245ZM76.7947 33.3189C75.9766 33.3189 75.2625 33.1314 74.6527 32.7564C74.0429 32.3814 73.5694 31.8567 73.2322 31.1825C72.8951 30.5083 72.7266 29.7204 72.7266 28.8189C72.7266 27.9136 72.8951 27.1219 73.2322 26.4439C73.5694 25.7658 74.0429 25.2393 74.6527 24.8643C75.2625 24.4893 75.9766 24.3018 76.7947 24.3018C77.6129 24.3018 78.3269 24.4893 78.9368 24.8643C79.5466 25.2393 80.0201 25.7658 80.3572 26.4439C80.6944 27.1219 80.8629 27.9136 80.8629 28.8189C80.8629 29.7204 80.6944 30.5083 80.3572 31.1825C80.0201 31.8567 79.5466 32.3814 78.9368 32.7564C78.3269 33.1314 77.6129 33.3189 76.7947 33.3189ZM76.8004 31.8927C77.3307 31.8927 77.7701 31.7526 78.1186 31.4723C78.4671 31.192 78.7247 30.8189 78.8913 30.353C79.0618 29.887 79.147 29.3738 79.147 28.8132C79.147 28.2564 79.0618 27.745 78.8913 27.2791C78.7247 26.8094 78.4671 26.4325 78.1186 26.1484C77.7701 25.8643 77.3307 25.7223 76.8004 25.7223C76.2663 25.7223 75.8232 25.8643 75.4709 26.1484C75.1224 26.4325 74.8629 26.8094 74.6925 27.2791C74.5258 27.745 74.4425 28.2564 74.4425 28.8132C74.4425 29.3738 74.5258 29.887 74.6925 30.353C74.8629 30.8189 75.1224 31.192 75.4709 31.4723C75.8232 31.7526 76.2663 31.8927 76.8004 31.8927ZM87.13 33.1427V21.5064H88.8288V25.8302H88.9311C89.0296 25.6484 89.1716 25.4382 89.3572 25.1995C89.5429 24.9609 89.8004 24.7526 90.13 24.5745C90.4595 24.3927 90.8951 24.3018 91.4368 24.3018C92.1413 24.3018 92.7701 24.4799 93.3232 24.8359C93.8762 25.192 94.3099 25.7052 94.6243 26.3757C94.9425 27.0461 95.1016 27.853 95.1016 28.7961C95.1016 29.7393 94.9444 30.548 94.63 31.2223C94.3156 31.8927 93.8838 32.4098 93.3345 32.7734C92.7853 33.1333 92.1584 33.3132 91.4538 33.3132C90.9235 33.3132 90.4898 33.2242 90.1527 33.0461C89.8194 32.8681 89.558 32.6598 89.3686 32.4211C89.1792 32.1825 89.0334 31.9704 88.9311 31.7848H88.7891V33.1427H87.13ZM88.7947 28.7791C88.7947 29.3927 88.8838 29.9306 89.0618 30.3927C89.2398 30.8548 89.4974 31.2166 89.8345 31.478C90.1716 31.7355 90.5845 31.8643 91.0732 31.8643C91.5807 31.8643 92.005 31.7298 92.3459 31.4609C92.6868 31.1882 92.9444 30.8189 93.1186 30.353C93.2966 29.887 93.3857 29.3624 93.3857 28.7791C93.3857 28.2033 93.2985 27.6863 93.1243 27.228C92.9538 26.7696 92.6963 26.4079 92.3516 26.1427C92.0107 25.8776 91.5845 25.745 91.0732 25.745C90.5807 25.745 90.1641 25.8719 89.8232 26.1257C89.486 26.3795 89.2304 26.7336 89.0561 27.1882C88.8819 27.6427 88.7947 28.173 88.7947 28.7791ZM100.771 33.3189C99.9107 33.3189 99.1702 33.1352 98.549 32.7677C97.9316 32.3965 97.4543 31.8757 97.1172 31.2052C96.7839 30.531 96.6172 29.7412 96.6172 28.8359C96.6172 27.942 96.7839 27.1541 97.1172 26.4723C97.4543 25.7905 97.924 25.2583 98.5263 24.8757C99.1323 24.4931 99.8407 24.3018 100.651 24.3018C101.144 24.3018 101.621 24.3833 102.083 24.5461C102.545 24.709 102.96 24.9647 103.327 25.3132C103.695 25.6617 103.985 26.1143 104.197 26.6711C104.409 27.2242 104.515 27.8965 104.515 28.6882V29.2905H97.5774V28.0177H102.85C102.85 27.5708 102.759 27.1749 102.577 26.8302C102.396 26.4817 102.14 26.2071 101.81 26.0064C101.485 25.8056 101.102 25.7052 100.663 25.7052C100.185 25.7052 99.7687 25.8227 99.4126 26.0575C99.0604 26.2886 98.7876 26.5916 98.5945 26.9666C98.4051 27.3378 98.3104 27.7412 98.3104 28.1768V29.1711C98.3104 29.7545 98.4126 30.2507 98.6172 30.6598C98.8255 31.0689 99.1153 31.3814 99.4865 31.5973C99.8577 31.8094 100.291 31.9155 100.788 31.9155C101.11 31.9155 101.403 31.87 101.668 31.7791C101.933 31.6844 102.163 31.5442 102.356 31.3586C102.549 31.173 102.697 30.9439 102.799 30.6711L104.407 30.9609C104.278 31.4344 104.047 31.8492 103.714 32.2052C103.384 32.5575 102.969 32.8321 102.469 33.0291C101.973 33.2223 101.407 33.3189 100.771 33.3189ZM110.076 33.3189C109.231 33.3189 108.504 33.1276 107.894 32.745C107.288 32.3586 106.822 31.8264 106.496 31.1484C106.171 30.4704 106.008 29.6939 106.008 28.8189C106.008 27.9325 106.174 27.1503 106.508 26.4723C106.841 25.7905 107.311 25.2583 107.917 24.8757C108.523 24.4931 109.237 24.3018 110.059 24.3018C110.722 24.3018 111.313 24.4249 111.832 24.6711C112.351 24.9136 112.769 25.2545 113.087 25.6939C113.409 26.1333 113.601 26.6465 113.661 27.2336H112.008C111.917 26.8245 111.709 26.4723 111.383 26.1768C111.061 25.8814 110.629 25.7336 110.087 25.7336C109.614 25.7336 109.199 25.8586 108.843 26.1086C108.491 26.3548 108.216 26.7071 108.019 27.1655C107.822 27.62 107.724 28.1579 107.724 28.7791C107.724 29.4155 107.82 29.9647 108.013 30.4268C108.207 30.8889 108.479 31.2469 108.832 31.5007C109.188 31.7545 109.606 31.8814 110.087 31.8814C110.409 31.8814 110.701 31.8227 110.962 31.7052C111.228 31.584 111.449 31.4117 111.627 31.1882C111.809 30.9647 111.936 30.6958 112.008 30.3814H113.661C113.601 30.9458 113.417 31.4495 113.11 31.8927C112.803 32.3359 112.392 32.6844 111.877 32.9382C111.366 33.192 110.765 33.3189 110.076 33.3189ZM119.154 33.3189C118.336 33.3189 117.622 33.1314 117.012 32.7564C116.402 32.3814 115.929 31.8567 115.592 31.1825C115.254 30.5083 115.086 29.7204 115.086 28.8189C115.086 27.9136 115.254 27.1219 115.592 26.4439C115.929 25.7658 116.402 25.2393 117.012 24.8643C117.622 24.4893 118.336 24.3018 119.154 24.3018C119.972 24.3018 120.686 24.4893 121.296 24.8643C121.906 25.2393 122.379 25.7658 122.717 26.4439C123.054 27.1219 123.222 27.9136 123.222 28.8189C123.222 29.7204 123.054 30.5083 122.717 31.1825C122.379 31.8567 121.906 32.3814 121.296 32.7564C120.686 33.1314 119.972 33.3189 119.154 33.3189ZM119.16 31.8927C119.69 31.8927 120.129 31.7526 120.478 31.4723C120.826 31.192 121.084 30.8189 121.251 30.353C121.421 29.887 121.506 29.3738 121.506 28.8132C121.506 28.2564 121.421 27.745 121.251 27.2791C121.084 26.8094 120.826 26.4325 120.478 26.1484C120.129 25.8643 119.69 25.7223 119.16 25.7223C118.626 25.7223 118.183 25.8643 117.83 26.1484C117.482 26.4325 117.222 26.8094 117.052 27.2791C116.885 27.745 116.802 28.2564 116.802 28.8132C116.802 29.3738 116.885 29.887 117.052 30.353C117.222 30.8189 117.482 31.192 117.83 31.4723C118.183 31.7526 118.626 31.8927 119.16 31.8927ZM125.119 33.1427V24.4155H126.749V25.8359H126.857C127.039 25.3548 127.336 24.9799 127.749 24.7109C128.162 24.4382 128.656 24.3018 129.232 24.3018C129.816 24.3018 130.304 24.4382 130.698 24.7109C131.096 24.9836 131.389 25.3586 131.579 25.8359H131.67C131.878 25.37 132.21 24.9988 132.664 24.7223C133.119 24.442 133.66 24.3018 134.289 24.3018C135.081 24.3018 135.727 24.5499 136.227 25.0461C136.73 25.5423 136.982 26.2905 136.982 27.2905V33.1427H135.283V27.4495C135.283 26.8586 135.122 26.4306 134.8 26.1655C134.478 25.9003 134.094 25.7677 133.647 25.7677C133.094 25.7677 132.664 25.9382 132.357 26.2791C132.05 26.6162 131.897 27.0499 131.897 27.5802V33.1427H130.204V27.3416C130.204 26.8681 130.056 26.4874 129.761 26.1995C129.465 25.9117 129.081 25.7677 128.607 25.7677C128.285 25.7677 127.988 25.853 127.715 26.0234C127.446 26.1901 127.228 26.423 127.062 26.7223C126.899 27.0215 126.817 27.3681 126.817 27.762V33.1427H125.119ZM143.021 33.3189C142.161 33.3189 141.42 33.1352 140.799 32.7677C140.182 32.3965 139.704 31.8757 139.367 31.2052C139.034 30.531 138.867 29.7412 138.867 28.8359C138.867 27.942 139.034 27.1541 139.367 26.4723C139.704 25.7905 140.174 25.2583 140.776 24.8757C141.382 24.4931 142.091 24.3018 142.901 24.3018C143.394 24.3018 143.871 24.3833 144.333 24.5461C144.795 24.709 145.21 24.9647 145.577 25.3132C145.945 25.6617 146.235 26.1143 146.447 26.6711C146.659 27.2242 146.765 27.8965 146.765 28.6882V29.2905H139.827V28.0177H145.1C145.1 27.5708 145.009 27.1749 144.827 26.8302C144.646 26.4817 144.39 26.2071 144.06 26.0064C143.735 25.8056 143.352 25.7052 142.913 25.7052C142.435 25.7052 142.019 25.8227 141.663 26.0575C141.31 26.2886 141.038 26.5916 140.844 26.9666C140.655 27.3378 140.56 27.7412 140.56 28.1768V29.1711C140.56 29.7545 140.663 30.2507 140.867 30.6598C141.076 31.0689 141.365 31.3814 141.737 31.5973C142.108 31.8094 142.541 31.9155 143.038 31.9155C143.36 31.9155 143.653 31.87 143.918 31.7791C144.183 31.6844 144.413 31.5442 144.606 31.3586C144.799 31.173 144.947 30.9439 145.049 30.6711L146.657 30.9609C146.528 31.4344 146.297 31.8492 145.964 32.2052C145.634 32.5575 145.219 32.8321 144.719 33.0291C144.223 33.2223 143.657 33.3189 143.021 33.3189ZM155.424 33.3359C154.871 33.3359 154.371 33.2336 153.924 33.0291C153.477 32.8208 153.123 32.5196 152.862 32.1257C152.604 31.7317 152.475 31.2488 152.475 30.6768C152.475 30.1844 152.57 29.7791 152.759 29.4609C152.949 29.1427 153.204 28.8908 153.526 28.7052C153.848 28.5196 154.208 28.3795 154.606 28.2848C155.004 28.1901 155.409 28.1181 155.822 28.0689C156.344 28.0083 156.769 27.959 157.094 27.9211C157.42 27.8795 157.657 27.8132 157.805 27.7223C157.952 27.6314 158.026 27.4836 158.026 27.2791V27.2393C158.026 26.7431 157.886 26.3586 157.606 26.0859C157.329 25.8132 156.916 25.6768 156.367 25.6768C155.795 25.6768 155.344 25.8037 155.015 26.0575C154.689 26.3075 154.464 26.5859 154.339 26.8927L152.742 26.5291C152.932 25.9988 153.208 25.5708 153.572 25.245C153.939 24.9155 154.362 24.6768 154.839 24.5291C155.316 24.3776 155.818 24.3018 156.344 24.3018C156.693 24.3018 157.062 24.3435 157.452 24.4268C157.846 24.5064 158.214 24.6541 158.555 24.87C158.899 25.0859 159.182 25.3946 159.401 25.7961C159.621 26.1939 159.731 26.7109 159.731 27.3473V33.1427H158.072V31.9495H158.004C157.894 32.1692 157.729 32.3852 157.509 32.5973C157.29 32.8094 157.007 32.9855 156.663 33.1257C156.318 33.2658 155.905 33.3359 155.424 33.3359ZM155.793 31.9723C156.263 31.9723 156.665 31.8795 156.998 31.6939C157.335 31.5083 157.591 31.2658 157.765 30.9666C157.943 30.6636 158.032 30.3397 158.032 29.995V28.87C157.971 28.9306 157.854 28.9874 157.68 29.0405C157.509 29.0897 157.314 29.1333 157.094 29.1711C156.875 29.2052 156.661 29.2374 156.452 29.2677C156.244 29.2942 156.07 29.317 155.93 29.3359C155.6 29.3776 155.299 29.4477 155.026 29.5461C154.757 29.6446 154.541 29.7867 154.379 29.9723C154.219 30.1541 154.14 30.3965 154.14 30.6995C154.14 31.12 154.295 31.4382 154.606 31.6541C154.916 31.8662 155.312 31.9723 155.793 31.9723ZM166.364 21.5064H168.495L172.2 30.5518H172.336L176.04 21.5064H178.171V33.1427H176.501V24.7223H176.393L172.961 33.1257H171.575L168.143 24.7166H168.035V33.1427H166.364V21.5064ZM184.349 33.3189C183.489 33.3189 182.748 33.1352 182.127 32.7677C181.51 32.3965 181.032 31.8757 180.695 31.2052C180.362 30.531 180.195 29.7412 180.195 28.8359C180.195 27.942 180.362 27.1541 180.695 26.4723C181.032 25.7905 181.502 25.2583 182.104 24.8757C182.71 24.4931 183.419 24.3018 184.229 24.3018C184.722 24.3018 185.199 24.3833 185.661 24.5461C186.123 24.709 186.538 24.9647 186.906 25.3132C187.273 25.6617 187.563 26.1143 187.775 26.6711C187.987 27.2242 188.093 27.8965 188.093 28.6882V29.2905H181.156V28.0177H186.428C186.428 27.5708 186.337 27.1749 186.156 26.8302C185.974 26.4817 185.718 26.2071 185.388 26.0064C185.063 25.8056 184.68 25.7052 184.241 25.7052C183.763 25.7052 183.347 25.8227 182.991 26.0575C182.638 26.2886 182.366 26.5916 182.173 26.9666C181.983 27.3378 181.888 27.7412 181.888 28.1768V29.1711C181.888 29.7545 181.991 30.2507 182.195 30.6598C182.404 31.0689 182.693 31.3814 183.065 31.5973C183.436 31.8094 183.87 31.9155 184.366 31.9155C184.688 31.9155 184.981 31.87 185.246 31.7791C185.512 31.6844 185.741 31.5442 185.934 31.3586C186.127 31.173 186.275 30.9439 186.377 30.6711L187.985 30.9609C187.856 31.4344 187.625 31.8492 187.292 32.2052C186.962 32.5575 186.548 32.8321 186.048 33.0291C185.551 33.2223 184.985 33.3189 184.349 33.3189ZM189.978 33.1427V24.4155H191.609V25.8359H191.717C191.898 25.3548 192.196 24.9799 192.609 24.7109C193.022 24.4382 193.516 24.3018 194.092 24.3018C194.675 24.3018 195.164 24.4382 195.558 24.7109C195.955 24.9836 196.249 25.3586 196.438 25.8359H196.529C196.737 25.37 197.069 24.9988 197.523 24.7223C197.978 24.442 198.52 24.3018 199.148 24.3018C199.94 24.3018 200.586 24.5499 201.086 25.0461C201.59 25.5423 201.842 26.2905 201.842 27.2905V33.1427H200.143V27.4495C200.143 26.8586 199.982 26.4306 199.66 26.1655C199.338 25.9003 198.953 25.7677 198.506 25.7677C197.953 25.7677 197.523 25.9382 197.217 26.2791C196.91 26.6162 196.756 27.0499 196.756 27.5802V33.1427H195.063V27.3416C195.063 26.8681 194.915 26.4874 194.62 26.1995C194.325 25.9117 193.94 25.7677 193.467 25.7677C193.145 25.7677 192.847 25.853 192.575 26.0234C192.306 26.1901 192.088 26.423 191.921 26.7223C191.758 27.0215 191.677 27.3681 191.677 27.762V33.1427H189.978ZM204.255 33.1427V21.5064H205.954V25.8302H206.056C206.155 25.6484 206.297 25.4382 206.482 25.1995C206.668 24.9609 206.925 24.7526 207.255 24.5745C207.585 24.3927 208.02 24.3018 208.562 24.3018C209.266 24.3018 209.895 24.4799 210.448 24.8359C211.001 25.192 211.435 25.7052 211.749 26.3757C212.067 27.0461 212.227 27.853 212.227 28.7961C212.227 29.7393 212.069 30.548 211.755 31.2223C211.441 31.8927 211.009 32.4098 210.46 32.7734C209.91 33.1333 209.283 33.3132 208.579 33.3132C208.049 33.3132 207.615 33.2242 207.278 33.0461C206.944 32.8681 206.683 32.6598 206.494 32.4211C206.304 32.1825 206.158 31.9704 206.056 31.7848H205.914V33.1427H204.255ZM205.92 28.7791C205.92 29.3927 206.009 29.9306 206.187 30.3927C206.365 30.8548 206.622 31.2166 206.96 31.478C207.297 31.7355 207.71 31.8643 208.198 31.8643C208.706 31.8643 209.13 31.7298 209.471 31.4609C209.812 31.1882 210.069 30.8189 210.244 30.353C210.422 29.887 210.511 29.3624 210.511 28.7791C210.511 28.2033 210.424 27.6863 210.249 27.228C210.079 26.7696 209.821 26.4079 209.477 26.1427C209.136 25.8776 208.71 25.745 208.198 25.745C207.706 25.745 207.289 25.8719 206.948 26.1257C206.611 26.3795 206.355 26.7336 206.181 27.1882C206.007 27.6427 205.92 28.173 205.92 28.7791ZM217.896 33.3189C217.036 33.3189 216.295 33.1352 215.674 32.7677C215.057 32.3965 214.579 31.8757 214.242 31.2052C213.909 30.531 213.742 29.7412 213.742 28.8359C213.742 27.942 213.909 27.1541 214.242 26.4723C214.579 25.7905 215.049 25.2583 215.651 24.8757C216.257 24.4931 216.966 24.3018 217.776 24.3018C218.269 24.3018 218.746 24.3833 219.208 24.5461C219.67 24.709 220.085 24.9647 220.452 25.3132C220.82 25.6617 221.11 26.1143 221.322 26.6711C221.534 27.2242 221.64 27.8965 221.64 28.6882V29.2905H214.702V28.0177H219.975C219.975 27.5708 219.884 27.1749 219.702 26.8302C219.521 26.4817 219.265 26.2071 218.935 26.0064C218.61 25.8056 218.227 25.7052 217.788 25.7052C217.31 25.7052 216.894 25.8227 216.538 26.0575C216.185 26.2886 215.913 26.5916 215.719 26.9666C215.53 27.3378 215.435 27.7412 215.435 28.1768V29.1711C215.435 29.7545 215.538 30.2507 215.742 30.6598C215.951 31.0689 216.24 31.3814 216.612 31.5973C216.983 31.8094 217.416 31.9155 217.913 31.9155C218.235 31.9155 218.528 31.87 218.793 31.7791C219.058 31.6844 219.288 31.5442 219.481 31.3586C219.674 31.173 219.822 30.9439 219.924 30.6711L221.532 30.9609C221.403 31.4344 221.172 31.8492 220.839 32.2052C220.509 32.5575 220.094 32.8321 219.594 33.0291C219.098 33.2223 218.532 33.3189 217.896 33.3189ZM223.525 33.1427V24.4155H225.167V25.8018H225.258C225.417 25.3321 225.697 24.9628 226.099 24.6939C226.504 24.4211 226.962 24.2848 227.474 24.2848C227.58 24.2848 227.705 24.2886 227.849 24.2961C227.996 24.3037 228.112 24.3132 228.195 24.3245V25.9495C228.127 25.9306 228.006 25.9098 227.832 25.887C227.657 25.8605 227.483 25.8473 227.309 25.8473C226.907 25.8473 226.549 25.9325 226.235 26.103C225.924 26.2696 225.678 26.5026 225.496 26.8018C225.315 27.0973 225.224 27.4344 225.224 27.8132V33.1427H223.525Z" fill="white"/>
<g clip-path="url(#clip0_1405_1995)">
<path d="M372.916 27.1427H362.797" stroke="white" stroke-width="1.43103" stroke-linecap="round" stroke-linejoin="round"/>
<path d="M368.362 31.6963L372.916 27.1427L368.362 22.5892" stroke="white" stroke-width="1.43103" stroke-linecap="round" stroke-linejoin="round"/>
</g>
</g>
<defs>
<filter id="filter0_d_1405_1995" x="0" y="0" width="402" height="56.2855" filterUnits="userSpaceOnUse" color-interpolation-filters="sRGB">
<feFlood flood-opacity="0" result="BackgroundImageFix"/>
<feColorMatrix in="SourceAlpha" type="matrix" values="0 0 0 0 0 0 0 0 0 0 0 0 0 0 0 0 0 0 127 0" result="hardAlpha"/>
<feOffset dy="1"/>
<feGaussianBlur stdDeviation="1"/>
<feColorMatrix type="matrix" values="0 0 0 0 0.0627451 0 0 0 0 0.0941176 0 0 0 0 0.156863 0 0 0 0.05 0"/>
<feBlend mode="normal" in2="BackgroundImageFix" result="effect1_dropShadow_1405_1995"/>
<feBlend mode="normal" in="SourceGraphic" in2="effect1_dropShadow_1405_1995" result="shape"/>
</filter>
<linearGradient id="paint0_linear_1405_1995" x1="13" y1="1.37501" x2="364.108" y2="35.4013" gradientUnits="userSpaceOnUse">
<stop stop-color="#C58F31"/>
<stop offset="0.486977" stop-color="#B8994C"/>
<stop offset="1" stop-color="#895D1F"/>
</linearGradient>
<clipPath id="clip0_1405_1995">
<rect width="17.1724" height="17.1724" fill="white" transform="translate(380 27.1427) rotate(135)"/>
</clipPath>
</defs>
</svg>
