<svg width="402" height="57" viewBox="0 0 402 57" fill="none" xmlns="http://www.w3.org/2000/svg">
<g filter="url(#filter0_d_1405_2003)">
<rect x="2" y="1" width="398" height="52.2855" rx="8" fill="url(#paint0_linear_1405_2003)"/>
<path d="M23.7159 33.1426V21.5062H27.9773C28.803 21.5062 29.4867 21.6426 30.0284 21.9153C30.5701 22.1842 30.9754 22.5498 31.2443 23.0119C31.5133 23.4702 31.6477 23.9873 31.6477 24.563C31.6477 25.0479 31.5587 25.457 31.3807 25.7903C31.2027 26.1199 30.964 26.385 30.6648 26.5858C30.3693 26.7827 30.0436 26.9267 29.6875 27.0176V27.1312C30.0739 27.1502 30.4508 27.2752 30.8182 27.5062C31.1894 27.7335 31.4962 28.0574 31.7386 28.4778C31.9811 28.8983 32.1023 29.4096 32.1023 30.0119C32.1023 30.6066 31.9621 31.1407 31.6818 31.6142C31.4053 32.0839 30.9773 32.457 30.3977 32.7335C29.8182 33.0062 29.0777 33.1426 28.1761 33.1426H23.7159ZM25.4716 31.6369H28.0057C28.8466 31.6369 29.4489 31.474 29.8125 31.1483C30.1761 30.8225 30.358 30.4153 30.358 29.9267C30.358 29.5592 30.2652 29.2221 30.0795 28.9153C29.8939 28.6085 29.6288 28.3642 29.2841 28.1824C28.9432 28.0005 28.5379 27.9096 28.0682 27.9096H25.4716V31.6369ZM25.4716 26.5403H27.8239C28.2178 26.5403 28.572 26.4645 28.8864 26.313C29.2045 26.1615 29.4564 25.9494 29.642 25.6767C29.8314 25.4002 29.9261 25.0744 29.9261 24.6994C29.9261 24.2183 29.7576 23.8149 29.4205 23.4892C29.0833 23.1634 28.5663 23.0005 27.8693 23.0005H25.4716V26.5403ZM37.8097 33.3187C36.9498 33.3187 36.2093 33.135 35.5881 32.7676C34.9706 32.3964 34.4934 31.8755 34.1562 31.2051C33.8229 30.5308 33.6562 29.7411 33.6562 28.8358C33.6562 27.9418 33.8229 27.1539 34.1562 26.4721C34.4934 25.7903 34.9631 25.2581 35.5653 24.8755C36.1714 24.493 36.8797 24.3017 37.6903 24.3017C38.1828 24.3017 38.66 24.3831 39.1222 24.546C39.5843 24.7089 39.9991 24.9645 40.3665 25.313C40.7339 25.6615 41.0237 26.1142 41.2358 26.671C41.4479 27.224 41.554 27.8964 41.554 28.688V29.2903H34.6165V28.0176H39.8892C39.8892 27.5706 39.7983 27.1748 39.6165 26.8301C39.4347 26.4816 39.179 26.207 38.8494 26.0062C38.5237 25.8055 38.1411 25.7051 37.7017 25.7051C37.2244 25.7051 36.8078 25.8225 36.4517 26.0574C36.0994 26.2884 35.8267 26.5914 35.6335 26.9664C35.4441 27.3377 35.3494 27.7411 35.3494 28.1767V29.171C35.3494 29.7543 35.4517 30.2505 35.6562 30.6596C35.8646 31.0687 36.1544 31.3812 36.5256 31.5971C36.8968 31.8092 37.3305 31.9153 37.8267 31.9153C38.1487 31.9153 38.4422 31.8699 38.7074 31.7789C38.9725 31.6842 39.2017 31.5441 39.3949 31.3585C39.5881 31.1729 39.7358 30.9437 39.8381 30.671L41.446 30.9608C41.3172 31.4342 41.0862 31.849 40.7528 32.2051C40.4233 32.5574 40.0085 32.832 39.5085 33.0289C39.0123 33.2221 38.446 33.3187 37.8097 33.3187ZM47.1151 33.3187C46.2704 33.3187 45.5431 33.1274 44.9332 32.7449C44.3272 32.3585 43.8613 31.8263 43.5355 31.1483C43.2098 30.4702 43.0469 29.6937 43.0469 28.8187C43.0469 27.9324 43.2135 27.1502 43.5469 26.4721C43.8802 25.7903 44.3499 25.2581 44.956 24.8755C45.562 24.493 46.276 24.3017 47.098 24.3017C47.7609 24.3017 48.3518 24.4248 48.8707 24.671C49.3897 24.9134 49.8082 25.2543 50.1264 25.6937C50.4484 26.1331 50.6397 26.6464 50.7003 27.2335H49.0469C48.956 26.8244 48.7476 26.4721 48.4219 26.1767C48.0999 25.8812 47.6681 25.7335 47.1264 25.7335C46.6529 25.7335 46.2382 25.8585 45.8821 26.1085C45.5298 26.3547 45.2552 26.707 45.0582 27.1653C44.8613 27.6199 44.7628 28.1577 44.7628 28.7789C44.7628 29.4153 44.8594 29.9645 45.0526 30.4267C45.2457 30.8888 45.5185 31.2467 45.8707 31.5005C46.2268 31.7543 46.6454 31.8812 47.1264 31.8812C47.4484 31.8812 47.7401 31.8225 48.0014 31.7051C48.2666 31.5839 48.4882 31.4115 48.6662 31.188C48.848 30.9645 48.9749 30.6956 49.0469 30.3812H50.7003C50.6397 30.9456 50.456 31.4494 50.1491 31.8926C49.8423 32.3358 49.4313 32.6842 48.9162 32.938C48.4048 33.1918 47.8045 33.3187 47.1151 33.3187ZM56.1932 33.3187C55.375 33.3187 54.661 33.1312 54.0511 32.7562C53.4413 32.3812 52.9678 31.8566 52.6307 31.1824C52.2936 30.5081 52.125 29.7202 52.125 28.8187C52.125 27.9134 52.2936 27.1217 52.6307 26.4437C52.9678 25.7657 53.4413 25.2392 54.0511 24.8642C54.661 24.4892 55.375 24.3017 56.1932 24.3017C57.0114 24.3017 57.7254 24.4892 58.3352 24.8642C58.9451 25.2392 59.4186 25.7657 59.7557 26.4437C60.0928 27.1217 60.2614 27.9134 60.2614 28.8187C60.2614 29.7202 60.0928 30.5081 59.7557 31.1824C59.4186 31.8566 58.9451 32.3812 58.3352 32.7562C57.7254 33.1312 57.0114 33.3187 56.1932 33.3187ZM56.1989 31.8926C56.7292 31.8926 57.1686 31.7524 57.517 31.4721C57.8655 31.1918 58.1231 30.8187 58.2898 30.3528C58.4602 29.8869 58.5455 29.3736 58.5455 28.813C58.5455 28.2562 58.4602 27.7449 58.2898 27.2789C58.1231 26.8092 57.8655 26.4324 57.517 26.1483C57.1686 25.8642 56.7292 25.7221 56.1989 25.7221C55.6648 25.7221 55.2216 25.8642 54.8693 26.1483C54.5208 26.4324 54.2614 26.8092 54.0909 27.2789C53.9242 27.7449 53.8409 28.2562 53.8409 28.813C53.8409 29.3736 53.9242 29.8869 54.0909 30.3528C54.2614 30.8187 54.5208 31.1918 54.8693 31.4721C55.2216 31.7524 55.6648 31.8926 56.1989 31.8926ZM62.1577 33.1426V24.4153H63.7884V25.8358H63.8963C64.0781 25.3547 64.3755 24.9797 64.7884 24.7108C65.2012 24.438 65.6955 24.3017 66.2713 24.3017C66.8546 24.3017 67.3433 24.438 67.7372 24.7108C68.1349 24.9835 68.4285 25.3585 68.6179 25.8358H68.7088C68.9171 25.3699 69.2486 24.9986 69.7031 24.7221C70.1577 24.4418 70.6993 24.3017 71.3281 24.3017C72.1198 24.3017 72.7656 24.5498 73.2656 25.046C73.7694 25.5422 74.0213 26.2903 74.0213 27.2903V33.1426H72.3224V27.4494C72.3224 26.8585 72.1615 26.4305 71.8395 26.1653C71.5175 25.9002 71.133 25.7676 70.6861 25.7676C70.133 25.7676 69.7031 25.938 69.3963 26.2789C69.0895 26.6161 68.9361 27.0498 68.9361 27.5801V33.1426H67.2429V27.3414C67.2429 26.868 67.0952 26.4873 66.7997 26.1994C66.5043 25.9115 66.1198 25.7676 65.6463 25.7676C65.3243 25.7676 65.027 25.8528 64.7543 26.0233C64.4853 26.1899 64.2675 26.4229 64.1009 26.7221C63.938 27.0214 63.8565 27.368 63.8565 27.7619V33.1426H62.1577ZM80.0597 33.3187C79.1998 33.3187 78.4593 33.135 77.8381 32.7676C77.2206 32.3964 76.7434 31.8755 76.4062 31.2051C76.0729 30.5308 75.9062 29.7411 75.9062 28.8358C75.9062 27.9418 76.0729 27.1539 76.4062 26.4721C76.7434 25.7903 77.2131 25.2581 77.8153 24.8755C78.4214 24.493 79.1297 24.3017 79.9403 24.3017C80.4328 24.3017 80.91 24.3831 81.3722 24.546C81.8343 24.7089 82.2491 24.9645 82.6165 25.313C82.9839 25.6615 83.2737 26.1142 83.4858 26.671C83.6979 27.224 83.804 27.8964 83.804 28.688V29.2903H76.8665V28.0176H82.1392C82.1392 27.5706 82.0483 27.1748 81.8665 26.8301C81.6847 26.4816 81.429 26.207 81.0994 26.0062C80.7737 25.8055 80.3911 25.7051 79.9517 25.7051C79.4744 25.7051 79.0578 25.8225 78.7017 26.0574C78.3494 26.2884 78.0767 26.5914 77.8835 26.9664C77.6941 27.3377 77.5994 27.7411 77.5994 28.1767V29.171C77.5994 29.7543 77.7017 30.2505 77.9062 30.6596C78.1146 31.0687 78.4044 31.3812 78.7756 31.5971C79.1468 31.8092 79.5805 31.9153 80.0767 31.9153C80.3987 31.9153 80.6922 31.8699 80.9574 31.7789C81.2225 31.6842 81.4517 31.5441 81.6449 31.3585C81.8381 31.1729 81.9858 30.9437 82.0881 30.671L83.696 30.9608C83.5672 31.4342 83.3362 31.849 83.0028 32.2051C82.6733 32.5574 82.2585 32.832 81.7585 33.0289C81.2623 33.2221 80.696 33.3187 80.0597 33.3187ZM92.4631 33.3358C91.91 33.3358 91.41 33.2335 90.9631 33.0289C90.5161 32.8206 90.1619 32.5195 89.9006 32.1255C89.643 31.7316 89.5142 31.2486 89.5142 30.6767C89.5142 30.1842 89.6089 29.7789 89.7983 29.4608C89.9877 29.1426 90.2434 28.8907 90.5653 28.7051C90.8873 28.5195 91.2472 28.3793 91.6449 28.2846C92.0426 28.1899 92.4479 28.118 92.8608 28.0687C93.3835 28.0081 93.8078 27.9589 94.1335 27.921C94.4593 27.8793 94.696 27.813 94.8438 27.7221C94.9915 27.6312 95.0653 27.4835 95.0653 27.2789V27.2392C95.0653 26.743 94.9252 26.3585 94.6449 26.0858C94.3684 25.813 93.9555 25.6767 93.4062 25.6767C92.8343 25.6767 92.3835 25.8036 92.054 26.0574C91.7282 26.3074 91.5028 26.5858 91.3778 26.8926L89.7812 26.5289C89.9706 25.9986 90.2472 25.5706 90.6108 25.2449C90.9782 24.9153 91.4006 24.6767 91.8778 24.5289C92.3551 24.3774 92.857 24.3017 93.3835 24.3017C93.732 24.3017 94.1013 24.3433 94.4915 24.4267C94.8854 24.5062 95.2528 24.6539 95.5938 24.8699C95.9384 25.0858 96.2206 25.3945 96.4403 25.796C96.66 26.1937 96.7699 26.7108 96.7699 27.3471V33.1426H95.1108V31.9494H95.0426C94.9328 32.1691 94.768 32.385 94.5483 32.5971C94.3286 32.8092 94.0464 32.9854 93.7017 33.1255C93.357 33.2657 92.9441 33.3358 92.4631 33.3358ZM92.8324 31.9721C93.3021 31.9721 93.7036 31.8793 94.0369 31.6937C94.3741 31.5081 94.6297 31.2657 94.804 30.9664C94.982 30.6634 95.071 30.3395 95.071 29.9949V28.8699C95.0104 28.9305 94.893 28.9873 94.7188 29.0403C94.5483 29.0895 94.3532 29.1331 94.1335 29.171C93.9138 29.2051 93.6998 29.2373 93.4915 29.2676C93.2831 29.2941 93.1089 29.3168 92.9688 29.3358C92.6392 29.3774 92.3381 29.4475 92.0653 29.546C91.7964 29.6445 91.5805 29.7865 91.4176 29.9721C91.2585 30.1539 91.179 30.3964 91.179 30.6994C91.179 31.1199 91.3343 31.438 91.6449 31.6539C91.9555 31.8661 92.3513 31.9721 92.8324 31.9721ZM103.403 21.5062H105.534L109.239 30.5517H109.375L113.08 21.5062H115.21V33.1426H113.54V24.7221H113.432L110 33.1255H108.614L105.182 24.7164H105.074V33.1426H103.403V21.5062ZM121.388 33.3187C120.528 33.3187 119.787 33.135 119.166 32.7676C118.549 32.3964 118.071 31.8755 117.734 31.2051C117.401 30.5308 117.234 29.7411 117.234 28.8358C117.234 27.9418 117.401 27.1539 117.734 26.4721C118.071 25.7903 118.541 25.2581 119.143 24.8755C119.75 24.493 120.458 24.3017 121.268 24.3017C121.761 24.3017 122.238 24.3831 122.7 24.546C123.162 24.7089 123.577 24.9645 123.945 25.313C124.312 25.6615 124.602 26.1142 124.814 26.671C125.026 27.224 125.132 27.8964 125.132 28.688V29.2903H118.195V28.0176H123.467C123.467 27.5706 123.376 27.1748 123.195 26.8301C123.013 26.4816 122.757 26.207 122.428 26.0062C122.102 25.8055 121.719 25.7051 121.28 25.7051C120.803 25.7051 120.386 25.8225 120.03 26.0574C119.678 26.2884 119.405 26.5914 119.212 26.9664C119.022 27.3377 118.928 27.7411 118.928 28.1767V29.171C118.928 29.7543 119.03 30.2505 119.234 30.6596C119.443 31.0687 119.732 31.3812 120.104 31.5971C120.475 31.8092 120.909 31.9153 121.405 31.9153C121.727 31.9153 122.02 31.8699 122.286 31.7789C122.551 31.6842 122.78 31.5441 122.973 31.3585C123.166 31.1729 123.314 30.9437 123.416 30.671L125.024 30.9608C124.895 31.4342 124.664 31.849 124.331 32.2051C124.001 32.5574 123.587 32.832 123.087 33.0289C122.59 33.2221 122.024 33.3187 121.388 33.3187ZM127.017 33.1426V24.4153H128.648V25.8358H128.756C128.938 25.3547 129.235 24.9797 129.648 24.7108C130.061 24.438 130.555 24.3017 131.131 24.3017C131.714 24.3017 132.203 24.438 132.597 24.7108C132.994 24.9835 133.288 25.3585 133.477 25.8358H133.568C133.777 25.3699 134.108 24.9986 134.562 24.7221C135.017 24.4418 135.559 24.3017 136.188 24.3017C136.979 24.3017 137.625 24.5498 138.125 25.046C138.629 25.5422 138.881 26.2903 138.881 27.2903V33.1426H137.182V27.4494C137.182 26.8585 137.021 26.4305 136.699 26.1653C136.377 25.9002 135.992 25.7676 135.545 25.7676C134.992 25.7676 134.562 25.938 134.256 26.2789C133.949 26.6161 133.795 27.0498 133.795 27.5801V33.1426H132.102V27.3414C132.102 26.868 131.955 26.4873 131.659 26.1994C131.364 25.9115 130.979 25.7676 130.506 25.7676C130.184 25.7676 129.886 25.8528 129.614 26.0233C129.345 26.1899 129.127 26.4229 128.96 26.7221C128.797 27.0214 128.716 27.368 128.716 27.7619V33.1426H127.017ZM141.294 33.1426V21.5062H142.993V25.8301H143.095C143.194 25.6483 143.336 25.438 143.521 25.1994C143.707 24.9608 143.964 24.7524 144.294 24.5744C144.624 24.3926 145.059 24.3017 145.601 24.3017C146.305 24.3017 146.934 24.4797 147.487 24.8358C148.04 25.1918 148.474 25.7051 148.788 26.3755C149.107 27.046 149.266 27.8528 149.266 28.796C149.266 29.7392 149.108 30.5479 148.794 31.2221C148.48 31.8926 148.048 32.4096 147.499 32.7733C146.949 33.1331 146.322 33.313 145.618 33.313C145.088 33.313 144.654 33.224 144.317 33.046C143.983 32.868 143.722 32.6596 143.533 32.421C143.343 32.1824 143.197 31.9702 143.095 31.7846H142.953V33.1426H141.294ZM142.959 28.7789C142.959 29.3926 143.048 29.9305 143.226 30.3926C143.404 30.8547 143.661 31.2164 143.999 31.4778C144.336 31.7354 144.749 31.8642 145.237 31.8642C145.745 31.8642 146.169 31.7297 146.51 31.4608C146.851 31.188 147.108 30.8187 147.283 30.3528C147.461 29.8869 147.55 29.3623 147.55 28.7789C147.55 28.2032 147.463 27.6861 147.288 27.2278C147.118 26.7695 146.86 26.4077 146.516 26.1426C146.175 25.8774 145.749 25.7449 145.237 25.7449C144.745 25.7449 144.328 25.8717 143.987 26.1255C143.65 26.3793 143.394 26.7335 143.22 27.188C143.046 27.6426 142.959 28.1729 142.959 28.7789ZM154.935 33.3187C154.075 33.3187 153.334 33.135 152.713 32.7676C152.096 32.3964 151.618 31.8755 151.281 31.2051C150.948 30.5308 150.781 29.7411 150.781 28.8358C150.781 27.9418 150.948 27.1539 151.281 26.4721C151.618 25.7903 152.088 25.2581 152.69 24.8755C153.296 24.493 154.005 24.3017 154.815 24.3017C155.308 24.3017 155.785 24.3831 156.247 24.546C156.709 24.7089 157.124 24.9645 157.491 25.313C157.859 25.6615 158.149 26.1142 158.361 26.671C158.573 27.224 158.679 27.8964 158.679 28.688V29.2903H151.741V28.0176H157.014C157.014 27.5706 156.923 27.1748 156.741 26.8301C156.56 26.4816 156.304 26.207 155.974 26.0062C155.649 25.8055 155.266 25.7051 154.827 25.7051C154.349 25.7051 153.933 25.8225 153.577 26.0574C153.224 26.2884 152.952 26.5914 152.759 26.9664C152.569 27.3377 152.474 27.7411 152.474 28.1767V29.171C152.474 29.7543 152.577 30.2505 152.781 30.6596C152.99 31.0687 153.279 31.3812 153.651 31.5971C154.022 31.8092 154.455 31.9153 154.952 31.9153C155.274 31.9153 155.567 31.8699 155.832 31.7789C156.098 31.6842 156.327 31.5441 156.52 31.3585C156.713 31.1729 156.861 30.9437 156.963 30.671L158.571 30.9608C158.442 31.4342 158.211 31.849 157.878 32.2051C157.548 32.5574 157.134 32.832 156.634 33.0289C156.137 33.2221 155.571 33.3187 154.935 33.3187ZM160.564 33.1426V24.4153H162.206V25.8017H162.297C162.456 25.332 162.736 24.9627 163.138 24.6937C163.543 24.421 164.001 24.2846 164.513 24.2846C164.619 24.2846 164.744 24.2884 164.888 24.296C165.036 24.3036 165.151 24.313 165.234 24.3244V25.9494C165.166 25.9305 165.045 25.9096 164.871 25.8869C164.696 25.8604 164.522 25.8471 164.348 25.8471C163.946 25.8471 163.589 25.9324 163.274 26.1028C162.964 26.2695 162.717 26.5024 162.536 26.8017C162.354 27.0971 162.263 27.4342 162.263 27.813V33.1426H160.564Z" fill="white"/>
<g clip-path="url(#clip0_1405_2003)">
<path d="M372.916 27.1426H362.797" stroke="white" stroke-width="1.43103" stroke-linecap="round" stroke-linejoin="round"/>
<path d="M368.362 31.6961L372.916 27.1426L368.362 22.5891" stroke="white" stroke-width="1.43103" stroke-linecap="round" stroke-linejoin="round"/>
</g>
</g>
<defs>
<filter id="filter0_d_1405_2003" x="0" y="0" width="402" height="56.2856" filterUnits="userSpaceOnUse" color-interpolation-filters="sRGB">
<feFlood flood-opacity="0" result="BackgroundImageFix"/>
<feColorMatrix in="SourceAlpha" type="matrix" values="0 0 0 0 0 0 0 0 0 0 0 0 0 0 0 0 0 0 127 0" result="hardAlpha"/>
<feOffset dy="1"/>
<feGaussianBlur stdDeviation="1"/>
<feColorMatrix type="matrix" values="0 0 0 0 0.0627451 0 0 0 0 0.0941176 0 0 0 0 0.156863 0 0 0 0.05 0"/>
<feBlend mode="normal" in2="BackgroundImageFix" result="effect1_dropShadow_1405_2003"/>
<feBlend mode="normal" in="SourceGraphic" in2="effect1_dropShadow_1405_2003" result="shape"/>
</filter>
<linearGradient id="paint0_linear_1405_2003" x1="13" y1="1.37501" x2="364.108" y2="35.4013" gradientUnits="userSpaceOnUse">
<stop stop-color="#C58F31"/>
<stop offset="0.486977" stop-color="#B8994C"/>
<stop offset="1" stop-color="#895D1F"/>
</linearGradient>
<clipPath id="clip0_1405_2003">
<rect width="17.1724" height="17.1724" fill="white" transform="translate(380 27.1426) rotate(135)"/>
</clipPath>
</defs>
</svg>
