<svg width="402" height="53" viewBox="0 0 402 53" fill="none" xmlns="http://www.w3.org/2000/svg">
<g filter="url(#filter0_d_1405_2003)">
<rect x="2" y="1" width="398" height="48.2855" rx="8" fill="url(#paint0_linear_1405_2003)"/>
<path d="M23.7159 31.1426V19.5062H27.9773C28.803 19.5062 29.4867 19.6426 30.0284 19.9153C30.5701 20.1842 30.9754 20.5498 31.2443 21.0119C31.5133 21.4702 31.6477 21.9873 31.6477 22.563C31.6477 23.0479 31.5587 23.457 31.3807 23.7903C31.2027 24.1199 30.964 24.385 30.6648 24.5858C30.3693 24.7827 30.0436 24.9267 29.6875 25.0176V25.1312C30.0739 25.1502 30.4508 25.2752 30.8182 25.5062C31.1894 25.7335 31.4962 26.0574 31.7386 26.4778C31.9811 26.8983 32.1023 27.4096 32.1023 28.0119C32.1023 28.6066 31.9621 29.1407 31.6818 29.6142C31.4053 30.0839 30.9773 30.457 30.3977 30.7335C29.8182 31.0062 29.0777 31.1426 28.1761 31.1426H23.7159ZM25.4716 29.6369H28.0057C28.8466 29.6369 29.4489 29.474 29.8125 29.1483C30.1761 28.8225 30.358 28.4153 30.358 27.9267C30.358 27.5592 30.2652 27.2221 30.0795 26.9153C29.8939 26.6085 29.6288 26.3642 29.2841 26.1824C28.9432 26.0005 28.5379 25.9096 28.0682 25.9096H25.4716V29.6369ZM25.4716 24.5403H27.8239C28.2178 24.5403 28.572 24.4645 28.8864 24.313C29.2045 24.1615 29.4564 23.9494 29.642 23.6767C29.8314 23.4002 29.9261 23.0744 29.9261 22.6994C29.9261 22.2183 29.7576 21.8149 29.4205 21.4892C29.0833 21.1634 28.5663 21.0005 27.8693 21.0005H25.4716V24.5403ZM37.8097 31.3187C36.9498 31.3187 36.2093 31.135 35.5881 30.7676C34.9706 30.3964 34.4934 29.8755 34.1562 29.2051C33.8229 28.5308 33.6562 27.7411 33.6562 26.8358C33.6562 25.9418 33.8229 25.1539 34.1562 24.4721C34.4934 23.7903 34.9631 23.2581 35.5653 22.8755C36.1714 22.493 36.8797 22.3017 37.6903 22.3017C38.1828 22.3017 38.66 22.3831 39.1222 22.546C39.5843 22.7089 39.9991 22.9645 40.3665 23.313C40.7339 23.6615 41.0237 24.1142 41.2358 24.671C41.4479 25.224 41.554 25.8964 41.554 26.688V27.2903H34.6165V26.0176H39.8892C39.8892 25.5706 39.7983 25.1748 39.6165 24.8301C39.4347 24.4816 39.179 24.207 38.8494 24.0062C38.5237 23.8055 38.1411 23.7051 37.7017 23.7051C37.2244 23.7051 36.8078 23.8225 36.4517 24.0574C36.0994 24.2884 35.8267 24.5914 35.6335 24.9664C35.4441 25.3377 35.3494 25.7411 35.3494 26.1767V27.171C35.3494 27.7543 35.4517 28.2505 35.6562 28.6596C35.8646 29.0687 36.1544 29.3812 36.5256 29.5971C36.8968 29.8092 37.3305 29.9153 37.8267 29.9153C38.1487 29.9153 38.4422 29.8699 38.7074 29.7789C38.9725 29.6842 39.2017 29.5441 39.3949 29.3585C39.5881 29.1729 39.7358 28.9437 39.8381 28.671L41.446 28.9608C41.3172 29.4342 41.0862 29.849 40.7528 30.2051C40.4233 30.5574 40.0085 30.832 39.5085 31.0289C39.0123 31.2221 38.446 31.3187 37.8097 31.3187ZM47.1151 31.3187C46.2704 31.3187 45.5431 31.1274 44.9332 30.7449C44.3272 30.3585 43.8613 29.8263 43.5355 29.1483C43.2098 28.4702 43.0469 27.6937 43.0469 26.8187C43.0469 25.9324 43.2135 25.1502 43.5469 24.4721C43.8802 23.7903 44.3499 23.2581 44.956 22.8755C45.562 22.493 46.276 22.3017 47.098 22.3017C47.7609 22.3017 48.3518 22.4248 48.8707 22.671C49.3897 22.9134 49.8082 23.2543 50.1264 23.6937C50.4484 24.1331 50.6397 24.6464 50.7003 25.2335H49.0469C48.956 24.8244 48.7476 24.4721 48.4219 24.1767C48.0999 23.8812 47.6681 23.7335 47.1264 23.7335C46.6529 23.7335 46.2382 23.8585 45.8821 24.1085C45.5298 24.3547 45.2552 24.707 45.0582 25.1653C44.8613 25.6199 44.7628 26.1577 44.7628 26.7789C44.7628 27.4153 44.8594 27.9645 45.0526 28.4267C45.2457 28.8888 45.5185 29.2467 45.8707 29.5005C46.2268 29.7543 46.6454 29.8812 47.1264 29.8812C47.4484 29.8812 47.7401 29.8225 48.0014 29.7051C48.2666 29.5839 48.4882 29.4115 48.6662 29.188C48.848 28.9645 48.9749 28.6956 49.0469 28.3812H50.7003C50.6397 28.9456 50.456 29.4494 50.1491 29.8926C49.8423 30.3358 49.4313 30.6842 48.9162 30.938C48.4048 31.1918 47.8045 31.3187 47.1151 31.3187ZM56.1932 31.3187C55.375 31.3187 54.661 31.1312 54.0511 30.7562C53.4413 30.3812 52.9678 29.8566 52.6307 29.1824C52.2936 28.5081 52.125 27.7202 52.125 26.8187C52.125 25.9134 52.2936 25.1217 52.6307 24.4437C52.9678 23.7657 53.4413 23.2392 54.0511 22.8642C54.661 22.4892 55.375 22.3017 56.1932 22.3017C57.0114 22.3017 57.7254 22.4892 58.3352 22.8642C58.9451 23.2392 59.4186 23.7657 59.7557 24.4437C60.0928 25.1217 60.2614 25.9134 60.2614 26.8187C60.2614 27.7202 60.0928 28.5081 59.7557 29.1824C59.4186 29.8566 58.9451 30.3812 58.3352 30.7562C57.7254 31.1312 57.0114 31.3187 56.1932 31.3187ZM56.1989 29.8926C56.7292 29.8926 57.1686 29.7524 57.517 29.4721C57.8655 29.1918 58.1231 28.8187 58.2898 28.3528C58.4602 27.8869 58.5455 27.3736 58.5455 26.813C58.5455 26.2562 58.4602 25.7449 58.2898 25.2789C58.1231 24.8092 57.8655 24.4324 57.517 24.1483C57.1686 23.8642 56.7292 23.7221 56.1989 23.7221C55.6648 23.7221 55.2216 23.8642 54.8693 24.1483C54.5208 24.4324 54.2614 24.8092 54.0909 25.2789C53.9242 25.7449 53.8409 26.2562 53.8409 26.813C53.8409 27.3736 53.9242 27.8869 54.0909 28.3528C54.2614 28.8187 54.5208 29.1918 54.8693 29.4721C55.2216 29.7524 55.6648 29.8926 56.1989 29.8926ZM62.1577 31.1426V22.4153H63.7884V23.8358H63.8963C64.0781 23.3547 64.3755 22.9797 64.7884 22.7108C65.2012 22.438 65.6955 22.3017 66.2713 22.3017C66.8546 22.3017 67.3433 22.438 67.7372 22.7108C68.1349 22.9835 68.4285 23.3585 68.6179 23.8358H68.7088C68.9171 23.3699 69.2486 22.9986 69.7031 22.7221C70.1577 22.4418 70.6993 22.3017 71.3281 22.3017C72.1198 22.3017 72.7656 22.5498 73.2656 23.046C73.7694 23.5422 74.0213 24.2903 74.0213 25.2903V31.1426H72.3224V25.4494C72.3224 24.8585 72.1615 24.4305 71.8395 24.1653C71.5175 23.9002 71.133 23.7676 70.6861 23.7676C70.133 23.7676 69.7031 23.938 69.3963 24.2789C69.0895 24.6161 68.9361 25.0498 68.9361 25.5801V31.1426H67.2429V25.3414C67.2429 24.868 67.0952 24.4873 66.7997 24.1994C66.5043 23.9115 66.1198 23.7676 65.6463 23.7676C65.3243 23.7676 65.027 23.8528 64.7543 24.0233C64.4853 24.1899 64.2675 24.4229 64.1009 24.7221C63.938 25.0214 63.8565 25.368 63.8565 25.7619V31.1426H62.1577ZM80.0597 31.3187C79.1998 31.3187 78.4593 31.135 77.8381 30.7676C77.2206 30.3964 76.7434 29.8755 76.4062 29.2051C76.0729 28.5308 75.9062 27.7411 75.9062 26.8358C75.9062 25.9418 76.0729 25.1539 76.4062 24.4721C76.7434 23.7903 77.2131 23.2581 77.8153 22.8755C78.4214 22.493 79.1297 22.3017 79.9403 22.3017C80.4328 22.3017 80.91 22.3831 81.3722 22.546C81.8343 22.7089 82.2491 22.9645 82.6165 23.313C82.9839 23.6615 83.2737 24.1142 83.4858 24.671C83.6979 25.224 83.804 25.8964 83.804 26.688V27.2903H76.8665V26.0176H82.1392C82.1392 25.5706 82.0483 25.1748 81.8665 24.8301C81.6847 24.4816 81.429 24.207 81.0994 24.0062C80.7737 23.8055 80.3911 23.7051 79.9517 23.7051C79.4744 23.7051 79.0578 23.8225 78.7017 24.0574C78.3494 24.2884 78.0767 24.5914 77.8835 24.9664C77.6941 25.3377 77.5994 25.7411 77.5994 26.1767V27.171C77.5994 27.7543 77.7017 28.2505 77.9062 28.6596C78.1146 29.0687 78.4044 29.3812 78.7756 29.5971C79.1468 29.8092 79.5805 29.9153 80.0767 29.9153C80.3987 29.9153 80.6922 29.8699 80.9574 29.7789C81.2225 29.6842 81.4517 29.5441 81.6449 29.3585C81.8381 29.1729 81.9858 28.9437 82.0881 28.671L83.696 28.9608C83.5672 29.4342 83.3362 29.849 83.0028 30.2051C82.6733 30.5574 82.2585 30.832 81.7585 31.0289C81.2623 31.2221 80.696 31.3187 80.0597 31.3187ZM92.4631 31.3358C91.91 31.3358 91.41 31.2335 90.9631 31.0289C90.5161 30.8206 90.1619 30.5195 89.9006 30.1255C89.643 29.7316 89.5142 29.2486 89.5142 28.6767C89.5142 28.1842 89.6089 27.7789 89.7983 27.4608C89.9877 27.1426 90.2434 26.8907 90.5653 26.7051C90.8873 26.5195 91.2472 26.3793 91.6449 26.2846C92.0426 26.1899 92.4479 26.118 92.8608 26.0687C93.3835 26.0081 93.8078 25.9589 94.1335 25.921C94.4593 25.8793 94.696 25.813 94.8438 25.7221C94.9915 25.6312 95.0653 25.4835 95.0653 25.2789V25.2392C95.0653 24.743 94.9252 24.3585 94.6449 24.0858C94.3684 23.813 93.9555 23.6767 93.4062 23.6767C92.8343 23.6767 92.3835 23.8036 92.054 24.0574C91.7282 24.3074 91.5028 24.5858 91.3778 24.8926L89.7812 24.5289C89.9706 23.9986 90.2472 23.5706 90.6108 23.2449C90.9782 22.9153 91.4006 22.6767 91.8778 22.5289C92.3551 22.3774 92.857 22.3017 93.3835 22.3017C93.732 22.3017 94.1013 22.3433 94.4915 22.4267C94.8854 22.5062 95.2528 22.6539 95.5938 22.8699C95.9384 23.0858 96.2206 23.3945 96.4403 23.796C96.66 24.1937 96.7699 24.7108 96.7699 25.3471V31.1426H95.1108V29.9494H95.0426C94.9328 30.1691 94.768 30.385 94.5483 30.5971C94.3286 30.8092 94.0464 30.9854 93.7017 31.1255C93.357 31.2657 92.9441 31.3358 92.4631 31.3358ZM92.8324 29.9721C93.3021 29.9721 93.7036 29.8793 94.0369 29.6937C94.3741 29.5081 94.6297 29.2657 94.804 28.9664C94.982 28.6634 95.071 28.3395 95.071 27.9949V26.8699C95.0104 26.9305 94.893 26.9873 94.7188 27.0403C94.5483 27.0895 94.3532 27.1331 94.1335 27.171C93.9138 27.2051 93.6998 27.2373 93.4915 27.2676C93.2831 27.2941 93.1089 27.3168 92.9688 27.3358C92.6392 27.3774 92.3381 27.4475 92.0653 27.546C91.7964 27.6445 91.5805 27.7865 91.4176 27.9721C91.2585 28.1539 91.179 28.3964 91.179 28.6994C91.179 29.1199 91.3343 29.438 91.6449 29.6539C91.9555 29.8661 92.3513 29.9721 92.8324 29.9721ZM103.403 19.5062H105.534L109.239 28.5517H109.375L113.08 19.5062H115.21V31.1426H113.54V22.7221H113.432L110 31.1255H108.614L105.182 22.7164H105.074V31.1426H103.403V19.5062ZM121.388 31.3187C120.528 31.3187 119.787 31.135 119.166 30.7676C118.549 30.3964 118.071 29.8755 117.734 29.2051C117.401 28.5308 117.234 27.7411 117.234 26.8358C117.234 25.9418 117.401 25.1539 117.734 24.4721C118.071 23.7903 118.541 23.2581 119.143 22.8755C119.75 22.493 120.458 22.3017 121.268 22.3017C121.761 22.3017 122.238 22.3831 122.7 22.546C123.162 22.7089 123.577 22.9645 123.945 23.313C124.312 23.6615 124.602 24.1142 124.814 24.671C125.026 25.224 125.132 25.8964 125.132 26.688V27.2903H118.195V26.0176H123.467C123.467 25.5706 123.376 25.1748 123.195 24.8301C123.013 24.4816 122.757 24.207 122.428 24.0062C122.102 23.8055 121.719 23.7051 121.28 23.7051C120.803 23.7051 120.386 23.8225 120.03 24.0574C119.678 24.2884 119.405 24.5914 119.212 24.9664C119.022 25.3377 118.928 25.7411 118.928 26.1767V27.171C118.928 27.7543 119.03 28.2505 119.234 28.6596C119.443 29.0687 119.732 29.3812 120.104 29.5971C120.475 29.8092 120.909 29.9153 121.405 29.9153C121.727 29.9153 122.02 29.8699 122.286 29.7789C122.551 29.6842 122.78 29.5441 122.973 29.3585C123.166 29.1729 123.314 28.9437 123.416 28.671L125.024 28.9608C124.895 29.4342 124.664 29.849 124.331 30.2051C124.001 30.5574 123.587 30.832 123.087 31.0289C122.59 31.2221 122.024 31.3187 121.388 31.3187ZM127.017 31.1426V22.4153H128.648V23.8358H128.756C128.938 23.3547 129.235 22.9797 129.648 22.7108C130.061 22.438 130.555 22.3017 131.131 22.3017C131.714 22.3017 132.203 22.438 132.597 22.7108C132.994 22.9835 133.288 23.3585 133.477 23.8358H133.568C133.777 23.3699 134.108 22.9986 134.562 22.7221C135.017 22.4418 135.559 22.3017 136.188 22.3017C136.979 22.3017 137.625 22.5498 138.125 23.046C138.629 23.5422 138.881 24.2903 138.881 25.2903V31.1426H137.182V25.4494C137.182 24.8585 137.021 24.4305 136.699 24.1653C136.377 23.9002 135.992 23.7676 135.545 23.7676C134.992 23.7676 134.562 23.938 134.256 24.2789C133.949 24.6161 133.795 25.0498 133.795 25.5801V31.1426H132.102V25.3414C132.102 24.868 131.955 24.4873 131.659 24.1994C131.364 23.9115 130.979 23.7676 130.506 23.7676C130.184 23.7676 129.886 23.8528 129.614 24.0233C129.345 24.1899 129.127 24.4229 128.96 24.7221C128.797 25.0214 128.716 25.368 128.716 25.7619V31.1426H127.017ZM141.294 31.1426V19.5062H142.993V23.8301H143.095C143.194 23.6483 143.336 23.438 143.521 23.1994C143.707 22.9608 143.964 22.7524 144.294 22.5744C144.624 22.3926 145.059 22.3017 145.601 22.3017C146.305 22.3017 146.934 22.4797 147.487 22.8358C148.04 23.1918 148.474 23.7051 148.788 24.3755C149.107 25.046 149.266 25.8528 149.266 26.796C149.266 27.7392 149.108 28.5479 148.794 29.2221C148.48 29.8926 148.048 30.4096 147.499 30.7733C146.949 31.1331 146.322 31.313 145.618 31.313C145.088 31.313 144.654 31.224 144.317 31.046C143.983 30.868 143.722 30.6596 143.533 30.421C143.343 30.1824 143.197 29.9702 143.095 29.7846H142.953V31.1426H141.294ZM142.959 26.7789C142.959 27.3926 143.048 27.9305 143.226 28.3926C143.404 28.8547 143.661 29.2164 143.999 29.4778C144.336 29.7354 144.749 29.8642 145.237 29.8642C145.745 29.8642 146.169 29.7297 146.51 29.4608C146.851 29.188 147.108 28.8187 147.283 28.3528C147.461 27.8869 147.55 27.3623 147.55 26.7789C147.55 26.2032 147.463 25.6861 147.288 25.2278C147.118 24.7695 146.86 24.4077 146.516 24.1426C146.175 23.8774 145.749 23.7449 145.237 23.7449C144.745 23.7449 144.328 23.8717 143.987 24.1255C143.65 24.3793 143.394 24.7335 143.22 25.188C143.046 25.6426 142.959 26.1729 142.959 26.7789ZM154.935 31.3187C154.075 31.3187 153.334 31.135 152.713 30.7676C152.096 30.3964 151.618 29.8755 151.281 29.2051C150.948 28.5308 150.781 27.7411 150.781 26.8358C150.781 25.9418 150.948 25.1539 151.281 24.4721C151.618 23.7903 152.088 23.2581 152.69 22.8755C153.296 22.493 154.005 22.3017 154.815 22.3017C155.308 22.3017 155.785 22.3831 156.247 22.546C156.709 22.7089 157.124 22.9645 157.491 23.313C157.859 23.6615 158.149 24.1142 158.361 24.671C158.573 25.224 158.679 25.8964 158.679 26.688V27.2903H151.741V26.0176H157.014C157.014 25.5706 156.923 25.1748 156.741 24.8301C156.56 24.4816 156.304 24.207 155.974 24.0062C155.649 23.8055 155.266 23.7051 154.827 23.7051C154.349 23.7051 153.933 23.8225 153.577 24.0574C153.224 24.2884 152.952 24.5914 152.759 24.9664C152.569 25.3377 152.474 25.7411 152.474 26.1767V27.171C152.474 27.7543 152.577 28.2505 152.781 28.6596C152.99 29.0687 153.279 29.3812 153.651 29.5971C154.022 29.8092 154.455 29.9153 154.952 29.9153C155.274 29.9153 155.567 29.8699 155.832 29.7789C156.098 29.6842 156.327 29.5441 156.52 29.3585C156.713 29.1729 156.861 28.9437 156.963 28.671L158.571 28.9608C158.442 29.4342 158.211 29.849 157.878 30.2051C157.548 30.5574 157.134 30.832 156.634 31.0289C156.137 31.2221 155.571 31.3187 154.935 31.3187ZM160.564 31.1426V22.4153H162.206V23.8017H162.297C162.456 23.332 162.736 22.9627 163.138 22.6937C163.543 22.421 164.001 22.2846 164.513 22.2846C164.619 22.2846 164.744 22.2884 164.888 22.296C165.036 22.3036 165.151 22.313 165.234 22.3244V23.9494C165.166 23.9305 165.045 23.9096 164.871 23.8869C164.696 23.8604 164.522 23.8471 164.348 23.8471C163.946 23.8471 163.589 23.9324 163.274 24.1028C162.964 24.2695 162.717 24.5024 162.536 24.8017C162.354 25.0971 162.263 25.4342 162.263 25.813V31.1426H160.564Z" fill="white"/>
<g clip-path="url(#clip0_1405_2003)">
<path d="M372.916 25.1426H362.797" stroke="white" stroke-width="1.43103" stroke-linecap="round" stroke-linejoin="round"/>
<path d="M368.362 29.6961L372.916 25.1426L368.362 20.5891" stroke="white" stroke-width="1.43103" stroke-linecap="round" stroke-linejoin="round"/>
</g>
</g>
<defs>
<filter id="filter0_d_1405_2003" x="0" y="0" width="402" height="52.2856" filterUnits="userSpaceOnUse" color-interpolation-filters="sRGB">
<feFlood flood-opacity="0" result="BackgroundImageFix"/>
<feColorMatrix in="SourceAlpha" type="matrix" values="0 0 0 0 0 0 0 0 0 0 0 0 0 0 0 0 0 0 127 0" result="hardAlpha"/>
<feOffset dy="1"/>
<feGaussianBlur stdDeviation="1"/>
<feColorMatrix type="matrix" values="0 0 0 0 0.0627451 0 0 0 0 0.0941176 0 0 0 0 0.156863 0 0 0 0.05 0"/>
<feBlend mode="normal" in2="BackgroundImageFix" result="effect1_dropShadow_1405_2003"/>
<feBlend mode="normal" in="SourceGraphic" in2="effect1_dropShadow_1405_2003" result="shape"/>
</filter>
<linearGradient id="paint0_linear_1405_2003" x1="13" y1="1.34632" x2="363.546" y2="38.1323" gradientUnits="userSpaceOnUse">
<stop stop-color="#C58F31"/>
<stop offset="0.486977" stop-color="#B8994C"/>
<stop offset="1" stop-color="#895D1F"/>
</linearGradient>
<clipPath id="clip0_1405_2003">
<rect width="17.1724" height="17.1724" fill="white" transform="translate(380 25.1426) rotate(135)"/>
</clipPath>
</defs>
</svg>
