<svg width="273" height="68" viewBox="0 0 273 68" fill="none" xmlns="http://www.w3.org/2000/svg">
<path d="M96.7135 10.846V35.8451H85.9229V10.846H74.8882V2.25256H107.699V10.846H96.7135Z" fill="#10183C"/>
<path d="M110.662 2.25256H139.714V10.3089H121.453V14.9474H137.077V22.662H121.453V27.7887H140.056V35.8451H110.662V2.25256Z" fill="#10183C"/>
<path d="M166.455 35.8451L165.039 31.1089H153.272L151.856 35.8451H140.821L153.077 2.25256H165.625L177.88 35.8451H166.455ZM155.518 23.5897H162.793L159.278 11.6272H159.082L155.518 23.5897Z" fill="#10183C"/>
<path d="M208.852 35.8451V23.7361C208.852 22.2388 208.901 20.7089 208.998 19.1465C209.129 17.5515 209.259 16.2169 209.389 15.1427C209.519 14.0685 209.601 13.385 209.633 13.092H209.438L203.237 35.8451H194.79L188.54 13.1408H188.345C188.377 13.4338 188.459 14.1174 188.589 15.1915C188.752 16.2332 188.898 17.5515 189.028 19.1465C189.159 20.7089 189.224 22.2388 189.224 23.7361V35.8451H179.312V2.25256H194.546L199.624 21.6366H199.819L204.848 2.25256H219.545V35.8451H208.852Z" fill="#10183C"/>
<path d="M85.7055 43.0779V51.6714H81.9962V43.0779H78.2031V40.1239H89.4819V43.0779H85.7055Z" fill="#10183C"/>
<path d="M93.8476 42.608C95.4701 42.608 96.7065 42.9884 97.5569 43.7493C98.4185 44.5102 98.8493 45.6739 98.8493 47.2404V47.811H92.2028C92.2028 48.4488 92.3426 48.93 92.6224 49.2545C92.9133 49.5789 93.3665 49.7412 93.9819 49.7412C94.5414 49.7412 94.9498 49.6237 95.2071 49.3887C95.4757 49.1538 95.6099 48.8404 95.6099 48.4488H98.8493C98.8493 49.523 98.4408 50.3622 97.624 50.9664C96.8072 51.5707 95.6155 51.8728 94.049 51.8728C92.4042 51.8728 91.1286 51.4923 90.2223 50.7315C89.3159 49.9594 88.8628 48.7957 88.8628 47.2404C88.8628 45.7186 89.3047 44.5661 90.1887 43.7829C91.0727 42.9996 92.2923 42.608 93.8476 42.608ZM93.9819 44.7395C92.9301 44.7395 92.3426 45.2375 92.2196 46.2333H95.4757C95.4757 45.7746 95.3414 45.4109 95.0728 45.1424C94.8155 44.8738 94.4518 44.7395 93.9819 44.7395Z" fill="#10183C"/>
<path d="M104.371 42.608C105.826 42.608 107.001 42.9213 107.896 43.5479C108.802 44.1633 109.255 45.1088 109.255 46.3844H106.016C106.016 45.3773 105.468 44.8738 104.371 44.8738C103.275 44.8738 102.726 45.506 102.726 46.7704V47.7271C102.726 48.9803 103.297 49.6069 104.438 49.6069C105.58 49.6069 106.15 49.0922 106.15 48.0628H109.255C109.255 49.3496 108.802 50.3063 107.896 50.9329C107.001 51.5595 105.826 51.8728 104.371 51.8728C102.816 51.8728 101.596 51.4811 100.712 50.6979C99.8282 49.9146 99.3862 48.7621 99.3862 47.2404C99.3862 45.7186 99.8282 44.5661 100.712 43.7829C101.596 42.9996 102.816 42.608 104.371 42.608Z" fill="#10183C"/>
<path d="M113.374 43.7325C113.732 43.3744 114.152 43.1003 114.633 42.9101C115.114 42.7087 115.617 42.608 116.143 42.608C117.173 42.608 117.945 42.8933 118.459 43.464C118.974 44.0346 119.232 44.857 119.232 45.9312V51.6714H115.891V46.334C115.891 45.9536 115.791 45.6515 115.589 45.4277C115.399 45.1927 115.125 45.0752 114.767 45.0752C114.353 45.0752 114.017 45.2095 113.76 45.478C113.503 45.7466 113.374 46.0767 113.374 46.4683V51.6714H110.034V39.5029H113.374V43.7325Z" fill="#10183C"/>
<path d="M125.71 40.1239H135.697V42.8933H129.419V44.4878H134.79V47.1397H129.419V48.902H135.814V51.6714H125.71V40.1239Z" fill="#10183C"/>
<path d="M143.026 42.608C144.055 42.608 144.827 42.8933 145.342 43.464C145.857 44.0346 146.114 44.857 146.114 45.9312V51.6714H142.774V46.334C142.774 45.9536 142.673 45.6515 142.472 45.4277C142.282 45.1927 142.008 45.0752 141.65 45.0752C141.236 45.0752 140.9 45.2095 140.643 45.478C140.385 45.7466 140.257 46.0767 140.257 46.4683V51.6714H136.917V42.8094H139.652L139.87 44.1521C140.217 43.6822 140.671 43.3073 141.23 43.0276C141.801 42.7478 142.399 42.608 143.026 42.608Z" fill="#10183C"/>
<path d="M153.348 42.8094V45.0752H151.468V48.4488C151.468 48.8516 151.535 49.1482 151.67 49.3384C151.804 49.5174 152.05 49.6069 152.408 49.6069H153.348V51.5707C153.079 51.6602 152.733 51.7329 152.307 51.7888C151.882 51.8448 151.513 51.8728 151.2 51.8728C150.215 51.8728 149.454 51.6937 148.917 51.3357C148.391 50.9776 148.128 50.3678 148.128 49.5062V45.0752H146.886V42.8094H148.262L148.984 40.1239H151.468V42.8094H153.348Z" fill="#10183C"/>
<path d="M159.614 42.5912C159.871 42.5912 160.101 42.6248 160.302 42.6919C160.504 42.7478 160.604 42.7814 160.604 42.7926V45.5955H159.53C158.836 45.5955 158.333 45.7746 158.02 46.1326C157.717 46.4907 157.566 47.0222 157.566 47.7271V51.6714H154.226V42.8094H156.962L157.18 44.1521C157.382 43.6374 157.701 43.2514 158.137 42.994C158.573 42.7255 159.066 42.5912 159.614 42.5912Z" fill="#10183C"/>
<path d="M165.857 42.608C167.479 42.608 168.716 42.9884 169.566 43.7493C170.428 44.5102 170.859 45.6739 170.859 47.2404V47.811H164.212C164.212 48.4488 164.352 48.93 164.632 49.2545C164.923 49.5789 165.376 49.7412 165.991 49.7412C166.551 49.7412 166.959 49.6237 167.217 49.3887C167.485 49.1538 167.619 48.8404 167.619 48.4488H170.859C170.859 49.523 170.45 50.3622 169.633 50.9664C168.817 51.5707 167.625 51.8728 166.058 51.8728C164.414 51.8728 163.138 51.4923 162.232 50.7315C161.325 49.9594 160.872 48.7957 160.872 47.2404C160.872 45.7186 161.314 44.5661 162.198 43.7829C163.082 42.9996 164.302 42.608 165.857 42.608ZM165.991 44.7395C164.94 44.7395 164.352 45.2375 164.229 46.2333H167.485C167.485 45.7746 167.351 45.4109 167.082 45.1424C166.825 44.8738 166.461 44.7395 165.991 44.7395Z" fill="#10183C"/>
<path d="M177.639 42.608C178.837 42.608 179.76 42.9996 180.409 43.7829C181.058 44.5661 181.382 45.7242 181.382 47.2572C181.382 48.7789 181.058 49.9314 180.409 50.7147C179.76 51.4867 178.837 51.8728 177.639 51.8728C176.61 51.8728 175.782 51.5371 175.155 50.8657V54.9778H171.815V42.8094H174.534L174.82 44.0682C175.469 43.0947 176.408 42.608 177.639 42.608ZM176.599 45.0752C176.106 45.0752 175.737 45.2487 175.491 45.5955C175.245 45.9424 175.122 46.3956 175.122 46.955V47.5089C175.122 48.0684 175.245 48.5271 175.491 48.8852C175.737 49.2321 176.106 49.4055 176.599 49.4055C177.561 49.4055 178.042 48.8293 178.042 47.6768V46.7872C178.042 45.6459 177.561 45.0752 176.599 45.0752Z" fill="#10183C"/>
<path d="M187.71 42.5912C187.967 42.5912 188.196 42.6248 188.398 42.6919C188.599 42.7478 188.7 42.7814 188.7 42.7926V45.5955H187.626C186.932 45.5955 186.428 45.7746 186.115 46.1326C185.813 46.4907 185.662 47.0222 185.662 47.7271V51.6714H182.322V42.8094H185.058L185.276 44.1521C185.477 43.6374 185.796 43.2514 186.233 42.994C186.669 42.7255 187.161 42.5912 187.71 42.5912Z" fill="#10183C"/>
<path d="M193.953 42.608C195.575 42.608 196.811 42.9884 197.662 43.7493C198.523 44.5102 198.954 45.6739 198.954 47.2404V47.811H192.308C192.308 48.4488 192.448 48.93 192.727 49.2545C193.018 49.5789 193.471 49.7412 194.087 49.7412C194.646 49.7412 195.055 49.6237 195.312 49.3887C195.581 49.1538 195.715 48.8404 195.715 48.4488H198.954C198.954 49.523 198.546 50.3622 197.729 50.9664C196.912 51.5707 195.721 51.8728 194.154 51.8728C192.509 51.8728 191.234 51.4923 190.327 50.7315C189.421 49.9594 188.968 48.7957 188.968 47.2404C188.968 45.7186 189.41 44.5661 190.294 43.7829C191.178 42.9996 192.397 42.608 193.953 42.608ZM194.087 44.7395C193.035 44.7395 192.448 45.2375 192.325 46.2333H195.581C195.581 45.7746 195.446 45.4109 195.178 45.1424C194.92 44.8738 194.557 44.7395 194.087 44.7395Z" fill="#10183C"/>
<path d="M206.003 42.608C207.033 42.608 207.805 42.8933 208.32 43.464C208.834 44.0346 209.092 44.857 209.092 45.9312V51.6714H205.752V46.334C205.752 45.9536 205.651 45.6515 205.45 45.4277C205.259 45.1927 204.985 45.0752 204.627 45.0752C204.213 45.0752 203.877 45.2095 203.62 45.478C203.363 45.7466 203.234 46.0767 203.234 46.4683V51.6714H199.894V42.8094H202.63L202.848 44.1521C203.195 43.6822 203.648 43.3073 204.208 43.0276C204.778 42.7478 205.377 42.608 206.003 42.608Z" fill="#10183C"/>
<path d="M214.999 42.608C216.622 42.608 217.858 42.9884 218.709 43.7493C219.57 44.5102 220.001 45.6739 220.001 47.2404V47.811H213.355C213.355 48.4488 213.495 48.93 213.774 49.2545C214.065 49.5789 214.518 49.7412 215.134 49.7412C215.693 49.7412 216.102 49.6237 216.359 49.3887C216.628 49.1538 216.762 48.8404 216.762 48.4488H220.001C220.001 49.523 219.593 50.3622 218.776 50.9664C217.959 51.5707 216.767 51.8728 215.201 51.8728C213.556 51.8728 212.28 51.4923 211.374 50.7315C210.468 49.9594 210.015 48.7957 210.015 47.2404C210.015 45.7186 210.457 44.5661 211.341 43.7829C212.225 42.9996 213.444 42.608 214.999 42.608ZM215.134 44.7395C214.082 44.7395 213.495 45.2375 213.371 46.2333H216.628C216.628 45.7746 216.493 45.4109 216.225 45.1424C215.967 44.8738 215.604 44.7395 215.134 44.7395Z" fill="#10183C"/>
<path d="M227.369 51.6714L227.151 50.3286C226.804 50.8098 226.345 51.1902 225.775 51.4699C225.215 51.7385 224.622 51.8728 223.996 51.8728C222.966 51.8728 222.194 51.5874 221.679 51.0168C221.165 50.4461 220.907 49.6237 220.907 48.5495V42.8094H224.247V48.1467C224.247 48.5271 224.342 48.8349 224.533 49.0698C224.734 49.2936 225.014 49.4055 225.372 49.4055C225.786 49.4055 226.122 49.2712 226.379 49.0027C226.636 48.7341 226.765 48.4041 226.765 48.0124V42.8094H230.105V51.6714H227.369Z" fill="#10183C"/>
<path d="M236.852 42.5912C237.109 42.5912 237.339 42.6248 237.54 42.6919C237.742 42.7478 237.842 42.7814 237.842 42.7926V45.5955H236.768C236.074 45.5955 235.571 45.7746 235.258 46.1326C234.955 46.4907 234.804 47.0222 234.804 47.7271V51.6714H231.464V42.8094H234.2L234.418 44.1521C234.62 43.6374 234.939 43.2514 235.375 42.994C235.811 42.7255 236.304 42.5912 236.852 42.5912Z" fill="#10183C"/>
<path d="M242.89 42.608C244.076 42.608 245.077 42.843 245.894 43.3129C246.722 43.7717 247.136 44.4878 247.136 45.4613H244.031C244.031 45.1368 243.886 44.9074 243.595 44.7731C243.393 44.6612 243.141 44.6053 242.839 44.6053C242.034 44.6053 241.631 44.7955 241.631 45.1759C241.631 45.3885 241.771 45.5396 242.051 45.6291C242.33 45.7186 242.789 45.8137 243.427 45.9144C244.21 46.0263 244.865 46.1606 245.391 46.3172C245.916 46.4627 246.375 46.7313 246.767 47.1229C247.158 47.5033 247.354 48.0404 247.354 48.7341C247.354 49.8643 246.929 50.6699 246.079 51.1511C245.239 51.6322 244.137 51.8728 242.772 51.8728C241.989 51.8728 241.25 51.7665 240.557 51.5539C239.863 51.3301 239.298 50.9888 238.862 50.53C238.425 50.0713 238.207 49.4894 238.207 48.7845H241.312V48.8516C241.323 49.2321 241.48 49.5006 241.782 49.6573C242.095 49.8027 242.425 49.8755 242.772 49.8755C243.701 49.8755 244.165 49.6573 244.165 49.2209C244.165 48.9971 244.02 48.8349 243.729 48.7341C243.438 48.6334 242.962 48.5271 242.302 48.4153C241.508 48.281 240.853 48.1355 240.339 47.9789C239.835 47.8222 239.393 47.5593 239.013 47.19C238.632 46.8096 238.442 46.2837 238.442 45.6123C238.442 44.527 238.85 43.7549 239.667 43.2961C240.495 42.8374 241.569 42.608 242.89 42.608Z" fill="#10183C"/>
<path d="M86.7965 65.6714L86.3097 64.0433H82.2648L81.7781 65.6714H77.9849L82.1977 54.1239H86.5112L90.7239 65.6714H86.7965ZM83.0369 61.4586H85.5377L84.3292 57.3465H84.2621L83.0369 61.4586Z" fill="#10183C"/>
<path d="M95.4289 56.608C96.6149 56.608 97.6164 56.843 98.4332 57.3129C99.2612 57.7717 99.6752 58.4878 99.6752 59.4613H96.5702C96.5702 59.1368 96.4247 58.9074 96.1338 58.7731C95.9324 58.6612 95.6806 58.6053 95.3785 58.6053C94.5729 58.6053 94.17 58.7955 94.17 59.1759C94.17 59.3885 94.3099 59.5396 94.5897 59.6291C94.8694 59.7186 95.3281 59.8137 95.9659 59.9144C96.7492 60.0263 97.4038 60.1606 97.9297 60.3172C98.4556 60.4627 98.9143 60.7313 99.306 61.1229C99.6976 61.5033 99.8934 62.0404 99.8934 62.7341C99.8934 63.8643 99.4682 64.6699 98.6178 65.1511C97.7786 65.6322 96.6765 65.8728 95.3114 65.8728C94.5281 65.8728 93.7896 65.7665 93.0959 65.5539C92.4021 65.3301 91.8371 64.9888 91.4007 64.53C90.9643 64.0713 90.7461 63.4894 90.7461 62.7845H93.8512V62.8516C93.8623 63.2321 94.019 63.5006 94.3211 63.6573C94.6344 63.8027 94.9645 63.8755 95.3114 63.8755C96.2401 63.8755 96.7044 63.6573 96.7044 63.2209C96.7044 62.9971 96.559 62.8349 96.2681 62.7341C95.9771 62.6334 95.5016 62.5271 94.8414 62.4153C94.047 62.281 93.3924 62.1355 92.8777 61.9789C92.3742 61.8222 91.9322 61.5593 91.5517 61.19C91.1713 60.8096 90.9811 60.2837 90.9811 59.6123C90.9811 58.527 91.3895 57.7549 92.2063 57.2961C93.0343 56.8374 94.1085 56.608 95.4289 56.608Z" fill="#10183C"/>
<path d="M105.018 56.608C106.204 56.608 107.206 56.843 108.022 57.3129C108.85 57.7717 109.264 58.4878 109.264 59.4613H106.159C106.159 59.1368 106.014 58.9074 105.723 58.7731C105.522 58.6612 105.27 58.6053 104.968 58.6053C104.162 58.6053 103.759 58.7955 103.759 59.1759C103.759 59.3885 103.899 59.5396 104.179 59.6291C104.459 59.7186 104.917 59.8137 105.555 59.9144C106.338 60.0263 106.993 60.1606 107.519 60.3172C108.045 60.4627 108.504 60.7313 108.895 61.1229C109.287 61.5033 109.483 62.0404 109.483 62.7341C109.483 63.8643 109.057 64.6699 108.207 65.1511C107.368 65.6322 106.266 65.8728 104.901 65.8728C104.117 65.8728 103.379 65.7665 102.685 65.5539C101.991 65.3301 101.426 64.9888 100.99 64.53C100.553 64.0713 100.335 63.4894 100.335 62.7845H103.44V62.8516C103.452 63.2321 103.608 63.5006 103.91 63.6573C104.224 63.8027 104.554 63.8755 104.901 63.8755C105.829 63.8755 106.294 63.6573 106.294 63.2209C106.294 62.9971 106.148 62.8349 105.857 62.7341C105.566 62.6334 105.091 62.5271 104.431 62.4153C103.636 62.281 102.982 62.1355 102.467 61.9789C101.963 61.8222 101.521 61.5593 101.141 61.19C100.76 60.8096 100.57 60.2837 100.57 59.6123C100.57 58.527 100.979 57.7549 101.796 57.2961C102.624 56.8374 103.698 56.608 105.018 56.608Z" fill="#10183C"/>
<path d="M114.976 56.608C116.532 56.608 117.751 57.0052 118.635 57.7996C119.531 58.5829 119.978 59.7298 119.978 61.2404C119.978 62.7509 119.531 63.9034 118.635 64.6979C117.751 65.4811 116.532 65.8728 114.976 65.8728C113.421 65.8728 112.202 65.4811 111.318 64.6979C110.434 63.9146 109.992 62.7621 109.992 61.2404C109.992 59.7186 110.434 58.5661 111.318 57.7829C112.202 56.9996 113.421 56.608 114.976 56.608ZM114.976 58.8738C113.88 58.8738 113.332 59.506 113.332 60.7704V61.7271C113.332 62.9803 113.88 63.6069 114.976 63.6069C116.084 63.6069 116.638 62.9803 116.638 61.7271V60.7704C116.638 59.506 116.084 58.8738 114.976 58.8738Z" fill="#10183C"/>
<path d="M125.5 56.608C126.955 56.608 128.129 56.9213 129.025 57.5479C129.931 58.1633 130.384 59.1088 130.384 60.3844H127.145C127.145 59.3773 126.597 58.8738 125.5 58.8738C124.403 58.8738 123.855 59.506 123.855 60.7704V61.7271C123.855 62.9803 124.426 63.6069 125.567 63.6069C126.708 63.6069 127.279 63.0922 127.279 62.0628H130.384C130.384 63.3496 129.931 64.3063 129.025 64.9329C128.129 65.5595 126.955 65.8728 125.5 65.8728C123.945 65.8728 122.725 65.4811 121.841 64.6979C120.957 63.9146 120.515 62.7621 120.515 61.2404C120.515 59.7186 120.957 58.5661 121.841 57.7829C122.725 56.9996 123.945 56.608 125.5 56.608Z" fill="#10183C"/>
<path d="M131.559 55.7688V53.5029H134.899V55.7688H131.559ZM131.559 65.6714V56.8094H134.899V65.6714H131.559Z" fill="#10183C"/>
<path d="M140.74 56.608C142.094 56.608 143.196 56.8374 144.046 57.2961C144.897 57.7437 145.322 58.4766 145.322 59.4948V62.9523C145.322 63.1426 145.367 63.2992 145.456 63.4223C145.546 63.5454 145.68 63.6069 145.859 63.6069H146.463V65.5371C146.43 65.5595 146.34 65.5986 146.195 65.6546C146.06 65.6993 145.865 65.7441 145.607 65.7888C145.35 65.8448 145.053 65.8728 144.718 65.8728C144.069 65.8728 143.532 65.7777 143.106 65.5874C142.692 65.386 142.407 65.1119 142.25 64.765C141.825 65.1007 141.35 65.3692 140.824 65.5707C140.298 65.7721 139.682 65.8728 138.978 65.8728C136.896 65.8728 135.856 65.0448 135.856 63.3887C135.856 62.5271 136.085 61.8726 136.544 61.425C137.014 60.9662 137.685 60.6529 138.558 60.4851C139.431 60.3172 140.572 60.2333 141.982 60.2333V59.7969C141.982 59.4501 141.859 59.1871 141.613 59.0081C141.378 58.8291 141.07 58.7395 140.689 58.7395C140.343 58.7395 140.041 58.8011 139.783 58.9242C139.537 59.0473 139.414 59.2431 139.414 59.5116V59.5788H136.124C136.113 59.5228 136.107 59.4445 136.107 59.3438C136.107 58.5046 136.505 57.8388 137.299 57.3465C138.105 56.8541 139.252 56.608 140.74 56.608ZM141.982 61.811C141.031 61.811 140.326 61.9173 139.867 62.1299C139.42 62.3313 139.196 62.6055 139.196 62.9523C139.196 63.5118 139.576 63.7915 140.337 63.7915C140.773 63.7915 141.154 63.6741 141.478 63.4391C141.814 63.2041 141.982 62.9132 141.982 62.5663V61.811Z" fill="#10183C"/>
<path d="M152.512 56.8094V59.0752H150.632V62.4488C150.632 62.8516 150.699 63.1482 150.834 63.3384C150.968 63.5174 151.214 63.6069 151.572 63.6069H152.512V65.5707C152.243 65.6602 151.897 65.7329 151.471 65.7888C151.046 65.8448 150.677 65.8728 150.364 65.8728C149.379 65.8728 148.618 65.6937 148.081 65.3357C147.555 64.9776 147.292 64.3678 147.292 63.5062V59.0752H146.05V56.8094H147.426L148.148 54.1239H150.632V56.8094H152.512Z" fill="#10183C"/>
<path d="M153.508 55.7688V53.5029H156.848V55.7688H153.508ZM153.508 65.6714V56.8094H156.848V65.6714H153.508Z" fill="#10183C"/>
<path d="M162.89 56.608C164.446 56.608 165.665 57.0052 166.549 57.7996C167.444 58.5829 167.892 59.7298 167.892 61.2404C167.892 62.7509 167.444 63.9034 166.549 64.6979C165.665 65.4811 164.446 65.8728 162.89 65.8728C161.335 65.8728 160.115 65.4811 159.231 64.6979C158.347 63.9146 157.905 62.7621 157.905 61.2404C157.905 59.7186 158.347 58.5661 159.231 57.7829C160.115 56.9996 161.335 56.608 162.89 56.608ZM162.89 58.8738C161.794 58.8738 161.245 59.506 161.245 60.7704V61.7271C161.245 62.9803 161.794 63.6069 162.89 63.6069C163.998 63.6069 164.552 62.9803 164.552 61.7271V60.7704C164.552 59.506 163.998 58.8738 162.89 58.8738Z" fill="#10183C"/>
<path d="M174.941 56.608C175.971 56.608 176.743 56.8933 177.257 57.464C177.772 58.0346 178.029 58.857 178.029 59.9312V65.6714H174.689V60.334C174.689 59.9536 174.589 59.6515 174.387 59.4277C174.197 59.1927 173.923 59.0752 173.565 59.0752C173.151 59.0752 172.815 59.2095 172.558 59.478C172.3 59.7466 172.172 60.0767 172.172 60.4683V65.6714H168.832V56.8094H171.568L171.786 58.1521C172.133 57.6822 172.586 57.3073 173.145 57.0276C173.716 56.7478 174.315 56.608 174.941 56.608Z" fill="#10183C"/>
<path d="M188.855 56.608C190.41 56.608 191.63 57.0052 192.514 57.7996C193.409 58.5829 193.857 59.7298 193.857 61.2404C193.857 62.7509 193.409 63.9034 192.514 64.6979C191.63 65.4811 190.41 65.8728 188.855 65.8728C187.3 65.8728 186.08 65.4811 185.196 64.6979C184.312 63.9146 183.87 62.7621 183.87 61.2404C183.87 59.7186 184.312 58.5661 185.196 57.7829C186.08 56.9996 187.3 56.608 188.855 56.608ZM188.855 58.8738C187.759 58.8738 187.21 59.506 187.21 60.7704V61.7271C187.21 62.9803 187.759 63.6069 188.855 63.6069C189.963 63.6069 190.517 62.9803 190.517 61.7271V60.7704C190.517 59.506 189.963 58.8738 188.855 58.8738Z" fill="#10183C"/>
<path d="M198.405 53.3015C198.651 53.3015 198.959 53.3351 199.328 53.4022C199.697 53.4582 199.994 53.5253 200.218 53.6036V55.5674H199.446C199.088 55.5674 198.841 55.6345 198.707 55.7688C198.573 55.903 198.506 56.1324 198.506 56.4569V56.8094H200.218V59.0752H198.506V65.6714H195.166V59.0752H193.924V56.8094H195.166V56.4401C195.166 55.2988 195.445 54.4932 196.005 54.0232C196.564 53.5421 197.364 53.3015 198.405 53.3015Z" fill="#10183C"/>
<path d="M216.688 65.6714V61.5089C216.688 60.9942 216.705 60.4683 216.738 59.9312C216.783 59.3829 216.828 58.9242 216.872 58.5549C216.917 58.1857 216.945 57.9507 216.956 57.85H216.889L214.758 65.6714H211.854L209.706 57.8668H209.639C209.65 57.9675 209.678 58.2025 209.723 58.5717C209.778 58.9298 209.829 59.3829 209.874 59.9312C209.918 60.4683 209.941 60.9942 209.941 61.5089V65.6714H206.534V54.1239H211.77L213.516 60.7872H213.583L215.312 54.1239H220.364V65.6714H216.688Z" fill="#10183C"/>
<path d="M228.14 65.6714L227.922 64.3286C227.575 64.8098 227.116 65.1902 226.546 65.4699C225.986 65.7385 225.393 65.8728 224.767 65.8728C223.737 65.8728 222.965 65.5874 222.45 65.0168C221.936 64.4461 221.678 63.6237 221.678 62.5495V56.8094H225.018V62.1467C225.018 62.5271 225.114 62.8349 225.304 63.0698C225.505 63.2936 225.785 63.4055 226.143 63.4055C226.557 63.4055 226.893 63.2712 227.15 63.0027C227.407 62.7341 227.536 62.4041 227.536 62.0124V56.8094H230.876V65.6714H228.14Z" fill="#10183C"/>
<path d="M244.001 56.608C245.008 56.608 245.763 56.8989 246.267 57.4807C246.77 58.0514 247.022 58.8682 247.022 59.9312V65.6714H243.682V60.334C243.682 59.9536 243.587 59.6515 243.397 59.4277C243.218 59.1927 242.96 59.0752 242.625 59.0752C242.233 59.0752 241.914 59.2095 241.668 59.478C241.422 59.7466 241.299 60.0767 241.299 60.4683V65.6714H237.959V60.334C237.959 59.9536 237.864 59.6515 237.673 59.4277C237.494 59.1927 237.237 59.0752 236.901 59.0752C236.51 59.0752 236.191 59.2095 235.945 59.478C235.699 59.7466 235.575 60.0767 235.575 60.4683V65.6714H232.235V56.8094H234.971L235.189 58.1353C235.525 57.6654 235.967 57.2961 236.515 57.0276C237.075 56.7478 237.662 56.608 238.278 56.608C239.609 56.608 240.504 57.1171 240.963 58.1353C241.31 57.6654 241.752 57.2961 242.289 57.0276C242.837 56.7478 243.408 56.608 244.001 56.608Z" fill="#10183C"/>
<path d="M251.705 57.6318C252.343 56.9493 253.171 56.608 254.189 56.608C255.386 56.608 256.309 56.9996 256.958 57.7829C257.607 58.5549 257.932 59.7018 257.932 61.2236C257.932 62.7565 257.607 63.9146 256.958 64.6979C256.309 65.4811 255.386 65.8728 254.189 65.8728C252.958 65.8728 252.018 65.386 251.369 64.4126L251.084 65.6714H248.365V53.5029H251.705V57.6318ZM253.148 59.0752C252.656 59.0752 252.287 59.2543 252.041 59.6123C251.794 59.9592 251.671 60.4124 251.671 60.9718V61.5257C251.671 62.0852 251.794 62.5383 252.041 62.8852C252.287 63.2321 252.656 63.4055 253.148 63.4055C254.111 63.4055 254.592 62.8349 254.592 61.6935V60.804C254.592 59.6515 254.111 59.0752 253.148 59.0752Z" fill="#10183C"/>
<path d="M263.252 56.608C264.606 56.608 265.708 56.8374 266.559 57.2961C267.409 57.7437 267.834 58.4766 267.834 59.4948V62.9523C267.834 63.1426 267.879 63.2992 267.968 63.4223C268.058 63.5454 268.192 63.6069 268.371 63.6069H268.976V65.5371C268.942 65.5595 268.852 65.5986 268.707 65.6546C268.573 65.6993 268.377 65.7441 268.12 65.7888C267.862 65.8448 267.566 65.8728 267.23 65.8728C266.581 65.8728 266.044 65.7777 265.619 65.5874C265.205 65.386 264.919 65.1119 264.763 64.765C264.338 65.1007 263.862 65.3692 263.336 65.5707C262.81 65.7721 262.195 65.8728 261.49 65.8728C259.409 65.8728 258.368 65.0448 258.368 63.3887C258.368 62.5271 258.597 61.8726 259.056 61.425C259.526 60.9662 260.197 60.6529 261.07 60.4851C261.943 60.3172 263.084 60.2333 264.494 60.2333V59.7969C264.494 59.4501 264.371 59.1871 264.125 59.0081C263.89 58.8291 263.582 58.7395 263.202 58.7395C262.855 58.7395 262.553 58.8011 262.295 58.9242C262.049 59.0473 261.926 59.2431 261.926 59.5116V59.5788H258.637C258.625 59.5228 258.62 59.4445 258.62 59.3438C258.62 58.5046 259.017 57.8388 259.811 57.3465C260.617 56.8541 261.764 56.608 263.252 56.608ZM264.494 61.811C263.543 61.811 262.838 61.9173 262.379 62.1299C261.932 62.3313 261.708 62.6055 261.708 62.9523C261.708 63.5118 262.088 63.7915 262.849 63.7915C263.286 63.7915 263.666 63.6741 263.991 63.4391C264.326 63.2041 264.494 62.9132 264.494 62.5663V61.811Z" fill="#10183C"/>
<path d="M269.512 55.7688V53.5029H272.853V55.7688H269.512ZM269.512 65.6714V56.8094H272.853V65.6714H269.512Z" fill="#10183C"/>
<circle cx="33.5681" cy="33.5681" r="33.5681" fill="#EDBF4F"/>
<circle cx="33.5681" cy="33.5681" r="33.5681" fill="#10183C"/>
<path d="M45.4597 52.9898C43.1852 52.9898 41.3413 51.1459 41.3413 48.8714V42.7612C41.3413 41.4964 41.3826 40.204 41.4652 38.8842C41.5754 37.5369 41.6855 36.4096 41.7957 35.5022C41.8927 34.7031 41.9576 34.1599 41.9906 33.8726C41.9969 33.8178 41.9539 33.7699 41.8987 33.7699C41.8613 33.7699 41.8276 33.7924 41.8132 33.8269L37.6472 43.8202C37.0075 45.3546 35.5082 46.3539 33.8458 46.3539H32.1779C30.5215 46.3539 29.0263 45.3616 28.3829 43.8353L24.1812 33.8679C24.1667 33.8335 24.133 33.8112 24.0957 33.8112C24.0404 33.8112 23.9974 33.8591 24.0037 33.914C24.0366 34.2014 24.1016 34.7445 24.1986 35.5434C24.3363 36.4233 24.4602 37.5369 24.5703 38.8842C24.6805 40.204 24.7356 41.4964 24.7356 42.7612V48.8714C24.7356 51.1459 22.8917 52.9898 20.6171 52.9898H20.4685C18.194 52.9898 16.3501 51.1459 16.3501 48.8714V28.7321C16.3501 26.4575 18.194 24.6136 20.4685 24.6136H26.0608C27.9328 24.6136 29.5694 25.8762 30.0444 27.6869L33.5132 40.9079C33.5255 40.9549 33.568 40.9877 33.6166 40.9877C33.6653 40.9877 33.7079 40.9548 33.7201 40.9076L37.153 27.6963C37.6247 25.881 39.2635 24.6136 41.1391 24.6136H46.2692C48.5438 24.6136 50.3877 26.4575 50.3877 28.7321V48.8714C50.3877 51.1459 48.5438 52.9898 46.2693 52.9898H45.4597Z" fill="white"/>
<circle cx="43.0654" cy="13.9559" r="6.37622" fill="white"/>
<circle cx="22.2156" cy="15.8639" r="4.46077" fill="white"/>
</svg>
