<svg width="204" height="51" viewBox="0 0 204 51" fill="none" xmlns="http://www.w3.org/2000/svg">
<path d="M72.3081 8.82191V27.5126H64.2404V8.82191H55.9902V2.39697H80.5218V8.82191H72.3081Z" fill="#0A2296"/>
<path d="M82.7369 2.39697H104.458V8.42035H90.8046V11.8884H102.486V17.6562H90.8046V21.4893H104.713V27.5126H82.7369V2.39697Z" fill="#0A2296"/>
<path d="M124.451 27.5126L123.392 23.9716H114.594L113.536 27.5126H105.286L114.448 2.39697H123.83L132.993 27.5126H124.451ZM116.274 18.3498H121.713L119.085 9.40599H118.939L116.274 18.3498Z" fill="#0A2296"/>
<path d="M156.149 27.5126V18.4593C156.149 17.3398 156.186 16.196 156.259 15.0278C156.356 13.8353 156.453 12.8375 156.551 12.0344C156.648 11.2313 156.709 10.7202 156.733 10.5012H156.587L151.951 27.5126H145.636L140.963 10.5377H140.817C140.841 10.7567 140.902 11.2678 140.999 12.0709C141.121 12.8497 141.231 13.8353 141.328 15.0278C141.425 16.196 141.474 17.3398 141.474 18.4593V27.5126H134.063V2.39697H145.453L149.25 16.8896H149.396L153.156 2.39697H164.144V27.5126H156.149Z" fill="#0A2296"/>
<path d="M64.0781 32.9204V39.3454H61.3048V32.9204H58.4688V30.7119H66.9015V32.9204H64.0781Z" fill="#0A2296"/>
<path d="M70.1656 32.5691C71.3786 32.5691 72.303 32.8535 72.9388 33.4224C73.583 33.9913 73.9051 34.8613 73.9051 36.0325V36.4592H68.9358C68.9358 36.936 69.0404 37.2957 69.2495 37.5384C69.467 37.781 69.8058 37.9023 70.266 37.9023C70.6842 37.9023 70.9896 37.8144 71.182 37.6387C71.3828 37.4631 71.4832 37.2288 71.4832 36.936H73.9051C73.9051 37.7391 73.5997 38.3666 72.989 38.8183C72.3783 39.2701 71.4874 39.496 70.3161 39.496C69.0864 39.496 68.1327 39.2115 67.455 38.6426C66.7774 38.0654 66.4386 37.1954 66.4386 36.0325C66.4386 34.8948 66.769 34.0331 67.4299 33.4475C68.0908 32.8619 69.0027 32.5691 70.1656 32.5691ZM70.266 34.1628C69.4796 34.1628 69.0404 34.535 68.9483 35.2796H71.3828C71.3828 34.9366 71.2824 34.6647 71.0816 34.4639C70.8892 34.2631 70.6173 34.1628 70.266 34.1628Z" fill="#0A2296"/>
<path d="M78.0335 32.5691C79.1211 32.5691 79.9995 32.8033 80.6687 33.2718C81.3464 33.7319 81.6852 34.4388 81.6852 35.3925H79.2633C79.2633 34.6396 78.8533 34.2631 78.0335 34.2631C77.2137 34.2631 76.8037 34.7358 76.8037 35.6811V36.3964C76.8037 37.3334 77.2304 37.8019 78.0837 37.8019C78.937 37.8019 79.3637 37.4171 79.3637 36.6474H81.6852C81.6852 37.6095 81.3464 38.3247 80.6687 38.7932C79.9995 39.2617 79.1211 39.496 78.0335 39.496C76.8707 39.496 75.9588 39.2031 75.2979 38.6175C74.637 38.0319 74.3065 37.1703 74.3065 36.0325C74.3065 34.8948 74.637 34.0331 75.2979 33.4475C75.9588 32.8619 76.8707 32.5691 78.0335 32.5691Z" fill="#0A2296"/>
<path d="M84.7645 33.4098C85.0322 33.1421 85.3459 32.9372 85.7057 32.7949C86.0654 32.6444 86.4419 32.5691 86.835 32.5691C87.6047 32.5691 88.1819 32.7824 88.5668 33.2091C88.9516 33.6357 89.144 34.2506 89.144 35.0537V39.3454H86.6468V35.3549C86.6468 35.0704 86.5715 34.8446 86.4209 34.6773C86.2787 34.5016 86.0738 34.4137 85.806 34.4137C85.4965 34.4137 85.2455 34.5141 85.0531 34.7149C84.8607 34.9157 84.7645 35.1625 84.7645 35.4553V39.3454H82.2673V30.2476H84.7645V33.4098Z" fill="#0A2296"/>
<path d="M93.9878 30.7119H101.454V32.7824H96.7611V33.9745H100.777V35.9572H96.7611V37.2748H101.542V39.3454H93.9878V30.7119Z" fill="#0A2296"/>
<path d="M106.934 32.5691C107.704 32.5691 108.281 32.7824 108.666 33.2091C109.051 33.6357 109.243 34.2506 109.243 35.0537V39.3454H106.746V35.3549C106.746 35.0704 106.671 34.8446 106.52 34.6773C106.378 34.5016 106.173 34.4137 105.905 34.4137C105.596 34.4137 105.345 34.5141 105.152 34.7149C104.96 34.9157 104.864 35.1625 104.864 35.4553V39.3454H102.366V32.7197H104.412L104.575 33.7235C104.834 33.3722 105.173 33.0919 105.591 32.8828C106.018 32.6736 106.466 32.5691 106.934 32.5691Z" fill="#0A2296"/>
<path d="M114.651 32.7197V34.4137H113.246V36.936C113.246 37.2372 113.296 37.4589 113.397 37.6011C113.497 37.735 113.681 37.8019 113.949 37.8019H114.651V39.2701C114.451 39.337 114.191 39.3914 113.873 39.4332C113.555 39.475 113.279 39.496 113.045 39.496C112.309 39.496 111.74 39.3621 111.339 39.0944C110.945 38.8267 110.749 38.3708 110.749 37.7266V34.4137H109.82V32.7197H110.849L111.389 30.7119H113.246V32.7197H114.651Z" fill="#0A2296"/>
<path d="M119.336 32.5565C119.529 32.5565 119.7 32.5816 119.851 32.6318C120.001 32.6736 120.077 32.6987 120.077 32.7071V34.8027H119.274C118.755 34.8027 118.378 34.9366 118.144 35.2043C117.918 35.472 117.805 35.8694 117.805 36.3964V39.3454H115.308V32.7197H117.354L117.517 33.7235C117.667 33.3387 117.906 33.0501 118.232 32.8577C118.558 32.6569 118.926 32.5565 119.336 32.5565Z" fill="#0A2296"/>
<path d="M124.004 32.5691C125.217 32.5691 126.141 32.8535 126.777 33.4224C127.421 33.9913 127.743 34.8613 127.743 36.0325V36.4592H122.774C122.774 36.936 122.879 37.2957 123.088 37.5384C123.305 37.781 123.644 37.9023 124.104 37.9023C124.523 37.9023 124.828 37.8144 125.02 37.6387C125.221 37.4631 125.322 37.2288 125.322 36.936H127.743C127.743 37.7391 127.438 38.3666 126.827 38.8183C126.217 39.2701 125.326 39.496 124.155 39.496C122.925 39.496 121.971 39.2115 121.293 38.6426C120.616 38.0654 120.277 37.1954 120.277 36.0325C120.277 34.8948 120.607 34.0331 121.268 33.4475C121.929 32.8619 122.841 32.5691 124.004 32.5691ZM124.104 34.1628C123.318 34.1628 122.879 34.535 122.787 35.2796H125.221C125.221 34.9366 125.121 34.6647 124.92 34.4639C124.728 34.2631 124.456 34.1628 124.104 34.1628Z" fill="#0A2296"/>
<path d="M132.813 32.5691C133.708 32.5691 134.398 32.8619 134.884 33.4475C135.369 34.0331 135.611 34.8989 135.611 36.0451C135.611 37.1828 135.369 38.0445 134.884 38.6301C134.398 39.2073 133.708 39.496 132.813 39.496C132.043 39.496 131.424 39.245 130.956 38.743V41.8175H128.459V32.7197H130.492L130.705 33.6608C131.19 32.933 131.893 32.5691 132.813 32.5691ZM132.035 34.4137C131.667 34.4137 131.391 34.5434 131.207 34.8027C131.023 35.0621 130.931 35.4009 130.931 35.8192V36.2333C130.931 36.6516 131.023 36.9946 131.207 37.2623C131.391 37.5216 131.667 37.6513 132.035 37.6513C132.754 37.6513 133.114 37.2205 133.114 36.3588V35.6937C133.114 34.8404 132.754 34.4137 132.035 34.4137Z" fill="#0A2296"/>
<path d="M140.342 32.5565C140.535 32.5565 140.706 32.5816 140.857 32.6318C141.007 32.6736 141.083 32.6987 141.083 32.7071V34.8027H140.279C139.761 34.8027 139.384 34.9366 139.15 35.2043C138.924 35.472 138.811 35.8694 138.811 36.3964V39.3454H136.314V32.7197H138.359L138.523 33.7235C138.673 33.3387 138.912 33.0501 139.238 32.8577C139.564 32.6569 139.932 32.5565 140.342 32.5565Z" fill="#0A2296"/>
<path d="M145.01 32.5691C146.223 32.5691 147.147 32.8535 147.783 33.4224C148.427 33.9913 148.749 34.8613 148.749 36.0325V36.4592H143.78C143.78 36.936 143.885 37.2957 144.094 37.5384C144.311 37.781 144.65 37.9023 145.11 37.9023C145.528 37.9023 145.834 37.8144 146.026 37.6387C146.227 37.4631 146.327 37.2288 146.327 36.936H148.749C148.749 37.7391 148.444 38.3666 147.833 38.8183C147.223 39.2701 146.332 39.496 145.16 39.496C143.931 39.496 142.977 39.2115 142.299 38.6426C141.622 38.0654 141.283 37.1954 141.283 36.0325C141.283 34.8948 141.613 34.0331 142.274 33.4475C142.935 32.8619 143.847 32.5691 145.01 32.5691ZM145.11 34.1628C144.324 34.1628 143.885 34.535 143.793 35.2796H146.227C146.227 34.9366 146.127 34.6647 145.926 34.4639C145.733 34.2631 145.462 34.1628 145.11 34.1628Z" fill="#0A2296"/>
<path d="M154.02 32.5691C154.789 32.5691 155.367 32.7824 155.751 33.2091C156.136 33.6357 156.329 34.2506 156.329 35.0537V39.3454H153.831V35.3549C153.831 35.0704 153.756 34.8446 153.606 34.6773C153.463 34.5016 153.258 34.4137 152.991 34.4137C152.681 34.4137 152.43 34.5141 152.238 34.7149C152.045 34.9157 151.949 35.1625 151.949 35.4553V39.3454H149.452V32.7197H151.497L151.66 33.7235C151.92 33.3722 152.259 33.0919 152.677 32.8828C153.104 32.6736 153.551 32.5691 154.02 32.5691Z" fill="#0A2296"/>
<path d="M160.746 32.5691C161.959 32.5691 162.883 32.8535 163.519 33.4224C164.163 33.9913 164.485 34.8613 164.485 36.0325V36.4592H159.516C159.516 36.936 159.62 37.2957 159.83 37.5384C160.047 37.781 160.386 37.9023 160.846 37.9023C161.264 37.9023 161.57 37.8144 161.762 37.6387C161.963 37.4631 162.063 37.2288 162.063 36.936H164.485C164.485 37.7391 164.18 38.3666 163.569 38.8183C162.958 39.2701 162.067 39.496 160.896 39.496C159.666 39.496 158.713 39.2115 158.035 38.6426C157.357 38.0654 157.019 37.1954 157.019 36.0325C157.019 34.8948 157.349 34.0331 158.01 33.4475C158.671 32.8619 159.583 32.5691 160.746 32.5691ZM160.846 34.1628C160.06 34.1628 159.62 34.535 159.528 35.2796H161.963C161.963 34.9366 161.862 34.6647 161.662 34.4639C161.469 34.2631 161.197 34.1628 160.846 34.1628Z" fill="#0A2296"/>
<path d="M169.994 39.3454L169.831 38.3415C169.571 38.7012 169.228 38.9856 168.802 39.1948C168.384 39.3956 167.94 39.496 167.472 39.496C166.702 39.496 166.125 39.2826 165.74 38.856C165.355 38.4293 165.163 37.8144 165.163 37.0113V32.7197H167.66V36.7101C167.66 36.9946 167.731 37.2246 167.873 37.4003C168.024 37.5676 168.233 37.6513 168.501 37.6513C168.81 37.6513 169.061 37.5509 169.254 37.3501C169.446 37.1493 169.542 36.9026 169.542 36.6098V32.7197H172.039V39.3454H169.994Z" fill="#0A2296"/>
<path d="M177.084 32.5565C177.276 32.5565 177.448 32.5816 177.598 32.6318C177.749 32.6736 177.824 32.6987 177.824 32.7071V34.8027H177.021C176.502 34.8027 176.126 34.9366 175.892 35.2043C175.666 35.472 175.553 35.8694 175.553 36.3964V39.3454H173.056V32.7197H175.101L175.264 33.7235C175.415 33.3387 175.653 33.0501 175.98 32.8577C176.306 32.6569 176.674 32.5565 177.084 32.5565Z" fill="#0A2296"/>
<path d="M181.598 32.5691C182.485 32.5691 183.233 32.7448 183.844 33.0961C184.463 33.4391 184.773 33.9745 184.773 34.7023H182.451C182.451 34.4597 182.342 34.2882 182.125 34.1879C181.974 34.1042 181.786 34.0624 181.56 34.0624C180.958 34.0624 180.657 34.2046 180.657 34.489C180.657 34.648 180.761 34.7609 180.971 34.8278C181.18 34.8948 181.523 34.9659 182 35.0412C182.585 35.1248 183.075 35.2252 183.468 35.3423C183.861 35.4511 184.204 35.6519 184.497 35.9447C184.79 36.2291 184.936 36.6307 184.936 37.1493C184.936 37.9943 184.618 38.5966 183.982 38.9564C183.355 39.3161 182.531 39.496 181.51 39.496C180.924 39.496 180.372 39.4165 179.854 39.2575C179.335 39.0902 178.913 38.8351 178.586 38.4921C178.26 38.1491 178.097 37.714 178.097 37.187H180.418V37.2372C180.427 37.5216 180.544 37.7224 180.77 37.8395C181.004 37.9483 181.251 38.0027 181.51 38.0027C182.204 38.0027 182.552 37.8395 182.552 37.5133C182.552 37.3459 182.443 37.2246 182.225 37.1493C182.008 37.0741 181.652 36.9946 181.159 36.9109C180.565 36.8105 180.075 36.7018 179.691 36.5847C179.314 36.4675 178.984 36.2709 178.699 35.9949C178.415 35.7104 178.273 35.3172 178.273 34.8153C178.273 34.0038 178.578 33.4266 179.189 33.0836C179.808 32.7406 180.611 32.5691 181.598 32.5691Z" fill="#0A2296"/>
<path d="M64.8937 49.8126L64.5298 48.5953H61.5056L61.1417 49.8126H58.3057L61.4554 41.1791H64.6804L67.8301 49.8126H64.8937ZM62.0828 46.6628H63.9526L63.0491 43.5884H62.9989L62.0828 46.6628Z" fill="#0A2296"/>
<path d="M71.3478 43.0363C72.2346 43.0363 72.9833 43.2119 73.594 43.5633C74.2131 43.9063 74.5226 44.4417 74.5226 45.1695H72.2011C72.2011 44.9269 72.0923 44.7554 71.8748 44.655C71.7242 44.5714 71.536 44.5296 71.3101 44.5296C70.7078 44.5296 70.4066 44.6718 70.4066 44.9562C70.4066 45.1152 70.5112 45.2281 70.7204 45.295C70.9295 45.362 71.2725 45.4331 71.7493 45.5084C72.335 45.592 72.8244 45.6924 73.2175 45.8095C73.6107 45.9183 73.9537 46.1191 74.2465 46.4119C74.5393 46.6963 74.6857 47.0979 74.6857 47.6165C74.6857 48.4615 74.3678 49.0638 73.732 49.4236C73.1046 49.7833 72.2806 49.9632 71.2599 49.9632C70.6743 49.9632 70.1222 49.8837 69.6035 49.7247C69.0848 49.5574 68.6624 49.3023 68.3361 48.9593C68.0098 48.6163 67.8467 48.1812 67.8467 47.6542H70.1682V47.7044C70.1766 47.9888 70.2937 48.1896 70.5196 48.3067C70.7538 48.4155 71.0006 48.4699 71.2599 48.4699C71.9543 48.4699 72.3015 48.3067 72.3015 47.9805C72.3015 47.8131 72.1927 47.6918 71.9752 47.6165C71.7577 47.5413 71.4022 47.4618 70.9086 47.3781C70.3146 47.2777 69.8252 47.169 69.4404 47.0519C69.0639 46.9347 68.7335 46.7381 68.449 46.4621C68.1646 46.1776 68.0224 45.7844 68.0224 45.2825C68.0224 44.471 68.3277 43.8938 68.9384 43.5508C69.5575 43.2078 70.3606 43.0363 71.3478 43.0363Z" fill="#0A2296"/>
<path d="M78.5172 43.0363C79.404 43.0363 80.1527 43.2119 80.7634 43.5633C81.3825 43.9063 81.692 44.4417 81.692 45.1695H79.3705C79.3705 44.9269 79.2618 44.7554 79.0443 44.655C78.8937 44.5714 78.7054 44.5296 78.4796 44.5296C77.8772 44.5296 77.5761 44.6718 77.5761 44.9562C77.5761 45.1152 77.6806 45.2281 77.8898 45.295C78.0989 45.362 78.4419 45.4331 78.9188 45.5084C79.5044 45.592 79.9938 45.6924 80.387 45.8095C80.7802 45.9183 81.1232 46.1191 81.416 46.4119C81.7088 46.6963 81.8552 47.0979 81.8552 47.6165C81.8552 48.4615 81.5373 49.0638 80.9015 49.4236C80.274 49.7833 79.45 49.9632 78.4294 49.9632C77.8438 49.9632 77.2916 49.8837 76.7729 49.7247C76.2543 49.5574 75.8318 49.3023 75.5055 48.9593C75.1793 48.6163 75.0161 48.1812 75.0161 47.6542H77.3376V47.7044C77.346 47.9888 77.4631 48.1896 77.689 48.3067C77.9232 48.4155 78.17 48.4699 78.4294 48.4699C79.1237 48.4699 79.4709 48.3067 79.4709 47.9805C79.4709 47.8131 79.3622 47.6918 79.1446 47.6165C78.9271 47.5413 78.5716 47.4618 78.078 47.3781C77.484 47.2777 76.9946 47.169 76.6098 47.0519C76.2333 46.9347 75.9029 46.7381 75.6185 46.4621C75.334 46.1776 75.1918 45.7844 75.1918 45.2825C75.1918 44.471 75.4972 43.8938 76.1079 43.5508C76.7269 43.2078 77.53 43.0363 78.5172 43.0363Z" fill="#0A2296"/>
<path d="M85.9627 43.0363C87.1256 43.0363 88.0374 43.3333 88.6983 43.9272C89.3676 44.5128 89.7022 45.3703 89.7022 46.4997C89.7022 47.6291 89.3676 48.4908 88.6983 49.0847C88.0374 49.6703 87.1256 49.9632 85.9627 49.9632C84.7999 49.9632 83.888 49.6703 83.2271 49.0847C82.5662 48.4991 82.2358 47.6375 82.2358 46.4997C82.2358 45.362 82.5662 44.5003 83.2271 43.9147C83.888 43.3291 84.7999 43.0363 85.9627 43.0363ZM85.9627 44.7303C85.1429 44.7303 84.7329 45.203 84.7329 46.1483V46.8636C84.7329 47.8006 85.1429 48.2691 85.9627 48.2691C86.7909 48.2691 87.205 47.8006 87.205 46.8636V46.1483C87.205 45.203 86.7909 44.7303 85.9627 44.7303Z" fill="#0A2296"/>
<path d="M93.8307 43.0363C94.9182 43.0363 95.7966 43.2705 96.4659 43.739C97.1435 44.1991 97.4823 44.906 97.4823 45.8597H95.0604C95.0604 45.1068 94.6505 44.7303 93.8307 44.7303C93.0108 44.7303 92.6009 45.203 92.6009 46.1483V46.8636C92.6009 47.8006 93.0275 48.2691 93.8808 48.2691C94.7342 48.2691 95.1608 47.8842 95.1608 47.1146H97.4823C97.4823 48.0767 97.1435 48.7919 96.4659 49.2604C95.7966 49.7289 94.9182 49.9632 93.8307 49.9632C92.6678 49.9632 91.7559 49.6703 91.095 49.0847C90.4341 48.4991 90.1037 47.6375 90.1037 46.4997C90.1037 45.362 90.4341 44.5003 91.095 43.9147C91.7559 43.3291 92.6678 43.0363 93.8307 43.0363Z" fill="#0A2296"/>
<path d="M98.3606 42.4088V40.7148H100.858V42.4088H98.3606ZM98.3606 49.8126V43.1869H100.858V49.8126H98.3606Z" fill="#0A2296"/>
<path d="M105.225 43.0363C106.237 43.0363 107.061 43.2078 107.697 43.5508C108.333 43.8854 108.651 44.4334 108.651 45.1946V47.7797C108.651 47.9219 108.684 48.039 108.751 48.131C108.818 48.2231 108.918 48.2691 109.052 48.2691H109.504V49.7122C109.479 49.7289 109.412 49.7582 109.303 49.8C109.203 49.8335 109.056 49.8669 108.864 49.9004C108.672 49.9422 108.45 49.9632 108.199 49.9632C107.714 49.9632 107.312 49.892 106.994 49.7498C106.685 49.5992 106.471 49.3943 106.354 49.1349C106.036 49.3859 105.681 49.5867 105.288 49.7373C104.894 49.8879 104.434 49.9632 103.907 49.9632C102.351 49.9632 101.573 49.3441 101.573 48.1059C101.573 47.4618 101.745 46.9724 102.088 46.6377C102.439 46.2947 102.941 46.0605 103.594 45.935C104.246 45.8095 105.099 45.7468 106.153 45.7468V45.4205C106.153 45.1612 106.061 44.9646 105.877 44.8307C105.702 44.6969 105.472 44.63 105.187 44.63C104.928 44.63 104.702 44.676 104.51 44.768C104.326 44.86 104.234 45.0064 104.234 45.2072V45.2574H101.774C101.766 45.2156 101.761 45.157 101.761 45.0817C101.761 44.4543 102.058 43.9565 102.652 43.5884C103.255 43.2203 104.112 43.0363 105.225 43.0363ZM106.153 46.9264C105.442 46.9264 104.915 47.0058 104.572 47.1648C104.238 47.3154 104.07 47.5203 104.07 47.7797C104.07 48.198 104.355 48.4071 104.924 48.4071C105.25 48.4071 105.534 48.3193 105.777 48.1436C106.028 47.9679 106.153 47.7504 106.153 47.4911V46.9264Z" fill="#0A2296"/>
<path d="M114.026 43.1869V44.8809H112.621V47.4032C112.621 47.7044 112.671 47.9261 112.772 48.0683C112.872 48.2021 113.056 48.2691 113.324 48.2691H114.026V49.7373C113.826 49.8042 113.566 49.8586 113.248 49.9004C112.93 49.9422 112.654 49.9632 112.42 49.9632C111.684 49.9632 111.115 49.8293 110.714 49.5616C110.32 49.2939 110.124 48.8379 110.124 48.1938V44.8809H109.195V43.1869H110.224L110.764 41.1791H112.621V43.1869H114.026Z" fill="#0A2296"/>
<path d="M114.771 42.4088V40.7148H117.268V42.4088H114.771ZM114.771 49.8126V43.1869H117.268V49.8126H114.771Z" fill="#0A2296"/>
<path d="M121.786 43.0363C122.949 43.0363 123.861 43.3333 124.521 43.9272C125.191 44.5128 125.525 45.3703 125.525 46.4997C125.525 47.6291 125.191 48.4908 124.521 49.0847C123.861 49.6703 122.949 49.9632 121.786 49.9632C120.623 49.9632 119.711 49.6703 119.05 49.0847C118.389 48.4991 118.059 47.6375 118.059 46.4997C118.059 45.362 118.389 44.5003 119.05 43.9147C119.711 43.3291 120.623 43.0363 121.786 43.0363ZM121.786 44.7303C120.966 44.7303 120.556 45.203 120.556 46.1483V46.8636C120.556 47.8006 120.966 48.2691 121.786 48.2691C122.614 48.2691 123.028 47.8006 123.028 46.8636V46.1483C123.028 45.203 122.614 44.7303 121.786 44.7303Z" fill="#0A2296"/>
<path d="M130.796 43.0363C131.565 43.0363 132.143 43.2496 132.527 43.6763C132.912 44.1029 133.105 44.7178 133.105 45.5209V49.8126H130.607V45.8221C130.607 45.5376 130.532 45.3118 130.382 45.1444C130.239 44.9688 130.034 44.8809 129.767 44.8809C129.457 44.8809 129.206 44.9813 129.014 45.1821C128.821 45.3829 128.725 45.6297 128.725 45.9225V49.8126H126.228V43.1869H128.273L128.437 44.1907C128.696 43.8394 129.035 43.5591 129.453 43.35C129.88 43.1408 130.327 43.0363 130.796 43.0363Z" fill="#0A2296"/>
<path d="M141.199 43.0363C142.361 43.0363 143.273 43.3333 143.934 43.9272C144.603 44.5128 144.938 45.3703 144.938 46.4997C144.938 47.6291 144.603 48.4908 143.934 49.0847C143.273 49.6703 142.361 49.9632 141.199 49.9632C140.036 49.9632 139.124 49.6703 138.463 49.0847C137.802 48.4991 137.472 47.6375 137.472 46.4997C137.472 45.362 137.802 44.5003 138.463 43.9147C139.124 43.3291 140.036 43.0363 141.199 43.0363ZM141.199 44.7303C140.379 44.7303 139.969 45.203 139.969 46.1483V46.8636C139.969 47.8006 140.379 48.2691 141.199 48.2691C142.027 48.2691 142.441 47.8006 142.441 46.8636V46.1483C142.441 45.203 142.027 44.7303 141.199 44.7303Z" fill="#0A2296"/>
<path d="M148.339 40.5642C148.523 40.5642 148.753 40.5893 149.029 40.6395C149.305 40.6813 149.527 40.7315 149.694 40.79V42.2582H149.117C148.849 42.2582 148.665 42.3084 148.565 42.4088C148.464 42.5092 148.414 42.6807 148.414 42.9233V43.1869H149.694V44.8809H148.414V49.8126H145.917V44.8809H144.988V43.1869H145.917V42.9108C145.917 42.0575 146.126 41.4551 146.544 41.1038C146.963 40.744 147.561 40.5642 148.339 40.5642Z" fill="#0A2296"/>
<path d="M162.008 49.8126V46.7005C162.008 46.3157 162.02 45.9225 162.046 45.5209C162.079 45.111 162.113 44.768 162.146 44.4919C162.179 44.2158 162.2 44.0402 162.209 43.9649H162.159L160.565 49.8126H158.394L156.788 43.9774H156.737C156.746 44.0527 156.767 44.2284 156.8 44.5045C156.842 44.7722 156.88 45.111 156.913 45.5209C156.947 45.9225 156.963 46.3157 156.963 46.7005V49.8126H154.416V41.1791H158.331L159.636 46.1609H159.686L160.979 41.1791H164.756V49.8126H162.008Z" fill="#0A2296"/>
<path d="M170.57 49.8126L170.407 48.8087C170.148 49.1684 169.805 49.4528 169.378 49.662C168.96 49.8628 168.517 49.9632 168.048 49.9632C167.278 49.9632 166.701 49.7498 166.316 49.3232C165.932 48.8965 165.739 48.2816 165.739 47.4785V43.1869H168.236V47.1773C168.236 47.4618 168.307 47.6918 168.45 47.8675C168.6 48.0348 168.809 48.1185 169.077 48.1185C169.387 48.1185 169.638 48.0181 169.83 47.8173C170.022 47.6165 170.119 47.3698 170.119 47.0769V43.1869H172.616V49.8126H170.57Z" fill="#0A2296"/>
<path d="M182.429 43.0363C183.182 43.0363 183.746 43.2538 184.123 43.6888C184.499 44.1155 184.688 44.7262 184.688 45.5209V49.8126H182.19V45.8221C182.19 45.5376 182.119 45.3118 181.977 45.1444C181.843 44.9688 181.651 44.8809 181.4 44.8809C181.107 44.8809 180.869 44.9813 180.685 45.1821C180.5 45.3829 180.408 45.6297 180.408 45.9225V49.8126H177.911V45.8221C177.911 45.5376 177.84 45.3118 177.698 45.1444C177.564 44.9688 177.372 44.8809 177.121 44.8809C176.828 44.8809 176.589 44.9813 176.405 45.1821C176.221 45.3829 176.129 45.6297 176.129 45.9225V49.8126H173.632V43.1869H175.678L175.841 44.1782C176.092 43.8268 176.422 43.5508 176.832 43.35C177.25 43.1408 177.69 43.0363 178.15 43.0363C179.145 43.0363 179.814 43.4169 180.157 44.1782C180.417 43.8268 180.747 43.5508 181.149 43.35C181.559 43.1408 181.985 43.0363 182.429 43.0363Z" fill="#0A2296"/>
<path d="M188.189 43.8017C188.666 43.2914 189.285 43.0363 190.046 43.0363C190.941 43.0363 191.631 43.3291 192.116 43.9147C192.602 44.4919 192.844 45.3494 192.844 46.4872C192.844 47.6333 192.602 48.4991 192.116 49.0847C191.631 49.6703 190.941 49.9632 190.046 49.9632C189.126 49.9632 188.423 49.5992 187.938 48.8714L187.724 49.8126H185.691V40.7148H188.189V43.8017ZM189.268 44.8809C188.9 44.8809 188.624 45.0148 188.44 45.2825C188.256 45.5418 188.164 45.8806 188.164 46.2989V46.713C188.164 47.1313 188.256 47.4701 188.44 47.7295C188.624 47.9888 188.9 48.1185 189.268 48.1185C189.987 48.1185 190.347 47.6918 190.347 46.8385V46.1734C190.347 45.3118 189.987 44.8809 189.268 44.8809Z" fill="#0A2296"/>
<path d="M196.822 43.0363C197.834 43.0363 198.658 43.2078 199.294 43.5508C199.93 43.8854 200.248 44.4334 200.248 45.1946V47.7797C200.248 47.9219 200.281 48.039 200.348 48.131C200.415 48.2231 200.516 48.2691 200.649 48.2691H201.101V49.7122C201.076 49.7289 201.009 49.7582 200.9 49.8C200.8 49.8335 200.654 49.8669 200.461 49.9004C200.269 49.9422 200.047 49.9632 199.796 49.9632C199.311 49.9632 198.909 49.892 198.591 49.7498C198.282 49.5992 198.069 49.3943 197.951 49.1349C197.634 49.3859 197.278 49.5867 196.885 49.7373C196.492 49.8879 196.031 49.9632 195.504 49.9632C193.948 49.9632 193.17 49.3441 193.17 48.1059C193.17 47.4618 193.342 46.9724 193.685 46.6377C194.036 46.2947 194.538 46.0605 195.191 45.935C195.843 45.8095 196.697 45.7468 197.751 45.7468V45.4205C197.751 45.1612 197.659 44.9646 197.475 44.8307C197.299 44.6969 197.069 44.63 196.784 44.63C196.525 44.63 196.299 44.676 196.107 44.768C195.923 44.86 195.831 45.0064 195.831 45.2072V45.2574H193.371C193.363 45.2156 193.359 45.157 193.359 45.0817C193.359 44.4543 193.656 43.9565 194.25 43.5884C194.852 43.2203 195.709 43.0363 196.822 43.0363ZM197.751 46.9264C197.04 46.9264 196.513 47.0058 196.17 47.1648C195.835 47.3154 195.668 47.5203 195.668 47.7797C195.668 48.198 195.952 48.4071 196.521 48.4071C196.847 48.4071 197.132 48.3193 197.374 48.1436C197.625 47.9679 197.751 47.7504 197.751 47.4911V46.9264Z" fill="#0A2296"/>
<path d="M201.503 42.4088V40.7148H204V42.4088H201.503ZM201.503 49.8126V43.1869H204V49.8126H201.503Z" fill="#0A2296"/>
<circle cx="25.0974" cy="25.8108" r="25.0974" fill="#EDBF4F"/>
<circle cx="25.0974" cy="25.8108" r="25.0974" fill="#0A2296"/>
<path d="M33.989 40.3319C32.2885 40.3319 30.9099 38.9533 30.9099 37.2527V32.6844C30.9099 31.7387 30.9408 30.7725 31.0025 29.7857C31.0849 28.7784 31.1672 27.9355 31.2496 27.2571C31.3221 26.6597 31.3707 26.2535 31.3953 26.0387C31.4 25.9977 31.3679 25.962 31.3266 25.962C31.2987 25.962 31.2735 25.9788 31.2627 26.0046L28.1479 33.4761C27.6697 34.6233 26.5487 35.3705 25.3058 35.3705H24.0588C22.8204 35.3705 21.7025 34.6286 21.2214 33.4874L18.08 26.0352C18.0691 26.0095 18.044 25.9928 18.0161 25.9928C17.9747 25.9928 17.9426 26.0286 17.9473 26.0697C17.9719 26.2845 18.0205 26.6906 18.093 27.2879C18.1959 27.9458 18.2886 28.7784 18.3709 29.7857C18.4533 30.7725 18.4945 31.7387 18.4945 32.6844V37.2527C18.4945 38.9533 17.1159 40.3319 15.4153 40.3319H15.3042C13.6036 40.3319 12.225 38.9533 12.225 37.2527V22.1954C12.225 20.4948 13.6036 19.1162 15.3042 19.1162H19.4853C20.885 19.1162 22.1085 20.0602 22.4637 21.414L25.0571 31.2987C25.0664 31.3339 25.0981 31.3584 25.1345 31.3584C25.1709 31.3584 25.2027 31.3338 25.2119 31.2985L27.7785 21.421C28.1312 20.0637 29.3564 19.1162 30.7587 19.1162H34.5943C36.2949 19.1162 37.6735 20.4948 37.6735 22.1954V37.2527C37.6735 38.9533 36.2949 40.3319 34.5943 40.3319H33.989Z" fill="white"/>
<circle cx="32.1989" cy="11.1476" r="4.76722" fill="white"/>
<circle cx="16.6095" cy="12.5744" r="3.33512" fill="white"/>
</svg>
