<svg width="150" height="37" viewBox="0 0 150 37" fill="none" xmlns="http://www.w3.org/2000/svg">
<path d="M53.1674 5.9625V19.7057H47.2353V5.9625H41.1689V1.23828H59.2069V5.9625H53.1674Z" fill="#10183C"/>
<path d="M60.8356 1.23828H76.8067V5.66724H66.7678V8.21724H75.3572V12.4583H66.7678V15.2767H76.9946V19.7057H60.8356V1.23828Z" fill="#10183C"/>
<path d="M91.5076 19.7057L90.7292 17.102H84.2602L83.4818 19.7057H77.4155L84.1529 1.23828H91.0513L97.7887 19.7057H91.5076ZM85.495 12.9683H89.4945L87.5618 6.39197H87.4544L85.495 12.9683Z" fill="#10183C"/>
<path d="M114.815 19.7057V13.0488C114.815 12.2257 114.842 11.3846 114.896 10.5257C114.967 9.64882 115.039 8.91513 115.11 8.32461C115.182 7.73408 115.227 7.35829 115.245 7.19724H115.137L111.728 19.7057H107.085L103.649 7.22408H103.541C103.559 7.38513 103.604 7.76092 103.676 8.35145C103.765 8.92408 103.846 9.64882 103.917 10.5257C103.989 11.3846 104.025 12.2257 104.025 13.0488V19.7057H98.5757V1.23828H106.95L109.742 11.8946H109.849L112.614 1.23828H120.694V19.7057H114.815Z" fill="#10183C"/>
<path d="M47.1165 23.6821V28.4064H45.0773V23.6821H42.992V22.0582H49.1926V23.6821H47.1165Z" fill="#10183C"/>
<path d="M51.5926 23.4238C52.4845 23.4238 53.1642 23.6329 53.6317 24.0512C54.1054 24.4695 54.3422 25.1093 54.3422 25.9704V26.2842H50.6883C50.6883 26.6348 50.7652 26.8993 50.919 27.0777C51.0789 27.2561 51.3281 27.3453 51.6664 27.3453C51.974 27.3453 52.1985 27.2807 52.34 27.1515C52.4876 27.0223 52.5614 26.8501 52.5614 26.6348H54.3422C54.3422 27.2253 54.1177 27.6867 53.6687 28.0188C53.2196 28.351 52.5645 28.5171 51.7033 28.5171C50.7991 28.5171 50.0978 28.3079 49.5996 27.8897C49.1013 27.4652 48.8522 26.8255 48.8522 25.9704C48.8522 25.1339 49.0951 24.5003 49.5811 24.0697C50.0671 23.6391 50.7375 23.4238 51.5926 23.4238ZM51.6664 24.5956C51.0882 24.5956 50.7652 24.8694 50.6976 25.4168H52.4876C52.4876 25.1646 52.4138 24.9647 52.2662 24.8171C52.1247 24.6694 51.9248 24.5956 51.6664 24.5956Z" fill="#10183C"/>
<path d="M57.3778 23.4238C58.1775 23.4238 58.8234 23.596 59.3155 23.9405C59.8138 24.2788 60.0629 24.7986 60.0629 25.4999H58.2821C58.2821 24.9462 57.9807 24.6694 57.3778 24.6694C56.775 24.6694 56.4736 25.017 56.4736 25.7121V26.238C56.4736 26.927 56.7873 27.2714 57.4147 27.2714C58.0422 27.2714 58.3559 26.9885 58.3559 26.4226H60.0629C60.0629 27.13 59.8138 27.6559 59.3155 28.0004C58.8234 28.3448 58.1775 28.5171 57.3778 28.5171C56.5228 28.5171 55.8523 28.3018 55.3663 27.8712C54.8804 27.4406 54.6374 26.807 54.6374 25.9704C54.6374 25.1339 54.8804 24.5003 55.3663 24.0697C55.8523 23.6391 56.5228 23.4238 57.3778 23.4238Z" fill="#10183C"/>
<path d="M62.3271 24.042C62.5239 23.8452 62.7546 23.6944 63.0191 23.5899C63.2836 23.4792 63.5604 23.4238 63.8496 23.4238C64.4155 23.4238 64.8399 23.5806 65.1229 23.8944C65.4058 24.2081 65.5473 24.6602 65.5473 25.2507V28.4064H63.7111V25.4722C63.7111 25.263 63.6558 25.0969 63.5451 24.9739C63.4405 24.8447 63.2898 24.7802 63.0929 24.7802C62.8653 24.7802 62.6808 24.854 62.5393 25.0016C62.3978 25.1492 62.3271 25.3307 62.3271 25.546V28.4064H60.4909V21.7168H62.3271V24.042Z" fill="#10183C"/>
<path d="M69.1089 22.0582H74.599V23.5806H71.1481V24.4572H74.1007V25.9151H71.1481V26.8839H74.6636V28.4064H69.1089V22.0582Z" fill="#10183C"/>
<path d="M78.6282 23.4238C79.1942 23.4238 79.6186 23.5806 79.9016 23.8944C80.1845 24.2081 80.326 24.6602 80.326 25.2507V28.4064H78.4898V25.4722C78.4898 25.263 78.4345 25.0969 78.3237 24.9739C78.2192 24.8447 78.0685 24.7802 77.8716 24.7802C77.644 24.7802 77.4595 24.854 77.318 25.0016C77.1765 25.1492 77.1058 25.3307 77.1058 25.546V28.4064H75.2696V23.5345H76.7736L76.8936 24.2727C77.0843 24.0143 77.3334 23.8082 77.6409 23.6545C77.9547 23.5007 78.2838 23.4238 78.6282 23.4238Z" fill="#10183C"/>
<path d="M84.3028 23.5345V24.7802H83.2693V26.6348C83.2693 26.8562 83.3062 27.0192 83.3801 27.1238C83.4539 27.2222 83.5892 27.2714 83.7861 27.2714H84.3028V28.351C84.1551 28.4002 83.9644 28.4402 83.7307 28.471C83.4969 28.5017 83.2939 28.5171 83.1217 28.5171C82.5804 28.5171 82.1621 28.4187 81.8668 28.2218C81.5777 28.025 81.4332 27.6897 81.4332 27.2161V24.7802H80.7504V23.5345H81.507L81.9037 22.0582H83.2693V23.5345H84.3028Z" fill="#10183C"/>
<path d="M87.7475 23.4146C87.889 23.4146 88.0151 23.433 88.1258 23.4699C88.2366 23.5007 88.2919 23.5191 88.2919 23.5253V25.0662H87.7014C87.32 25.0662 87.0432 25.1646 86.871 25.3615C86.7049 25.5583 86.6218 25.8505 86.6218 26.238V28.4064H84.7857V23.5345H86.2897L86.4096 24.2727C86.5203 23.9897 86.6956 23.7775 86.9356 23.636C87.1755 23.4884 87.4461 23.4146 87.7475 23.4146Z" fill="#10183C"/>
<path d="M91.1796 23.4238C92.0715 23.4238 92.7513 23.6329 93.2188 24.0512C93.6924 24.4695 93.9292 25.1093 93.9292 25.9704V26.2842H90.2754C90.2754 26.6348 90.3523 26.8993 90.506 27.0777C90.666 27.2561 90.9151 27.3453 91.2534 27.3453C91.561 27.3453 91.7855 27.2807 91.927 27.1515C92.0746 27.0223 92.1484 26.8501 92.1484 26.6348H93.9292C93.9292 27.2253 93.7047 27.6867 93.2557 28.0188C92.8066 28.351 92.1515 28.5171 91.2903 28.5171C90.3861 28.5171 89.6848 28.3079 89.1866 27.8897C88.6883 27.4652 88.4392 26.8255 88.4392 25.9704C88.4392 25.1339 88.6822 24.5003 89.1681 24.0697C89.6541 23.6391 90.3246 23.4238 91.1796 23.4238ZM91.2534 24.5956C90.6752 24.5956 90.3523 24.8694 90.2846 25.4168H92.0746C92.0746 25.1646 92.0008 24.9647 91.8532 24.8171C91.7117 24.6694 91.5118 24.5956 91.2534 24.5956Z" fill="#10183C"/>
<path d="M97.6569 23.4238C98.3151 23.4238 98.8226 23.6391 99.1793 24.0697C99.5361 24.5003 99.7145 25.1369 99.7145 25.9797C99.7145 26.8162 99.5361 27.4498 99.1793 27.8804C98.8226 28.3049 98.3151 28.5171 97.6569 28.5171C97.091 28.5171 96.6358 28.3325 96.2913 27.9635V30.2241H94.4551V23.5345H95.9499L96.1067 24.2265C96.4635 23.6914 96.9802 23.4238 97.6569 23.4238ZM97.0848 24.7802C96.8141 24.7802 96.6112 24.8755 96.4758 25.0662C96.3405 25.2569 96.2728 25.506 96.2728 25.8136V26.1181C96.2728 26.4256 96.3405 26.6778 96.4758 26.8747C96.6112 27.0654 96.8141 27.1607 97.0848 27.1607C97.6138 27.1607 97.8783 26.8439 97.8783 26.2103V25.7213C97.8783 25.0939 97.6138 24.7802 97.0848 24.7802Z" fill="#10183C"/>
<path d="M103.193 23.4146C103.334 23.4146 103.461 23.433 103.571 23.4699C103.682 23.5007 103.737 23.5191 103.737 23.5253V25.0662H103.147C102.765 25.0662 102.489 25.1646 102.316 25.3615C102.15 25.5583 102.067 25.8505 102.067 26.238V28.4064H100.231V23.5345H101.735L101.855 24.2727C101.966 23.9897 102.141 23.7775 102.381 23.636C102.621 23.4884 102.892 23.4146 103.193 23.4146Z" fill="#10183C"/>
<path d="M106.625 23.4238C107.517 23.4238 108.197 23.6329 108.664 24.0512C109.138 24.4695 109.375 25.1093 109.375 25.9704V26.2842H105.721C105.721 26.6348 105.798 26.8993 105.952 27.0777C106.111 27.2561 106.361 27.3453 106.699 27.3453C107.006 27.3453 107.231 27.2807 107.372 27.1515C107.52 27.0223 107.594 26.8501 107.594 26.6348H109.375C109.375 27.2253 109.15 27.6867 108.701 28.0188C108.252 28.351 107.597 28.5171 106.736 28.5171C105.832 28.5171 105.13 28.3079 104.632 27.8897C104.134 27.4652 103.885 26.8255 103.885 25.9704C103.885 25.1339 104.128 24.5003 104.614 24.0697C105.1 23.6391 105.77 23.4238 106.625 23.4238ZM106.699 24.5956C106.121 24.5956 105.798 24.8694 105.73 25.4168H107.52C107.52 25.1646 107.446 24.9647 107.299 24.8171C107.157 24.6694 106.957 24.5956 106.699 24.5956Z" fill="#10183C"/>
<path d="M113.25 23.4238C113.816 23.4238 114.24 23.5806 114.523 23.8944C114.806 24.2081 114.948 24.6602 114.948 25.2507V28.4064H113.112V25.4722C113.112 25.263 113.056 25.0969 112.945 24.9739C112.841 24.8447 112.69 24.7802 112.493 24.7802C112.266 24.7802 112.081 24.854 111.94 25.0016C111.798 25.1492 111.728 25.3307 111.728 25.546V28.4064H109.891V23.5345H111.395L111.515 24.2727C111.706 24.0143 111.955 23.8082 112.263 23.6545C112.576 23.5007 112.906 23.4238 113.25 23.4238Z" fill="#10183C"/>
<path d="M118.196 23.4238C119.088 23.4238 119.767 23.6329 120.235 24.0512C120.708 24.4695 120.945 25.1093 120.945 25.9704V26.2842H117.291C117.291 26.6348 117.368 26.8993 117.522 27.0777C117.682 27.2561 117.931 27.3453 118.269 27.3453C118.577 27.3453 118.801 27.2807 118.943 27.1515C119.091 27.0223 119.164 26.8501 119.164 26.6348H120.945C120.945 27.2253 120.721 27.6867 120.272 28.0188C119.823 28.351 119.167 28.5171 118.306 28.5171C117.402 28.5171 116.701 28.3079 116.203 27.8897C115.704 27.4652 115.455 26.8255 115.455 25.9704C115.455 25.1339 115.698 24.5003 116.184 24.0697C116.67 23.6391 117.341 23.4238 118.196 23.4238ZM118.269 24.5956C117.691 24.5956 117.368 24.8694 117.301 25.4168H119.091C119.091 25.1646 119.017 24.9647 118.869 24.8171C118.728 24.6694 118.528 24.5956 118.269 24.5956Z" fill="#10183C"/>
<path d="M124.996 28.4064L124.876 27.6682C124.685 27.9327 124.433 28.1419 124.119 28.2956C123.812 28.4433 123.486 28.5171 123.141 28.5171C122.575 28.5171 122.151 28.3602 121.868 28.0465C121.585 27.7328 121.443 27.2807 121.443 26.6901V23.5345H123.28V26.4687C123.28 26.6778 123.332 26.847 123.436 26.9762C123.547 27.0992 123.701 27.1607 123.898 27.1607C124.125 27.1607 124.31 27.0869 124.451 26.9393C124.593 26.7916 124.664 26.6102 124.664 26.3949V23.5345H126.5V28.4064H124.996Z" fill="#10183C"/>
<path d="M130.209 23.4146C130.35 23.4146 130.477 23.433 130.587 23.4699C130.698 23.5007 130.753 23.5191 130.753 23.5253V25.0662H130.163C129.781 25.0662 129.505 25.1646 129.332 25.3615C129.166 25.5583 129.083 25.8505 129.083 26.238V28.4064H127.247V23.5345H128.751L128.871 24.2727C128.982 23.9897 129.157 23.7775 129.397 23.636C129.637 23.4884 129.908 23.4146 130.209 23.4146Z" fill="#10183C"/>
<path d="M133.528 23.4238C134.18 23.4238 134.731 23.553 135.18 23.8113C135.635 24.0635 135.863 24.4572 135.863 24.9924H134.156C134.156 24.814 134.076 24.6879 133.916 24.6141C133.805 24.5526 133.667 24.5218 133.5 24.5218C133.058 24.5218 132.836 24.6264 132.836 24.8355C132.836 24.9524 132.913 25.0354 133.067 25.0846C133.221 25.1339 133.473 25.1861 133.823 25.2415C134.254 25.303 134.614 25.3768 134.903 25.463C135.192 25.5429 135.444 25.6906 135.66 25.9058C135.875 26.115 135.983 26.4103 135.983 26.7916C135.983 27.4129 135.749 27.8558 135.281 28.1203C134.82 28.3848 134.214 28.5171 133.464 28.5171C133.033 28.5171 132.627 28.4586 132.246 28.3418C131.864 28.2187 131.554 28.0311 131.314 27.7789C131.074 27.5267 130.954 27.2069 130.954 26.8193H132.661V26.8562C132.667 27.0654 132.753 27.213 132.919 27.2991C133.091 27.3791 133.273 27.4191 133.464 27.4191C133.974 27.4191 134.229 27.2991 134.229 27.0592C134.229 26.9362 134.149 26.847 133.99 26.7916C133.83 26.7363 133.568 26.6778 133.205 26.6163C132.768 26.5425 132.409 26.4625 132.126 26.3764C131.849 26.2903 131.606 26.1458 131.397 25.9428C131.188 25.7336 131.083 25.4445 131.083 25.0754C131.083 24.4787 131.308 24.0543 131.757 23.8021C132.212 23.5499 132.802 23.4238 133.528 23.4238Z" fill="#10183C"/>
<path d="M47.7162 36.1028L47.4487 35.2078H45.225L44.9574 36.1028H42.8721L45.188 29.7547H47.5594L49.8754 36.1028H47.7162ZM45.6494 33.7869H47.0242L46.3599 31.5262H46.323L45.6494 33.7869Z" fill="#10183C"/>
<path d="M52.4619 31.1203C53.1139 31.1203 53.6644 31.2494 54.1135 31.5078C54.5687 31.76 54.7963 32.1537 54.7963 32.6888H53.0893C53.0893 32.5105 53.0093 32.3844 52.8494 32.3105C52.7387 32.249 52.6003 32.2183 52.4342 32.2183C51.9913 32.2183 51.7698 32.3228 51.7698 32.532C51.7698 32.6489 51.8467 32.7319 52.0005 32.7811C52.1543 32.8303 52.4065 32.8826 52.7571 32.938C53.1877 32.9995 53.5476 33.0733 53.8367 33.1594C54.1258 33.2394 54.378 33.387 54.5933 33.6023C54.8086 33.8115 54.9162 34.1067 54.9162 34.4881C54.9162 35.1094 54.6825 35.5523 54.215 35.8168C53.7536 36.0813 53.1477 36.2136 52.3973 36.2136C51.9667 36.2136 51.5607 36.1551 51.1793 36.0382C50.7979 35.9152 50.4873 35.7276 50.2474 35.4754C50.0075 35.2232 49.8875 34.9033 49.8875 34.5158H51.5945V34.5527C51.6007 34.7618 51.6868 34.9095 51.8529 34.9956C52.0251 35.0756 52.2066 35.1155 52.3973 35.1155C52.9078 35.1155 53.1631 34.9956 53.1631 34.7557C53.1631 34.6327 53.0831 34.5435 52.9232 34.4881C52.7633 34.4327 52.5018 34.3743 52.1389 34.3128C51.7022 34.239 51.3423 34.159 51.0594 34.0729C50.7826 33.9868 50.5396 33.8422 50.3304 33.6392C50.1213 33.4301 50.0167 33.141 50.0167 32.7719C50.0167 32.1752 50.2412 31.7508 50.6903 31.4986C51.1455 31.2464 51.736 31.1203 52.4619 31.1203Z" fill="#10183C"/>
<path d="M57.7335 31.1203C58.3855 31.1203 58.9361 31.2494 59.3851 31.5078C59.8403 31.76 60.0679 32.1537 60.0679 32.6888H58.3609C58.3609 32.5105 58.281 32.3844 58.121 32.3105C58.0103 32.249 57.8719 32.2183 57.7058 32.2183C57.2629 32.2183 57.0415 32.3228 57.0415 32.532C57.0415 32.6489 57.1184 32.7319 57.2722 32.7811C57.4259 32.8303 57.6781 32.8826 58.0288 32.938C58.4594 32.9995 58.8192 33.0733 59.1083 33.1594C59.3974 33.2394 59.6496 33.387 59.8649 33.6023C60.0802 33.8115 60.1879 34.1067 60.1879 34.4881C60.1879 35.1094 59.9541 35.5523 59.4866 35.8168C59.0253 36.0813 58.4194 36.2136 57.6689 36.2136C57.2383 36.2136 56.8323 36.1551 56.451 36.0382C56.0696 35.9152 55.7589 35.7276 55.519 35.4754C55.2791 35.2232 55.1592 34.9033 55.1592 34.5158H56.8662V34.5527C56.8723 34.7618 56.9584 34.9095 57.1245 34.9956C57.2968 35.0756 57.4782 35.1155 57.6689 35.1155C58.1795 35.1155 58.4348 34.9956 58.4348 34.7557C58.4348 34.6327 58.3548 34.5435 58.1949 34.4881C58.0349 34.4327 57.7735 34.3743 57.4106 34.3128C56.9738 34.239 56.614 34.159 56.331 34.0729C56.0542 33.9868 55.8112 33.8422 55.6021 33.6392C55.3929 33.4301 55.2884 33.141 55.2884 32.7719C55.2884 32.1752 55.5129 31.7508 55.9619 31.4986C56.4171 31.2464 57.0076 31.1203 57.7335 31.1203Z" fill="#10183C"/>
<path d="M63.2081 31.1203C64.0632 31.1203 64.7337 31.3386 65.2196 31.7754C65.7117 32.206 65.9578 32.8365 65.9578 33.6669C65.9578 34.4973 65.7117 35.1309 65.2196 35.5677C64.7337 35.9983 64.0632 36.2136 63.2081 36.2136C62.3531 36.2136 61.6826 35.9983 61.1967 35.5677C60.7107 35.1371 60.4677 34.5035 60.4677 33.6669C60.4677 32.8303 60.7107 32.1967 61.1967 31.7661C61.6826 31.3356 62.3531 31.1203 63.2081 31.1203ZM63.2081 32.3659C62.6053 32.3659 62.3039 32.7135 62.3039 33.4086V33.9345C62.3039 34.6234 62.6053 34.9679 63.2081 34.9679C63.8171 34.9679 64.1216 34.6234 64.1216 33.9345V33.4086C64.1216 32.7135 63.8171 32.3659 63.2081 32.3659Z" fill="#10183C"/>
<path d="M68.9934 31.1203C69.7931 31.1203 70.4389 31.2925 70.9311 31.637C71.4293 31.9753 71.6784 32.4951 71.6784 33.1963H69.8976C69.8976 32.6427 69.5962 32.3659 68.9934 32.3659C68.3906 32.3659 68.0891 32.7135 68.0891 33.4086V33.9345C68.0891 34.6234 68.4029 34.9679 69.0303 34.9679C69.6577 34.9679 69.9714 34.685 69.9714 34.119H71.6784C71.6784 34.8264 71.4293 35.3524 70.9311 35.6968C70.4389 36.0413 69.7931 36.2136 68.9934 36.2136C68.1383 36.2136 67.4679 35.9983 66.9819 35.5677C66.4959 35.1371 66.253 34.5035 66.253 33.6669C66.253 32.8303 66.4959 32.1967 66.9819 31.7661C67.4679 31.3356 68.1383 31.1203 68.9934 31.1203Z" fill="#10183C"/>
<path d="M72.3243 30.6589V29.4133H74.1604V30.6589H72.3243ZM72.3243 36.1028V31.231H74.1604V36.1028H72.3243Z" fill="#10183C"/>
<path d="M77.3715 31.1203C78.1158 31.1203 78.7217 31.2464 79.1892 31.4986C79.6567 31.7446 79.8905 32.1475 79.8905 32.7073V34.6081C79.8905 34.7126 79.9151 34.7987 79.9643 34.8664C80.0135 34.9341 80.0873 34.9679 80.1857 34.9679H80.5179V36.029C80.4994 36.0413 80.4502 36.0628 80.3703 36.0936C80.2964 36.1182 80.1888 36.1428 80.0473 36.1674C79.9058 36.1982 79.7428 36.2136 79.5583 36.2136C79.2015 36.2136 78.9062 36.1613 78.6725 36.0567C78.4449 35.946 78.288 35.7953 78.2019 35.6046C77.9682 35.7891 77.7067 35.9367 77.4176 36.0475C77.1285 36.1582 76.7902 36.2136 76.4027 36.2136C75.2585 36.2136 74.6864 35.7584 74.6864 34.848C74.6864 34.3743 74.8125 34.0145 75.0647 33.7684C75.3231 33.5162 75.6922 33.344 76.172 33.2517C76.6518 33.1594 77.2792 33.1133 78.0543 33.1133V32.8734C78.0543 32.6827 77.9866 32.5381 77.8513 32.4397C77.7221 32.3413 77.553 32.2921 77.3438 32.2921C77.1531 32.2921 76.987 32.3259 76.8456 32.3936C76.7102 32.4612 76.6426 32.5689 76.6426 32.7165V32.7534H74.8341C74.8279 32.7227 74.8248 32.6796 74.8248 32.6243C74.8248 32.1629 75.0432 31.7969 75.48 31.5262C75.9229 31.2556 76.5534 31.1203 77.3715 31.1203ZM78.0543 33.9806C77.5314 33.9806 77.1439 34.0391 76.8917 34.1559C76.6456 34.2667 76.5226 34.4174 76.5226 34.6081C76.5226 34.9156 76.7318 35.0694 77.15 35.0694C77.3899 35.0694 77.5991 35.0048 77.7775 34.8756C77.962 34.7465 78.0543 34.5865 78.0543 34.3958V33.9806Z" fill="#10183C"/>
<path d="M83.8432 31.231V32.4766H82.8098V34.3313C82.8098 34.5527 82.8467 34.7157 82.9205 34.8203C82.9943 34.9187 83.1297 34.9679 83.3265 34.9679H83.8432V36.0475C83.6956 36.0967 83.5049 36.1367 83.2711 36.1674C83.0374 36.1982 82.8344 36.2136 82.6622 36.2136C82.1208 36.2136 81.7025 36.1151 81.4073 35.9183C81.1182 35.7214 80.9736 35.3862 80.9736 34.9125V32.4766H80.2908V31.231H81.0474L81.4442 29.7547H82.8098V31.231H83.8432Z" fill="#10183C"/>
<path d="M84.3907 30.6589V29.4133H86.2269V30.6589H84.3907ZM84.3907 36.1028V31.231H86.2269V36.1028H84.3907Z" fill="#10183C"/>
<path d="M89.5487 31.1203C90.4037 31.1203 91.0742 31.3386 91.5601 31.7754C92.0522 32.206 92.2983 32.8365 92.2983 33.6669C92.2983 34.4973 92.0522 35.1309 91.5601 35.5677C91.0742 35.9983 90.4037 36.2136 89.5487 36.2136C88.6936 36.2136 88.0231 35.9983 87.5372 35.5677C87.0512 35.1371 86.8082 34.5035 86.8082 33.6669C86.8082 32.8303 87.0512 32.1967 87.5372 31.7661C88.0231 31.3356 88.6936 31.1203 89.5487 31.1203ZM89.5487 32.3659C88.9458 32.3659 88.6444 32.7135 88.6444 33.4086V33.9345C88.6444 34.6234 88.9458 34.9679 89.5487 34.9679C90.1576 34.9679 90.4621 34.6234 90.4621 33.9345V33.4086C90.4621 32.7135 90.1576 32.3659 89.5487 32.3659Z" fill="#10183C"/>
<path d="M96.1736 31.1203C96.7395 31.1203 97.1639 31.2771 97.4469 31.5908C97.7299 31.9046 97.8713 32.3567 97.8713 32.9472V36.1028H96.0352V33.1686C96.0352 32.9595 95.9798 32.7934 95.8691 32.6704C95.7645 32.5412 95.6138 32.4766 95.417 32.4766C95.1894 32.4766 95.0048 32.5504 94.8633 32.6981C94.7219 32.8457 94.6511 33.0272 94.6511 33.2425V36.1028H92.8149V31.231H94.3189L94.4389 31.9691C94.6296 31.7108 94.8787 31.5047 95.1863 31.3509C95.5 31.1971 95.8291 31.1203 96.1736 31.1203Z" fill="#10183C"/>
<path d="M103.823 31.1203C104.678 31.1203 105.348 31.3386 105.834 31.7754C106.326 32.206 106.572 32.8365 106.572 33.6669C106.572 34.4973 106.326 35.1309 105.834 35.5677C105.348 35.9983 104.678 36.2136 103.823 36.2136C102.968 36.2136 102.297 35.9983 101.811 35.5677C101.325 35.1371 101.082 34.5035 101.082 33.6669C101.082 32.8303 101.325 32.1967 101.811 31.7661C102.297 31.3356 102.968 31.1203 103.823 31.1203ZM103.823 32.3659C103.22 32.3659 102.918 32.7135 102.918 33.4086V33.9345C102.918 34.6234 103.22 34.9679 103.823 34.9679C104.432 34.9679 104.736 34.6234 104.736 33.9345V33.4086C104.736 32.7135 104.432 32.3659 103.823 32.3659Z" fill="#10183C"/>
<path d="M109.073 29.3025C109.208 29.3025 109.377 29.321 109.58 29.3579C109.783 29.3887 109.946 29.4256 110.069 29.4686V30.5482H109.645C109.448 30.5482 109.313 30.5851 109.239 30.6589C109.165 30.7327 109.128 30.8588 109.128 31.0372V31.231H110.069V32.4766H109.128V36.1028H107.292V32.4766H106.609V31.231H107.292V31.028C107.292 30.4006 107.446 29.9577 107.753 29.6993C108.061 29.4348 108.501 29.3025 109.073 29.3025Z" fill="#10183C"/>
<path d="M119.124 36.1028V33.8145C119.124 33.5316 119.133 33.2425 119.151 32.9472C119.176 32.6458 119.201 32.3936 119.225 32.1906C119.25 31.9876 119.265 31.8584 119.271 31.8031H119.234L118.063 36.1028H116.466L115.285 31.8123H115.248C115.255 31.8676 115.27 31.9968 115.295 32.1998C115.325 32.3967 115.353 32.6458 115.378 32.9472C115.402 33.2425 115.414 33.5316 115.414 33.8145V36.1028H113.541V29.7547H116.42L117.38 33.4178H117.417L118.367 29.7547H121.144V36.1028H119.124Z" fill="#10183C"/>
<path d="M125.42 36.1028L125.3 35.3647C125.109 35.6292 124.857 35.8383 124.543 35.9921C124.236 36.1397 123.91 36.2136 123.565 36.2136C122.999 36.2136 122.575 36.0567 122.292 35.743C122.009 35.4293 121.867 34.9771 121.867 34.3866V31.231H123.703V34.1652C123.703 34.3743 123.756 34.5435 123.86 34.6726C123.971 34.7957 124.125 34.8572 124.322 34.8572C124.549 34.8572 124.734 34.7834 124.875 34.6357C125.017 34.4881 125.087 34.3066 125.087 34.0913V31.231H126.924V36.1028H125.42Z" fill="#10183C"/>
<path d="M134.139 31.1203C134.693 31.1203 135.108 31.2802 135.385 31.6001C135.662 31.9138 135.8 32.3628 135.8 32.9472V36.1028H133.964V33.1686C133.964 32.9595 133.911 32.7934 133.807 32.6704C133.708 32.5412 133.567 32.4766 133.382 32.4766C133.167 32.4766 132.992 32.5504 132.857 32.6981C132.721 32.8457 132.654 33.0272 132.654 33.2425V36.1028H130.817V33.1686C130.817 32.9595 130.765 32.7934 130.661 32.6704C130.562 32.5412 130.421 32.4766 130.236 32.4766C130.021 32.4766 129.845 32.5504 129.71 32.6981C129.575 32.8457 129.507 33.0272 129.507 33.2425V36.1028H127.671V31.231H129.175L129.295 31.9599C129.479 31.7016 129.722 31.4986 130.024 31.3509C130.331 31.1971 130.654 31.1203 130.993 31.1203C131.725 31.1203 132.217 31.4001 132.469 31.9599C132.66 31.7016 132.903 31.4986 133.198 31.3509C133.499 31.1971 133.813 31.1203 134.139 31.1203Z" fill="#10183C"/>
<path d="M138.374 31.6831C138.725 31.3079 139.18 31.1203 139.74 31.1203C140.398 31.1203 140.906 31.3356 141.262 31.7661C141.619 32.1906 141.797 32.8211 141.797 33.6577C141.797 34.5004 141.619 35.1371 141.262 35.5677C140.906 35.9983 140.398 36.2136 139.74 36.2136C139.063 36.2136 138.547 35.946 138.19 35.4108L138.033 36.1028H136.538V29.4133H138.374V31.6831ZM139.168 32.4766C138.897 32.4766 138.694 32.575 138.559 32.7719C138.423 32.9626 138.356 33.2117 138.356 33.5193V33.8238C138.356 34.1313 138.423 34.3805 138.559 34.5712C138.694 34.7618 138.897 34.8572 139.168 34.8572C139.697 34.8572 139.961 34.5435 139.961 33.916V33.427C139.961 32.7934 139.697 32.4766 139.168 32.4766Z" fill="#10183C"/>
<path d="M144.722 31.1203C145.467 31.1203 146.073 31.2464 146.54 31.4986C147.008 31.7446 147.241 32.1475 147.241 32.7073V34.6081C147.241 34.7126 147.266 34.7987 147.315 34.8664C147.364 34.9341 147.438 34.9679 147.537 34.9679H147.869V36.029C147.85 36.0413 147.801 36.0628 147.721 36.0936C147.647 36.1182 147.54 36.1428 147.398 36.1674C147.257 36.1982 147.094 36.2136 146.909 36.2136C146.552 36.2136 146.257 36.1613 146.023 36.0567C145.796 35.946 145.639 35.7953 145.553 35.6046C145.319 35.7891 145.058 35.9367 144.769 36.0475C144.479 36.1582 144.141 36.2136 143.754 36.2136C142.609 36.2136 142.037 35.7584 142.037 34.848C142.037 34.3743 142.163 34.0145 142.416 33.7684C142.674 33.5162 143.043 33.344 143.523 33.2517C144.003 33.1594 144.63 33.1133 145.405 33.1133V32.8734C145.405 32.6827 145.338 32.5381 145.202 32.4397C145.073 32.3413 144.904 32.2921 144.695 32.2921C144.504 32.2921 144.338 32.3259 144.196 32.3936C144.061 32.4612 143.993 32.5689 143.993 32.7165V32.7534H142.185C142.179 32.7227 142.176 32.6796 142.176 32.6243C142.176 32.1629 142.394 31.7969 142.831 31.5262C143.274 31.2556 143.904 31.1203 144.722 31.1203ZM145.405 33.9806C144.882 33.9806 144.495 34.0391 144.243 34.1559C143.997 34.2667 143.873 34.4174 143.873 34.6081C143.873 34.9156 144.083 35.0694 144.501 35.0694C144.741 35.0694 144.95 35.0048 145.128 34.8756C145.313 34.7465 145.405 34.5865 145.405 34.3958V33.9806Z" fill="#10183C"/>
<path d="M148.164 30.6589V29.4133H150V30.6589H148.164ZM148.164 36.1028V31.231H150V36.1028H148.164Z" fill="#10183C"/>
<circle cx="18.454" cy="18.454" r="18.454" fill="#EDBF4F"/>
<circle cx="18.454" cy="18.454" r="18.454" fill="#10183C"/>
<path d="M24.9914 29.131C23.741 29.131 22.7273 28.1173 22.7273 26.8669V23.5078C22.7273 22.8125 22.75 22.102 22.7955 21.3765C22.856 20.6358 22.9166 20.016 22.9771 19.5172C23.0305 19.0779 23.0662 18.7793 23.0843 18.6213C23.0877 18.5912 23.0641 18.5649 23.0338 18.5649C23.0132 18.5649 22.9947 18.5772 22.9868 18.5962L20.6965 24.09C20.3448 24.9335 19.5206 25.4829 18.6067 25.4829H17.6898C16.7792 25.4829 15.9572 24.9374 15.6035 24.0983L13.2936 18.6187C13.2856 18.5998 13.2671 18.5876 13.2466 18.5876C13.2162 18.5876 13.1925 18.6139 13.196 18.6441C13.2141 18.8021 13.2498 19.1007 13.3032 19.5399C13.3789 20.0236 13.447 20.6358 13.5075 21.3765C13.5681 22.102 13.5984 22.8125 13.5984 23.5078V26.8669C13.5984 28.1173 12.5847 29.131 11.3343 29.131H11.2526C10.0021 29.131 8.98847 28.1173 8.98847 26.8669V15.7953C8.98847 14.5449 10.0021 13.5312 11.2526 13.5312H14.3269C15.3561 13.5312 16.2557 14.2253 16.5169 15.2208L18.4238 22.489C18.4306 22.5148 18.454 22.5328 18.4807 22.5328C18.5075 22.5328 18.5309 22.5147 18.5376 22.4888L20.4248 15.2259C20.6842 14.228 21.585 13.5312 22.6162 13.5312H25.4365C26.6869 13.5312 27.7006 14.5449 27.7006 15.7953V26.8669C27.7006 28.1173 26.6869 29.131 25.4365 29.131H24.9914Z" fill="white"/>
<circle cx="23.6752" cy="7.6723" r="3.50531" fill="white"/>
<circle cx="12.2121" cy="8.72134" r="2.4523" fill="white"/>
</svg>
