<svg width="161" height="56" viewBox="0 0 161 56" fill="none" xmlns="http://www.w3.org/2000/svg">
<g filter="url(#filter0_d_1631_6756)">
<rect x="2" y="1" width="157" height="52" rx="8" fill="url(#paint0_linear_1631_6756)"/>
<path d="M52.1058 21.3636H53.8558V29.6136C53.8558 30.3598 53.7081 30.9981 53.4126 31.5284C53.121 32.0587 52.71 32.464 52.1797 32.7443C51.6494 33.0208 51.0282 33.1591 50.3161 33.1591C49.6607 33.1591 49.0717 33.0398 48.549 32.8011C48.0301 32.5625 47.6191 32.2159 47.3161 31.7614C47.0168 31.303 46.8672 30.7462 46.8672 30.0909H48.6115C48.6115 30.4129 48.6854 30.6913 48.8331 30.9261C48.9846 31.161 49.1911 31.3447 49.4524 31.4773C49.7176 31.6061 50.0206 31.6705 50.3615 31.6705C50.7327 31.6705 51.0471 31.5928 51.3047 31.4375C51.5661 31.2784 51.7649 31.0455 51.9013 30.7386C52.0376 30.4318 52.1058 30.0568 52.1058 29.6136V21.3636ZM59.951 33.1761C59.1328 33.1761 58.4188 32.9886 57.8089 32.6136C57.1991 32.2386 56.7256 31.714 56.3885 31.0398C56.0514 30.3655 55.8828 29.5777 55.8828 28.6761C55.8828 27.7708 56.0514 26.9792 56.3885 26.3011C56.7256 25.6231 57.1991 25.0966 57.8089 24.7216C58.4188 24.3466 59.1328 24.1591 59.951 24.1591C60.7692 24.1591 61.4832 24.3466 62.093 24.7216C62.7029 25.0966 63.1764 25.6231 63.5135 26.3011C63.8506 26.9792 64.0192 27.7708 64.0192 28.6761C64.0192 29.5777 63.8506 30.3655 63.5135 31.0398C63.1764 31.714 62.7029 32.2386 62.093 32.6136C61.4832 32.9886 60.7692 33.1761 59.951 33.1761ZM59.9567 31.75C60.487 31.75 60.9264 31.6098 61.2749 31.3295C61.6233 31.0492 61.8809 30.6761 62.0476 30.2102C62.218 29.7443 62.3033 29.2311 62.3033 28.6705C62.3033 28.1136 62.218 27.6023 62.0476 27.1364C61.8809 26.6667 61.6233 26.2898 61.2749 26.0057C60.9264 25.7216 60.487 25.5795 59.9567 25.5795C59.4226 25.5795 58.9794 25.7216 58.6271 26.0057C58.2786 26.2898 58.0192 26.6667 57.8487 27.1364C57.6821 27.6023 57.5987 28.1136 57.5987 28.6705C57.5987 29.2311 57.6821 29.7443 57.8487 30.2102C58.0192 30.6761 58.2786 31.0492 58.6271 31.3295C58.9794 31.6098 59.4226 31.75 59.9567 31.75ZM65.9155 33V24.2727H67.6143V33H65.9155ZM66.7734 22.9261C66.478 22.9261 66.2242 22.8277 66.0121 22.6307C65.8037 22.4299 65.6996 22.1913 65.6996 21.9148C65.6996 21.6345 65.8037 21.3958 66.0121 21.1989C66.2242 20.9981 66.478 20.8977 66.7734 20.8977C67.0689 20.8977 67.3208 20.9981 67.5291 21.1989C67.7412 21.3958 67.8473 21.6345 67.8473 21.9148C67.8473 22.1913 67.7412 22.4299 67.5291 22.6307C67.3208 22.8277 67.0689 22.9261 66.7734 22.9261ZM71.5987 27.8182V33H69.8999V24.2727H71.5305V25.6932H71.6385C71.8393 25.2311 72.1536 24.8598 72.5817 24.5795C73.0135 24.2992 73.5571 24.1591 74.2124 24.1591C74.8071 24.1591 75.3279 24.2841 75.7749 24.5341C76.2218 24.7803 76.5684 25.1477 76.8146 25.6364C77.0608 26.125 77.1839 26.7292 77.1839 27.4489V33H75.4851V27.6534C75.4851 27.0208 75.3203 26.5265 74.9908 26.1705C74.6612 25.8106 74.2086 25.6307 73.6328 25.6307C73.2389 25.6307 72.8885 25.7159 72.5817 25.8864C72.2786 26.0568 72.0381 26.3068 71.8601 26.6364C71.6858 26.9621 71.5987 27.3561 71.5987 27.8182ZM85.3956 27.8182V33H83.6967V24.2727H85.3274V25.6932H85.4354C85.6361 25.2311 85.9505 24.8598 86.3786 24.5795C86.8104 24.2992 87.3539 24.1591 88.0092 24.1591C88.6039 24.1591 89.1248 24.2841 89.5717 24.5341C90.0187 24.7803 90.3653 25.1477 90.6115 25.6364C90.8577 26.125 90.9808 26.7292 90.9808 27.4489V33H89.282V27.6534C89.282 27.0208 89.1172 26.5265 88.7876 26.1705C88.4581 25.8106 88.0054 25.6307 87.4297 25.6307C87.0357 25.6307 86.6854 25.7159 86.3786 25.8864C86.0755 26.0568 85.835 26.3068 85.657 26.6364C85.4827 26.9621 85.3956 27.3561 85.3956 27.8182ZM96.9354 33.1761C96.1172 33.1761 95.4032 32.9886 94.7933 32.6136C94.1835 32.2386 93.71 31.714 93.3729 31.0398C93.0357 30.3655 92.8672 29.5777 92.8672 28.6761C92.8672 27.7708 93.0357 26.9792 93.3729 26.3011C93.71 25.6231 94.1835 25.0966 94.7933 24.7216C95.4032 24.3466 96.1172 24.1591 96.9354 24.1591C97.7536 24.1591 98.4676 24.3466 99.0774 24.7216C99.6873 25.0966 100.161 25.6231 100.498 26.3011C100.835 26.9792 101.004 27.7708 101.004 28.6761C101.004 29.5777 100.835 30.3655 100.498 31.0398C100.161 31.714 99.6873 32.2386 99.0774 32.6136C98.4676 32.9886 97.7536 33.1761 96.9354 33.1761ZM96.9411 31.75C97.4714 31.75 97.9107 31.6098 98.2592 31.3295C98.6077 31.0492 98.8653 30.6761 99.032 30.2102C99.2024 29.7443 99.2876 29.2311 99.2876 28.6705C99.2876 28.1136 99.2024 27.6023 99.032 27.1364C98.8653 26.6667 98.6077 26.2898 98.2592 26.0057C97.9107 25.7216 97.4714 25.5795 96.9411 25.5795C96.407 25.5795 95.9638 25.7216 95.6115 26.0057C95.263 26.2898 95.0036 26.6667 94.8331 27.1364C94.6664 27.6023 94.5831 28.1136 94.5831 28.6705C94.5831 29.2311 94.6664 29.7443 94.8331 30.2102C95.0036 30.6761 95.263 31.0492 95.6115 31.3295C95.9638 31.6098 96.407 31.75 96.9411 31.75ZM104.526 33L101.958 24.2727H103.714L105.424 30.6818H105.509L107.225 24.2727H108.981L110.685 30.6534H110.771L112.469 24.2727H114.225L111.663 33H109.93L108.157 26.6989H108.026L106.254 33H104.526Z" fill="white"/>
</g>
<defs>
<filter id="filter0_d_1631_6756" x="0" y="0" width="161" height="56" filterUnits="userSpaceOnUse" color-interpolation-filters="sRGB">
<feFlood flood-opacity="0" result="BackgroundImageFix"/>
<feColorMatrix in="SourceAlpha" type="matrix" values="0 0 0 0 0 0 0 0 0 0 0 0 0 0 0 0 0 0 127 0" result="hardAlpha"/>
<feOffset dy="1"/>
<feGaussianBlur stdDeviation="1"/>
<feColorMatrix type="matrix" values="0 0 0 0 0.0627451 0 0 0 0 0.0941176 0 0 0 0 0.156863 0 0 0 0.05 0"/>
<feBlend mode="normal" in2="BackgroundImageFix" result="effect1_dropShadow_1631_6756"/>
<feBlend mode="normal" in="SourceGraphic" in2="effect1_dropShadow_1631_6756" result="shape"/>
</filter>
<linearGradient id="paint0_linear_1631_6756" x1="6.33919" y1="1.37296" x2="145.936" y2="6.73888" gradientUnits="userSpaceOnUse">
<stop stop-color="#C58F31"/>
<stop offset="0.486977" stop-color="#B8994C"/>
<stop offset="1" stop-color="#895D1F"/>
</linearGradient>
</defs>
</svg>
