<svg width="52" height="52" viewBox="0 0 52 52" fill="none" xmlns="http://www.w3.org/2000/svg">
<g clip-path="url(#clip0_1609_2021)">
<path d="M13.25 26C13.25 27.6744 13.5798 29.3323 14.2205 30.8792C14.8613 32.4261 15.8004 33.8317 16.9844 35.0156C18.1683 36.1996 19.5739 37.1387 21.1208 37.7795C22.6677 38.4202 24.3256 38.75 26 38.75C27.6744 38.75 29.3323 38.4202 30.8792 37.7795C32.4261 37.1387 33.8317 36.1996 35.0156 35.0156C36.1996 33.8317 37.1387 32.4261 37.7795 30.8792C38.4202 29.3323 38.75 27.6744 38.75 26C38.75 24.3256 38.4202 22.6677 37.7795 21.1208C37.1387 19.5739 36.1996 18.1683 35.0156 16.9844C33.8317 15.8004 32.4261 14.8613 30.8792 14.2205C29.3323 13.5798 27.6744 13.25 26 13.25C24.3256 13.25 22.6677 13.5798 21.1208 14.2205C19.5739 14.8613 18.1683 15.8004 16.9844 16.9844C15.8004 18.1683 14.8613 19.5739 14.2205 21.1208C13.5798 22.6677 13.25 24.3256 13.25 26Z" stroke="black" stroke-width="2" stroke-linecap="round" stroke-linejoin="round"/>
<path d="M21.75 23.1667C21.75 24.2938 22.1978 25.3748 22.9948 26.1719C23.7918 26.9689 24.8728 27.4167 26 27.4167C27.1272 27.4167 28.2082 26.9689 29.0052 26.1719C29.8022 25.3748 30.25 24.2938 30.25 23.1667C30.25 22.0395 29.8022 20.9585 29.0052 20.1615C28.2082 19.3644 27.1272 18.9167 26 18.9167C24.8728 18.9167 23.7918 19.3644 22.9948 20.1615C22.1978 20.9585 21.75 22.0395 21.75 23.1667Z" stroke="black" stroke-width="2" stroke-linecap="round" stroke-linejoin="round"/>
<path d="M17.7383 35.7027C18.0889 34.5357 18.8064 33.5128 19.7843 32.7858C20.7622 32.0587 21.9484 31.6663 23.1669 31.6667H28.8336C30.0537 31.6662 31.2414 32.0596 32.22 32.7884C33.1986 33.5171 33.9159 34.5422 34.2651 35.7112" stroke="black" stroke-width="2" stroke-linecap="round" stroke-linejoin="round"/>
</g>
<defs>
<clipPath id="clip0_1609_2021">
<rect width="34" height="34" fill="white" transform="translate(9 9)"/>
</clipPath>
</defs>
</svg>
