<svg width="52" height="52" viewBox="0 0 52 52" fill="none" xmlns="http://www.w3.org/2000/svg">
<g clip-path="url(#clip0_1609_2010)">
<path d="M16.082 18.9167C16.082 20.4196 16.6791 21.8609 17.7418 22.9236C18.8045 23.9863 20.2458 24.5833 21.7487 24.5833C23.2516 24.5833 24.6929 23.9863 25.7556 22.9236C26.8183 21.8609 27.4154 20.4196 27.4154 18.9167C27.4154 17.4138 26.8183 15.9724 25.7556 14.9097C24.6929 13.847 23.2516 13.25 21.7487 13.25C20.2458 13.25 18.8045 13.847 17.7418 14.9097C16.6791 15.9724 16.082 17.4138 16.082 18.9167Z" stroke="black" stroke-width="2" stroke-linecap="round" stroke-linejoin="round"/>
<path d="M13.25 38.75V35.9167C13.25 34.4138 13.847 32.9724 14.9097 31.9097C15.9724 30.847 17.4138 30.25 18.9167 30.25H24.5833C26.0862 30.25 27.5276 30.847 28.5903 31.9097C29.653 32.9724 30.25 34.4138 30.25 35.9167V38.75" stroke="black" stroke-width="2" stroke-linecap="round" stroke-linejoin="round"/>
<path d="M31.668 13.4342C32.8869 13.7463 33.9673 14.4552 34.7388 15.4491C35.5103 16.4431 35.9291 17.6655 35.9291 18.9238C35.9291 20.182 35.5103 21.4045 34.7388 22.3984C33.9673 23.3923 32.8869 24.1012 31.668 24.4133" stroke="black" stroke-width="2" stroke-linecap="round" stroke-linejoin="round"/>
<path d="M38.75 38.75V35.9167C38.7428 34.666 38.322 33.4528 37.5533 32.4662C36.7845 31.4797 35.711 30.7752 34.5 30.4625" stroke="black" stroke-width="2" stroke-linecap="round" stroke-linejoin="round"/>
</g>
<defs>
<clipPath id="clip0_1609_2010">
<rect width="34" height="34" fill="white" transform="translate(9 9)"/>
</clipPath>
</defs>
</svg>
