<svg width="153" height="38" viewBox="0 0 153 38" fill="none" xmlns="http://www.w3.org/2000/svg">
<path d="M53.8773 6.0421V19.9686H47.866V6.0421H41.7188V1.25485H59.9973V6.0421H53.8773Z" fill="white"/>
<path d="M61.6478 1.25485H77.832V5.74289H67.6591V8.32692H76.3631V12.6246H67.6591V15.4806H78.0224V19.9686H61.6478V1.25485Z" fill="white"/>
<path d="M92.729 19.9686L91.9402 17.3302H85.3849L84.5961 19.9686H78.4489L85.2761 1.25485H92.2666L99.0938 19.9686H92.729ZM86.6361 13.1414H90.689L88.7306 6.4773H88.6217L86.6361 13.1414Z" fill="white"/>
<path d="M116.348 19.9686V13.223C116.348 12.3888 116.375 11.5365 116.429 10.6661C116.502 9.77759 116.574 9.03412 116.647 8.43572C116.719 7.83731 116.765 7.45651 116.783 7.29331H116.674L113.219 19.9686H108.514L105.032 7.32051H104.923C104.942 7.48371 104.987 7.86451 105.059 8.46292C105.15 9.04319 105.232 9.77759 105.304 10.6661C105.377 11.5365 105.413 12.3888 105.413 13.223V19.9686H99.8914V1.25485H108.378L111.207 12.0534H111.315L114.117 1.25485H122.304V19.9686H116.348Z" fill="white"/>
<path d="M47.7464 23.9979V28.7852H45.68V23.9979H43.5669V22.3523H49.8501V23.9979H47.7464Z" fill="white"/>
<path d="M52.2822 23.7361C53.186 23.7361 53.8748 23.948 54.3485 24.3719C54.8285 24.7958 55.0685 25.4441 55.0685 26.3167V26.6346H51.3659C51.3659 26.9899 51.4438 27.258 51.5996 27.4387C51.7617 27.6195 52.0141 27.7099 52.357 27.7099C52.6686 27.7099 52.8962 27.6444 53.0395 27.5135C53.1891 27.3826 53.2639 27.2081 53.2639 26.9899H55.0685C55.0685 27.5883 54.841 28.0559 54.3859 28.3925C53.9309 28.7291 53.267 28.8974 52.3944 28.8974C51.4781 28.8974 50.7675 28.6854 50.2625 28.2616C49.7576 27.8315 49.5052 27.1832 49.5052 26.3167C49.5052 25.469 49.7514 24.827 50.2438 24.3906C50.7363 23.9543 51.4157 23.7361 52.2822 23.7361ZM52.357 24.9236C51.771 24.9236 51.4438 25.201 51.3752 25.7557H53.1891C53.1891 25.5002 53.1143 25.2976 52.9647 25.148C52.8214 24.9984 52.6188 24.9236 52.357 24.9236Z" fill="white"/>
<path d="M58.1446 23.7361C58.9549 23.7361 59.6094 23.9106 60.1081 24.2597C60.613 24.6026 60.8655 25.1293 60.8655 25.8399H59.0609C59.0609 25.2789 58.7555 24.9984 58.1446 24.9984C57.5337 24.9984 57.2283 25.3506 57.2283 26.0549V26.5879C57.2283 27.286 57.5462 27.6351 58.182 27.6351C58.8178 27.6351 59.1357 27.3484 59.1357 26.7749H60.8655C60.8655 27.4917 60.613 28.0247 60.1081 28.3738C59.6094 28.7228 58.9549 28.8974 58.1446 28.8974C57.2782 28.8974 56.5987 28.6792 56.1063 28.2429C55.6138 27.8065 55.3676 27.1645 55.3676 26.3167C55.3676 25.469 55.6138 24.827 56.1063 24.3906C56.5987 23.9543 57.2782 23.7361 58.1446 23.7361Z" fill="white"/>
<path d="M63.1599 24.3626C63.3594 24.1631 63.5931 24.0104 63.8612 23.9044C64.1292 23.7922 64.4097 23.7361 64.7027 23.7361C65.2761 23.7361 65.7062 23.8951 65.993 24.213C66.2797 24.5309 66.4231 24.989 66.4231 25.5874V28.7852H64.5624V25.8118C64.5624 25.5999 64.5063 25.4316 64.3941 25.3069C64.2881 25.176 64.1354 25.1106 63.9359 25.1106C63.7053 25.1106 63.5183 25.1854 63.3749 25.335C63.2316 25.4846 63.1599 25.6685 63.1599 25.8866V28.7852H61.2992V22.0063H63.1599V24.3626Z" fill="white"/>
<path d="M70.0322 22.3523H75.5955V23.8951H72.0986V24.7833H75.0906V26.2606H72.0986V27.2424H75.661V28.7852H70.0322V22.3523Z" fill="white"/>
<path d="M79.6785 23.7361C80.252 23.7361 80.6821 23.8951 80.9688 24.213C81.2556 24.5309 81.3989 24.989 81.3989 25.5874V28.7852H79.5382V25.8118C79.5382 25.5999 79.4821 25.4316 79.3699 25.3069C79.264 25.176 79.1113 25.1106 78.9118 25.1106C78.6812 25.1106 78.4942 25.1854 78.3508 25.335C78.2074 25.4846 78.1357 25.6685 78.1357 25.8866V28.7852H76.2751V23.8483H77.7991L77.9207 24.5963C78.1139 24.3345 78.3664 24.1257 78.678 23.9699C78.9959 23.814 79.3294 23.7361 79.6785 23.7361Z" fill="white"/>
<path d="M85.4287 23.8483V25.1106H84.3815V26.9899C84.3815 27.2143 84.4189 27.3795 84.4937 27.4855C84.5685 27.5852 84.7057 27.6351 84.9051 27.6351H85.4287V28.7291C85.2791 28.7789 85.0859 28.8194 84.849 28.8506C84.6122 28.8818 84.4065 28.8974 84.2319 28.8974C83.6834 28.8974 83.2595 28.7976 82.9603 28.5982C82.6673 28.3987 82.5209 28.059 82.5209 27.579V25.1106H81.8289V23.8483H82.5957L82.9977 22.3523H84.3815V23.8483H85.4287Z" fill="white"/>
<path d="M88.9194 23.7268C89.0628 23.7268 89.1906 23.7455 89.3028 23.7829C89.415 23.814 89.4711 23.8327 89.4711 23.839V25.4004H88.8727C88.4862 25.4004 88.2057 25.5002 88.0312 25.6996C87.8629 25.8991 87.7787 26.1952 87.7787 26.5879V28.7852H85.9181V23.8483H87.4421L87.5637 24.5963C87.6759 24.3096 87.8535 24.0945 88.0966 23.9512C88.3397 23.8016 88.614 23.7268 88.9194 23.7268Z" fill="white"/>
<path d="M92.3973 23.7361C93.3012 23.7361 93.9899 23.948 94.4637 24.3719C94.9437 24.7958 95.1836 25.4441 95.1836 26.3167V26.6346H91.481C91.481 26.9899 91.5589 27.258 91.7148 27.4387C91.8768 27.6195 92.1293 27.7099 92.4721 27.7099C92.7838 27.7099 93.0113 27.6444 93.1547 27.5135C93.3043 27.3826 93.3791 27.2081 93.3791 26.9899H95.1836C95.1836 27.5883 94.9561 28.0559 94.5011 28.3925C94.0461 28.7291 93.3822 28.8974 92.5095 28.8974C91.5932 28.8974 90.8826 28.6854 90.3777 28.2616C89.8728 27.8315 89.6203 27.1832 89.6203 26.3167C89.6203 25.469 89.8666 24.827 90.359 24.3906C90.8514 23.9543 91.5309 23.7361 92.3973 23.7361ZM92.4721 24.9236C91.8862 24.9236 91.5589 25.201 91.4904 25.7557H93.3043C93.3043 25.5002 93.2295 25.2976 93.0799 25.148C92.9365 24.9984 92.7339 24.9236 92.4721 24.9236Z" fill="white"/>
<path d="M98.961 23.7361C99.628 23.7361 100.142 23.9543 100.504 24.3906C100.865 24.827 101.046 25.4721 101.046 26.3261C101.046 27.1738 100.865 27.8159 100.504 28.2522C100.142 28.6823 99.628 28.8974 98.961 28.8974C98.3875 28.8974 97.9263 28.7104 97.5772 28.3364V30.6271H95.7165V23.8483H97.2312L97.3902 24.5496C97.7517 24.0073 98.2753 23.7361 98.961 23.7361ZM98.3813 25.1106C98.107 25.1106 97.9013 25.2072 97.7642 25.4004C97.6271 25.5937 97.5585 25.8461 97.5585 26.1578V26.4663C97.5585 26.778 97.6271 27.0336 97.7642 27.233C97.9013 27.4263 98.107 27.5229 98.3813 27.5229C98.9174 27.5229 99.1854 27.2019 99.1854 26.5598V26.0643C99.1854 25.4285 98.9174 25.1106 98.3813 25.1106Z" fill="white"/>
<path d="M104.571 23.7268C104.714 23.7268 104.842 23.7455 104.954 23.7829C105.067 23.814 105.123 23.8327 105.123 23.839V25.4004H104.524C104.138 25.4004 103.857 25.5002 103.683 25.6996C103.514 25.8991 103.43 26.1952 103.43 26.5879V28.7852H101.57V23.8483H103.094L103.215 24.5963C103.327 24.3096 103.505 24.0945 103.748 23.9512C103.991 23.8016 104.266 23.7268 104.571 23.7268Z" fill="white"/>
<path d="M108.049 23.7361C108.953 23.7361 109.641 23.948 110.115 24.3719C110.595 24.7958 110.835 25.4441 110.835 26.3167V26.6346H107.133C107.133 26.9899 107.21 27.258 107.366 27.4387C107.528 27.6195 107.781 27.7099 108.124 27.7099C108.435 27.7099 108.663 27.6444 108.806 27.5135C108.956 27.3826 109.031 27.2081 109.031 26.9899H110.835C110.835 27.5883 110.608 28.0559 110.153 28.3925C109.698 28.7291 109.034 28.8974 108.161 28.8974C107.245 28.8974 106.534 28.6854 106.029 28.2616C105.524 27.8315 105.272 27.1832 105.272 26.3167C105.272 25.469 105.518 24.827 106.011 24.3906C106.503 23.9543 107.182 23.7361 108.049 23.7361ZM108.124 24.9236C107.538 24.9236 107.21 25.201 107.142 25.7557H108.956C108.956 25.5002 108.881 25.2976 108.731 25.148C108.588 24.9984 108.385 24.9236 108.124 24.9236Z" fill="white"/>
<path d="M114.762 23.7361C115.336 23.7361 115.766 23.8951 116.052 24.213C116.339 24.5309 116.483 24.989 116.483 25.5874V28.7852H114.622V25.8118C114.622 25.5999 114.566 25.4316 114.454 25.3069C114.348 25.176 114.195 25.1106 113.995 25.1106C113.765 25.1106 113.578 25.1854 113.434 25.335C113.291 25.4846 113.219 25.6685 113.219 25.8866V28.7852H111.359V23.8483H112.883L113.004 24.5963C113.198 24.3345 113.45 24.1257 113.762 23.9699C114.08 23.814 114.413 23.7361 114.762 23.7361Z" fill="white"/>
<path d="M119.774 23.7361C120.678 23.7361 121.366 23.948 121.84 24.3719C122.32 24.7958 122.56 25.4441 122.56 26.3167V26.6346H118.857C118.857 26.9899 118.935 27.258 119.091 27.4387C119.253 27.6195 119.506 27.7099 119.849 27.7099C120.16 27.7099 120.388 27.6444 120.531 27.5135C120.681 27.3826 120.755 27.2081 120.755 26.9899H122.56C122.56 27.5883 122.333 28.0559 121.877 28.3925C121.422 28.7291 120.759 28.8974 119.886 28.8974C118.97 28.8974 118.259 28.6854 117.754 28.2616C117.249 27.8315 116.997 27.1832 116.997 26.3167C116.997 25.469 117.243 24.827 117.735 24.3906C118.228 23.9543 118.907 23.7361 119.774 23.7361ZM119.849 24.9236C119.263 24.9236 118.935 25.201 118.867 25.7557H120.681C120.681 25.5002 120.606 25.2976 120.456 25.148C120.313 24.9984 120.11 24.9236 119.849 24.9236Z" fill="white"/>
<path d="M126.665 28.7852L126.543 28.0372C126.35 28.3052 126.094 28.5171 125.776 28.673C125.465 28.8226 125.134 28.8974 124.785 28.8974C124.212 28.8974 123.782 28.7384 123.495 28.4205C123.208 28.1026 123.065 27.6444 123.065 27.046V23.8483H124.926V26.8216C124.926 27.0336 124.979 27.205 125.084 27.3359C125.197 27.4606 125.353 27.5229 125.552 27.5229C125.783 27.5229 125.97 27.4481 126.113 27.2985C126.256 27.1489 126.328 26.965 126.328 26.7468V23.8483H128.189V28.7852H126.665Z" fill="white"/>
<path d="M131.947 23.7268C132.091 23.7268 132.219 23.7455 132.331 23.7829C132.443 23.814 132.499 23.8327 132.499 23.839V25.4004H131.901C131.514 25.4004 131.234 25.5002 131.059 25.6996C130.891 25.8991 130.807 26.1952 130.807 26.5879V28.7852H128.946V23.8483H130.47L130.592 24.5963C130.704 24.3096 130.881 24.0945 131.125 23.9512C131.368 23.8016 131.642 23.7268 131.947 23.7268Z" fill="white"/>
<path d="M135.311 23.7361C135.972 23.7361 136.529 23.867 136.985 24.1288C137.446 24.3844 137.676 24.7833 137.676 25.3256H135.947C135.947 25.1449 135.866 25.0171 135.704 24.9423C135.591 24.8799 135.451 24.8488 135.283 24.8488C134.834 24.8488 134.61 24.9547 134.61 25.1667C134.61 25.2851 134.688 25.3693 134.843 25.4191C134.999 25.469 135.255 25.522 135.61 25.5781C136.046 25.6404 136.411 25.7152 136.704 25.8025C136.997 25.8835 137.253 26.0331 137.471 26.2513C137.689 26.4632 137.798 26.7624 137.798 27.1489C137.798 27.7785 137.561 28.2273 137.087 28.4953C136.62 28.7633 136.006 28.8974 135.245 28.8974C134.809 28.8974 134.398 28.8381 134.011 28.7197C133.625 28.595 133.31 28.4049 133.067 28.1494C132.824 27.8938 132.702 27.5696 132.702 27.1769H134.432V27.2143C134.438 27.4263 134.525 27.5759 134.694 27.6631C134.868 27.7442 135.052 27.7847 135.245 27.7847C135.763 27.7847 136.021 27.6631 136.021 27.42C136.021 27.2954 135.94 27.205 135.778 27.1489C135.616 27.0928 135.351 27.0336 134.984 26.9712C134.541 26.8964 134.176 26.8154 133.89 26.7281C133.609 26.6409 133.363 26.4944 133.151 26.2887C132.939 26.0768 132.833 25.7838 132.833 25.4098C132.833 24.8051 133.061 24.375 133.516 24.1195C133.977 23.8639 134.575 23.7361 135.311 23.7361Z" fill="white"/>
<path d="M48.3541 36.5843L48.083 35.6773H45.8296L45.5584 36.5843H43.4453L45.7922 30.1514H48.1952L50.542 36.5843H48.3541ZM46.2597 34.2374H47.6529L46.9796 31.9467H46.9422L46.2597 34.2374Z" fill="white"/>
<path d="M53.163 31.5353C53.8238 31.5353 54.3817 31.6662 54.8367 31.928C55.298 32.1835 55.5286 32.5825 55.5286 33.1248H53.7989C53.7989 32.944 53.7178 32.8162 53.5557 32.7414C53.4435 32.6791 53.3033 32.6479 53.135 32.6479C52.6862 32.6479 52.4618 32.7539 52.4618 32.9658C52.4618 33.0843 52.5397 33.1684 52.6955 33.2183C52.8514 33.2681 53.1069 33.3211 53.4622 33.3772C53.8986 33.4396 54.2632 33.5144 54.5562 33.6016C54.8492 33.6827 55.1047 33.8323 55.3229 34.0504C55.5411 34.2624 55.6502 34.5616 55.6502 34.948C55.6502 35.5776 55.4133 36.0264 54.9396 36.2945C54.4721 36.5625 53.8581 36.6965 53.0976 36.6965C52.6613 36.6965 52.2499 36.6373 51.8634 36.5189C51.4769 36.3942 51.1621 36.2041 50.919 35.9485C50.6759 35.6929 50.5544 35.3688 50.5544 34.9761H52.2841V35.0135C52.2904 35.2254 52.3776 35.375 52.5459 35.4623C52.7205 35.5433 52.9044 35.5838 53.0976 35.5838C53.615 35.5838 53.8737 35.4623 53.8737 35.2192C53.8737 35.0945 53.7926 35.0041 53.6305 34.948C53.4685 34.8919 53.2036 34.8327 52.8358 34.7704C52.3932 34.6956 52.0286 34.6146 51.7418 34.5273C51.4613 34.44 51.2151 34.2935 51.0032 34.0878C50.7912 33.8759 50.6853 33.5829 50.6853 33.2089C50.6853 32.6043 50.9128 32.1742 51.3678 31.9186C51.8291 31.663 52.4275 31.5353 53.163 31.5353Z" fill="white"/>
<path d="M58.505 31.5353C59.1657 31.5353 59.7236 31.6662 60.1787 31.928C60.6399 32.1835 60.8706 32.5825 60.8706 33.1248H59.1408C59.1408 32.944 59.0598 32.8162 58.8977 32.7414C58.7855 32.6791 58.6453 32.6479 58.477 32.6479C58.0282 32.6479 57.8038 32.7539 57.8038 32.9658C57.8038 33.0843 57.8817 33.1684 58.0375 33.2183C58.1933 33.2681 58.4489 33.3211 58.8042 33.3772C59.2406 33.4396 59.6052 33.5144 59.8982 33.6016C60.1911 33.6827 60.4467 33.8323 60.6649 34.0504C60.883 34.2624 60.9921 34.5616 60.9921 34.948C60.9921 35.5776 60.7553 36.0264 60.2815 36.2945C59.814 36.5625 59.2 36.6965 58.4396 36.6965C58.0032 36.6965 57.5918 36.6373 57.2053 36.5189C56.8189 36.3942 56.5041 36.2041 56.261 35.9485C56.0179 35.6929 55.8963 35.3688 55.8963 34.9761H57.6261V35.0135C57.6323 35.2254 57.7196 35.375 57.8879 35.4623C58.0624 35.5433 58.2463 35.5838 58.4396 35.5838C58.9569 35.5838 59.2156 35.4623 59.2156 35.2192C59.2156 35.0945 59.1346 35.0041 58.9725 34.948C58.8104 34.8919 58.5455 34.8327 58.1778 34.7704C57.7352 34.6956 57.3705 34.6146 57.0838 34.5273C56.8033 34.44 56.5571 34.2935 56.3451 34.0878C56.1332 33.8759 56.0272 33.5829 56.0272 33.2089C56.0272 32.6043 56.2548 32.1742 56.7098 31.9186C57.1711 31.663 57.7695 31.5353 58.505 31.5353Z" fill="white"/>
<path d="M64.0527 31.5353C64.9191 31.5353 65.5986 31.7565 66.091 32.1991C66.5897 32.6355 66.839 33.2744 66.839 34.1159C66.839 34.9574 66.5897 35.5994 66.091 36.042C65.5986 36.4783 64.9191 36.6965 64.0527 36.6965C63.1862 36.6965 62.5068 36.4783 62.0144 36.042C61.5219 35.6057 61.2757 34.9636 61.2757 34.1159C61.2757 33.2681 61.5219 32.6261 62.0144 32.1898C62.5068 31.7534 63.1862 31.5353 64.0527 31.5353ZM64.0527 32.7975C63.4418 32.7975 63.1364 33.1497 63.1364 33.8541V34.387C63.1364 35.0852 63.4418 35.4342 64.0527 35.4342C64.6698 35.4342 64.9783 35.0852 64.9783 34.387V33.8541C64.9783 33.1497 64.6698 32.7975 64.0527 32.7975Z" fill="white"/>
<path d="M69.9151 31.5353C70.7255 31.5353 71.38 31.7098 71.8786 32.0589C72.3835 32.4017 72.636 32.9284 72.636 33.639H70.8314C70.8314 33.078 70.526 32.7975 69.9151 32.7975C69.3042 32.7975 68.9988 33.1497 68.9988 33.8541V34.387C68.9988 35.0852 69.3167 35.4342 69.9525 35.4342C70.5883 35.4342 70.9062 35.1475 70.9062 34.574H72.636C72.636 35.2909 72.3835 35.8238 71.8786 36.1729C71.38 36.522 70.7255 36.6965 69.9151 36.6965C69.0487 36.6965 68.3692 36.4783 67.8768 36.042C67.3844 35.6057 67.1381 34.9636 67.1381 34.1159C67.1381 33.2681 67.3844 32.6261 67.8768 32.1898C68.3692 31.7534 69.0487 31.5353 69.9151 31.5353Z" fill="white"/>
<path d="M73.2904 31.0678V29.8055H75.1511V31.0678H73.2904ZM73.2904 36.5843V31.6475H75.1511V36.5843H73.2904Z" fill="white"/>
<path d="M78.405 31.5353C79.1592 31.5353 79.7732 31.663 80.247 31.9186C80.7207 32.1679 80.9576 32.5762 80.9576 33.1435V35.0696C80.9576 35.1756 80.9825 35.2628 81.0324 35.3314C81.0822 35.4 81.157 35.4342 81.2568 35.4342H81.5934V36.5095C81.5747 36.522 81.5248 36.5438 81.4438 36.575C81.369 36.5999 81.2599 36.6248 81.1165 36.6498C80.9731 36.6809 80.808 36.6965 80.621 36.6965C80.2594 36.6965 79.9602 36.6435 79.7233 36.5376C79.4927 36.4254 79.3338 36.2726 79.2465 36.0794C79.0096 36.2664 78.7447 36.416 78.4517 36.5282C78.1588 36.6404 77.8159 36.6965 77.4232 36.6965C76.2638 36.6965 75.6841 36.2352 75.6841 35.3127C75.6841 34.8327 75.8119 34.4681 76.0675 34.2187C76.3293 33.9632 76.7033 33.7886 77.1895 33.6951C77.6757 33.6016 78.3115 33.5549 79.0969 33.5549V33.3118C79.0969 33.1185 79.0283 32.9721 78.8912 32.8723C78.7603 32.7726 78.5889 32.7227 78.3769 32.7227C78.1837 32.7227 78.0154 32.757 77.872 32.8256C77.7349 32.8941 77.6663 33.0032 77.6663 33.1528V33.1902H75.8337C75.8275 33.1591 75.8244 33.1154 75.8244 33.0593C75.8244 32.5918 76.0457 32.2209 76.4882 31.9467C76.937 31.6724 77.5759 31.5353 78.405 31.5353ZM79.0969 34.4338C78.5671 34.4338 78.1744 34.493 77.9188 34.6114C77.6694 34.7236 77.5448 34.8764 77.5448 35.0696C77.5448 35.3813 77.7567 35.5371 78.1806 35.5371C78.4237 35.5371 78.6356 35.4716 78.8164 35.3407C79.0034 35.2098 79.0969 35.0478 79.0969 34.8545V34.4338Z" fill="white"/>
<path d="M84.963 31.6475V32.9097H83.9158V34.7891C83.9158 35.0135 83.9532 35.1787 84.028 35.2846C84.1028 35.3844 84.24 35.4342 84.4394 35.4342H84.963V36.5282C84.8134 36.5781 84.6202 36.6186 84.3833 36.6498C84.1465 36.6809 83.9408 36.6965 83.7662 36.6965C83.2177 36.6965 82.7938 36.5968 82.4946 36.3973C82.2017 36.1978 82.0552 35.8581 82.0552 35.3781V32.9097H81.3633V31.6475H82.13L82.532 30.1514H83.9158V31.6475H84.963Z" fill="white"/>
<path d="M85.5178 31.0678V29.8055H87.3785V31.0678H85.5178ZM85.5178 36.5843V31.6475H87.3785V36.5843H85.5178Z" fill="white"/>
<path d="M90.7446 31.5353C91.6111 31.5353 92.2905 31.7565 92.7829 32.1991C93.2816 32.6355 93.5309 33.2744 93.5309 34.1159C93.5309 34.9574 93.2816 35.5994 92.7829 36.042C92.2905 36.4783 91.6111 36.6965 90.7446 36.6965C89.8782 36.6965 89.1987 36.4783 88.7063 36.042C88.2139 35.6057 87.9676 34.9636 87.9676 34.1159C87.9676 33.2681 88.2139 32.6261 88.7063 32.1898C89.1987 31.7534 89.8782 31.5353 90.7446 31.5353ZM90.7446 32.7975C90.1337 32.7975 89.8283 33.1497 89.8283 33.8541V34.387C89.8283 35.0852 90.1337 35.4342 90.7446 35.4342C91.3617 35.4342 91.6703 35.0852 91.6703 34.387V33.8541C91.6703 33.1497 91.3617 32.7975 90.7446 32.7975Z" fill="white"/>
<path d="M97.4579 31.5353C98.0314 31.5353 98.4615 31.6942 98.7482 32.0121C99.035 32.33 99.1783 32.7882 99.1783 33.3866V36.5843H97.3177V33.611C97.3177 33.399 97.2616 33.2307 97.1494 33.1061C97.0434 32.9752 96.8907 32.9097 96.6912 32.9097C96.4606 32.9097 96.2736 32.9845 96.1302 33.1341C95.9868 33.2837 95.9151 33.4676 95.9151 33.6858V36.5843H94.0545V31.6475H95.5785L95.7001 32.3955C95.8933 32.1337 96.1458 31.9248 96.4574 31.769C96.7753 31.6132 97.1088 31.5353 97.4579 31.5353Z" fill="white"/>
<path d="M105.209 31.5353C106.076 31.5353 106.755 31.7565 107.247 32.1991C107.746 32.6355 107.995 33.2744 107.995 34.1159C107.995 34.9574 107.746 35.5994 107.247 36.042C106.755 36.4783 106.076 36.6965 105.209 36.6965C104.343 36.6965 103.663 36.4783 103.171 36.042C102.678 35.6057 102.432 34.9636 102.432 34.1159C102.432 33.2681 102.678 32.6261 103.171 32.1898C103.663 31.7534 104.343 31.5353 105.209 31.5353ZM105.209 32.7975C104.598 32.7975 104.293 33.1497 104.293 33.8541V34.387C104.293 35.0852 104.598 35.4342 105.209 35.4342C105.826 35.4342 106.135 35.0852 106.135 34.387V33.8541C106.135 33.1497 105.826 32.7975 105.209 32.7975Z" fill="white"/>
<path d="M110.529 29.6933C110.666 29.6933 110.838 29.712 111.044 29.7494C111.249 29.7806 111.414 29.818 111.539 29.8616V30.9556H111.109C110.909 30.9556 110.772 30.993 110.698 31.0678C110.623 31.1426 110.585 31.2703 110.585 31.4511V31.6475H111.539V32.9097H110.585V36.5843H108.725V32.9097H108.033V31.6475H108.725V31.4418C108.725 30.806 108.881 30.3572 109.192 30.0953C109.504 29.8273 109.95 29.6933 110.529 29.6933Z" fill="white"/>
<path d="M120.714 36.5843V34.2655C120.714 33.9788 120.724 33.6858 120.742 33.3866C120.767 33.0811 120.792 32.8256 120.817 32.6199C120.842 32.4142 120.858 32.2833 120.864 32.2272H120.826L119.639 36.5843H118.021L116.825 32.2365H116.787C116.793 32.2926 116.809 32.4235 116.834 32.6292C116.865 32.8287 116.893 33.0811 116.918 33.3866C116.943 33.6858 116.956 33.9788 116.956 34.2655V36.5843H115.057V30.1514H117.975L118.947 33.8634H118.984L119.948 30.1514H122.762V36.5843H120.714Z" fill="white"/>
<path d="M127.094 36.5843L126.973 35.8363C126.779 36.1043 126.524 36.3163 126.206 36.4721C125.894 36.6217 125.564 36.6965 125.215 36.6965C124.641 36.6965 124.211 36.5376 123.924 36.2197C123.638 35.9018 123.494 35.4436 123.494 34.8452V31.6475H125.355V34.6208C125.355 34.8327 125.408 35.0041 125.514 35.135C125.626 35.2597 125.782 35.322 125.982 35.322C126.212 35.322 126.399 35.2472 126.543 35.0976C126.686 34.948 126.758 34.7642 126.758 34.546V31.6475H128.618V36.5843H127.094Z" fill="white"/>
<path d="M135.93 31.5353C136.491 31.5353 136.912 31.6973 137.192 32.0215C137.473 32.3394 137.613 32.7944 137.613 33.3866V36.5843H135.752V33.611C135.752 33.399 135.699 33.2307 135.593 33.1061C135.494 32.9752 135.35 32.9097 135.163 32.9097C134.945 32.9097 134.767 32.9845 134.63 33.1341C134.493 33.2837 134.425 33.4676 134.425 33.6858V36.5843H132.564V33.611C132.564 33.399 132.511 33.2307 132.405 33.1061C132.305 32.9752 132.162 32.9097 131.975 32.9097C131.757 32.9097 131.579 32.9845 131.442 33.1341C131.305 33.2837 131.236 33.4676 131.236 33.6858V36.5843H129.376V31.6475H130.9L131.021 32.3861C131.208 32.1243 131.454 31.9186 131.76 31.769C132.071 31.6132 132.399 31.5353 132.742 31.5353C133.483 31.5353 133.982 31.8189 134.238 32.3861C134.431 32.1243 134.677 31.9186 134.976 31.769C135.282 31.6132 135.6 31.5353 135.93 31.5353Z" fill="white"/>
<path d="M140.222 32.1056C140.577 31.7254 141.038 31.5353 141.605 31.5353C142.272 31.5353 142.787 31.7534 143.148 32.1898C143.51 32.6199 143.69 33.2588 143.69 34.1065C143.69 34.9605 143.51 35.6057 143.148 36.042C142.787 36.4783 142.272 36.6965 141.605 36.6965C140.92 36.6965 140.396 36.4254 140.035 35.8831L139.876 36.5843H138.361V29.8055H140.222V32.1056ZM141.026 32.9097C140.751 32.9097 140.546 33.0095 140.409 33.2089C140.271 33.4022 140.203 33.6546 140.203 33.9663V34.2748C140.203 34.5865 140.271 34.839 140.409 35.0322C140.546 35.2254 140.751 35.322 141.026 35.322C141.562 35.322 141.83 35.0041 141.83 34.3683V33.8728C141.83 33.2307 141.562 32.9097 141.026 32.9097Z" fill="white"/>
<path d="M146.654 31.5353C147.409 31.5353 148.023 31.663 148.496 31.9186C148.97 32.1679 149.207 32.5762 149.207 33.1435V35.0696C149.207 35.1756 149.232 35.2628 149.282 35.3314C149.332 35.4 149.406 35.4342 149.506 35.4342H149.843V36.5095C149.824 36.522 149.774 36.5438 149.693 36.575C149.618 36.5999 149.509 36.6248 149.366 36.6498C149.223 36.6809 149.057 36.6965 148.87 36.6965C148.509 36.6965 148.21 36.6435 147.973 36.5376C147.742 36.4254 147.583 36.2726 147.496 36.0794C147.259 36.2664 146.994 36.416 146.701 36.5282C146.408 36.6404 146.065 36.6965 145.673 36.6965C144.513 36.6965 143.934 36.2352 143.934 35.3127C143.934 34.8327 144.061 34.4681 144.317 34.2187C144.579 33.9632 144.953 33.7886 145.439 33.6951C145.925 33.6016 146.561 33.5549 147.346 33.5549V33.3118C147.346 33.1185 147.278 32.9721 147.141 32.8723C147.01 32.7726 146.838 32.7227 146.626 32.7227C146.433 32.7227 146.265 32.757 146.121 32.8256C145.984 32.8941 145.916 33.0032 145.916 33.1528V33.1902H144.083C144.077 33.1591 144.074 33.1154 144.074 33.0593C144.074 32.5918 144.295 32.2209 144.738 31.9467C145.186 31.6724 145.825 31.5353 146.654 31.5353ZM147.346 34.4338C146.816 34.4338 146.424 34.493 146.168 34.6114C145.919 34.7236 145.794 34.8764 145.794 35.0696C145.794 35.3813 146.006 35.5371 146.43 35.5371C146.673 35.5371 146.885 35.4716 147.066 35.3407C147.253 35.2098 147.346 35.0478 147.346 34.8545V34.4338Z" fill="white"/>
<path d="M150.142 31.0678V29.8055H152.003V31.0678H150.142ZM150.142 36.5843V31.6475H152.003V36.5843H150.142Z" fill="white"/>
<circle cx="18.7002" cy="18.7002" r="18.7002" fill="#EDBF4F"/>
<circle cx="18.7002" cy="18.7002" r="18.7002" fill="white"/>
<path d="M25.3229 29.5196C24.0558 29.5196 23.0286 28.4925 23.0286 27.2253V23.8215C23.0286 23.1169 23.0516 22.3969 23.0976 21.6617C23.159 20.9111 23.2204 20.2831 23.2817 19.7776C23.3358 19.3324 23.3719 19.0298 23.3903 18.8698C23.3938 18.8392 23.3699 18.8126 23.3391 18.8126C23.3183 18.8126 23.2995 18.8251 23.2915 18.8443L20.9706 24.4114C20.6143 25.2662 19.7791 25.8229 18.853 25.8229H17.9238C17.0011 25.8229 16.1681 25.2701 15.8097 24.4198L13.469 18.8672C13.4609 18.848 13.4422 18.8356 13.4214 18.8356C13.3906 18.8356 13.3666 18.8623 13.3701 18.8929C13.3885 19.0529 13.4247 19.3555 13.4787 19.8006C13.5554 20.2907 13.6244 20.9111 13.6858 21.6617C13.7471 22.3969 13.7778 23.1169 13.7778 23.8215V27.2253C13.7778 28.4925 12.7506 29.5196 11.4835 29.5196H11.4007C10.1336 29.5196 9.10643 28.4925 9.10643 27.2253V16.0061C9.10643 14.739 10.1336 13.7118 11.4007 13.7118H14.5161C15.559 13.7118 16.4707 14.4151 16.7353 15.4239L18.6677 22.789C18.6746 22.8152 18.6982 22.8335 18.7253 22.8335C18.7525 22.8335 18.7762 22.8151 18.783 22.7889L20.6954 15.4291C20.9582 14.4178 21.8711 13.7118 22.9159 13.7118H25.7739C27.041 13.7118 28.0682 14.739 28.0682 16.0061V27.2253C28.0682 28.4925 27.041 29.5196 25.7739 29.5196H25.3229Z" fill="#10183C"/>
<circle cx="23.9896" cy="7.77455" r="3.55208" fill="#10183C"/>
<circle cx="12.3717" cy="8.83749" r="2.48501" fill="#10183C"/>
</svg>
